Amiri-Regular.sfdir
StartChar: exclam
Encoding: 33 33 5778
Width: 482
Flags: HW
LayerCount: 2
Fore
SplineSet
250 1364 m 0
 279.33 1364 301.33 1352 316 1328 c 0
 330.67 1304 338 1277.33 338 1248 c 0
 338 1105.33 314.67 804 268 344 c 1
 260 328 249.33 319.33 236 318 c 1
 223.33 323.33 214.67 330.67 210 340 c 1
 170 800 150 1102.67 150 1248 c 0
 150 1277.33 159.33 1304 178 1328 c 0
 196.67 1352 220.67 1364 250 1364 c 0
EndSplineSet
Refer: 296 -1 N 1 0 0 1 -80 0 2
EndChar
StartChar: parenleft
Encoding: 40 40 293
Width: 940
Flags: HW
LayerCount: 2
Fore
SplineSet
451 340 m 0
 451 96 494 -135.67 580 -355 c 0
 646.67 -524.33 736.33 -658 849 -756 c 1
 820 -791 l 1
 608.67 -624.33 459.67 -407 373 -139 c 0
 324.33 11.67 300 171.33 300 340 c 0
 300 699.33 400.67 1003.33 602 1252 c 0
 667.33 1332.67 740 1405 820 1469 c 1
 849 1425 l 1
 705.67 1310.33 597.67 1126.33 525 873 c 0
 475.67 700.33 451 522.67 451 340 c 0
EndSplineSet
EndChar
StartChar: parenright
Encoding: 41 41 294
Width: 940
Flags: HW
LayerCount: 2
Fore
SplineSet
488 340 m 0
 488 96 445 -135.67 359 -355 c 0
 292.33 -524.33 202.67 -658 90 -756 c 1
 119 -791 l 1
 330.33 -624.33 479.33 -407 566 -139 c 0
 614.67 11.67 639 171.33 639 340 c 0
 639 699.33 538.33 1003.33 337 1252 c 0
 271.67 1332.67 199 1405 119 1469 c 1
 90 1425 l 1
 233.33 1310.33 341.33 1126.33 414 873 c 0
 463.33 700.33 488 522.67 488 340 c 0
EndSplineSet
EndChar
StartChar: slash
Encoding: 47 47 5618
Width: 706
Flags: HW
LayerCount: 2
Fore
SplineSet
618 1438 m 0
 631.333333333 1438 640 1432 644 1420 c 1
 145 -335 l 2
 142.464006385 -343.919175939 133.464006385 -354.085842606 118 -365.5 c 0
 104 -375.833333333 87 -381 67 -381 c 0
 58.3333333333 -381 51 -379.833333333 45 -377.5 c 128
 39 -375.166666667 35.1666666667 -372.833333333 33.5 -370.5 c 2
 31 -367 l 1
 538 1408 l 2
 538.784771873 1410.74747549 542.284771873 1414.24747549 548.5 1418.5 c 128
 554.833333333 1422.83333333 564.333333333 1427.16666667 577 1431.5 c 128
 589.666666667 1435.83333333 603.333333333 1438 618 1438 c 0
EndSplineSet
EndChar
StartChar: bracketleft
Encoding: 91 91 338
Width: 740
Flags: HW
LayerCount: 2
Fore
SplineSet
338 1454 m 2
 644 1466 l 1
 649 1455 l 0
 649.67 1452.33 650 1450 650 1448 c 0
 650 1433.33 644.33 1423 633 1417 c 0
 631.67 1416.33 630.67 1416 630 1416 c 0
 579.33 1398.67 501.33 1383.33 396 1370 c 1
 396 -694 l 1
 530 -715 l 1
 573.33 -723.67 606.67 -732 630 -740 c 1
 643.33 -747.33 650 -758 650 -772 c 0
 650 -776 649.33 -779.33 648 -782 c 0
 646 -788 l 2
 644 -790 l 1
 464 -780 l 1
 420 -778.67 378 -778 338 -778 c 1
 316 -775.33 303.33 -760 300 -732 c 1
 300 1408 l 2
 300 1428 306.33 1441.67 319 1449 c 0
 324.33 1452.33 330.67 1454 338 1454 c 2
EndSplineSet
EndChar
StartChar: backslash
Encoding: 92 92 5776
Width: 706
Flags: HW
LayerCount: 2
Fore
SplineSet
88 1438 m 0
 74.67 1438 66 1432 62 1420 c 1
 561 -335 l 2
 563.54 -343.92 572.54 -354.09 588 -365.5 c 0
 602 -375.83 619 -381 639 -381 c 0
 647.67 -381 655 -379.83 661 -377.5 c 128
 667 -375.17 670.83 -372.83 672.5 -370.5 c 2
 675 -367 l 1
 168 1408 l 2
 167.22 1410.75 163.72 1414.25 157.5 1418.5 c 128
 151.17 1422.83 141.67 1427.17 129 1431.5 c 128
 116.33 1435.83 102.67 1438 88 1438 c 0
EndSplineSet
EndChar
StartChar: bracketright
Encoding: 93 93 339
Width: 740
Flags: HW
LayerCount: 2
Fore
SplineSet
402 1454 m 2
 96 1466 l 1
 91 1455 l 0
 90.3333333333 1452.33333333 90 1450 90 1448 c 0
 90 1433.33333333 95.6666666667 1423 107 1417 c 0
 108.333333333 1416.33333333 109.333333333 1416 110 1416 c 0
 160.666666667 1398.66666667 238.666666667 1383.33333333 344 1370 c 1
 344 -694 l 1
 210 -715 l 1
 166.666666667 -723.666666667 133.333333333 -732 110 -740 c 1
 96.6666666667 -747.333333333 90 -758 90 -772 c 0
 90 -776 90.6666666667 -779.333333333 92 -782 c 0
 94 -788 l 2
 96 -790 l 1
 276 -780 l 1
 320 -778.666666667 362 -778 402 -778 c 1
 424 -775.333333333 436.666666667 -760 440 -732 c 1
 440 1408 l 2
 440 1428 433.666666667 1441.66666667 421 1449 c 0
 415.666666667 1452.33333333 409.333333333 1454 402 1454 c 2
EndSplineSet
EndChar
StartChar: braceleft
Encoding: 123 123 340
Width: 814
Flags: HW
LayerCount: 2
Fore
SplineSet
389 -460 m 0
 383.666666667 -557.333333333 427.333333333 -657.333333333 520 -760 c 0
 532 -776 531 -791.666666667 517 -807 c 0
 501.666666667 -821 485.666666667 -821.333333333 469 -808 c 0
 362.333333333 -717.333333333 307.666666667 -585.333333333 305 -412 c 0
 303.666666667 -333.333333333 323 -241.333333333 363 -136 c 0
 400.333333333 -35.3333333333 422 35.6666666667 428 77 c 0
 440 168.333333333 394 245.333333333 290 308 c 1
 290 372 l 1
 394.666666667 434.666666667 440.666666667 511.666666667 428 603 c 0
 422 645.666666667 400.333333333 716.666666667 363 816 c 0
 323.666666667 922 304.333333333 1013.66666667 305 1091 c 0
 308.333333333 1265 363 1397 469 1487 c 0
 485.666666667 1501 501.666666667 1500.66666667 517 1486 c 0
 531 1470 531.666666667 1454 519 1438 c 0
 426.333333333 1335.33333333 383 1235.66666667 389 1139 c 0
 392.333333333 1086.33333333 413.666666667 1027.66666667 453 963 c 0
 519.666666667 850.333333333 543.333333333 731.333333333 524 606 c 1
 504.666666667 486 454 397.333333333 372 340 c 1
 454 281.333333333 504.666666667 192.666666667 524 74 c 1
 543.333333333 -52 519.666666667 -171 453 -283 c 0
 413.666666667 -348.333333333 392.333333333 -407.333333333 389 -460 c 0
EndSplineSet
EndChar
StartChar: bar
Encoding: 124 124 5682
Width: 410
Flags: HW
LayerCount: 2
Fore
SplineSet
257 -755 m 2
 257.011476305 -767.66410291 229.011476305 -778.66410291 173 -788 c 0
 169 -788.666666667 166.333333333 -789 165 -789 c 0
 158.333333333 -789 154.666666667 -786.666666667 154 -782 c 0
 154 -781.333333333 154.166666667 -779.833333333 154.5 -777.5 c 128
 154.833333333 -775.166666667 155 -773.666666667 155 -773 c 2
 155 1434 l 1
 157 1445 l 1
 159.666666667 1447 162.333333333 1448.66666667 165 1450 c 0
 195.666666667 1459.33333333 220.333333333 1464 239 1464 c 1
 250.333333333 1463.33333333 255.666666667 1459.33333333 255 1452 c 1
 257 -755 l 2
EndSplineSet
EndChar
StartChar: braceright
Encoding: 125 125 341
Width: 814
Flags: HW
LayerCount: 2
Fore
SplineSet
425 -460 m 0
 430.33 -557.33 386.67 -657.33 294 -760 c 0
 282 -776 283 -791.67 297 -807 c 0
 312.33 -821 328.33 -821.33 345 -808 c 0
 451.67 -717.33 506.33 -585.33 509 -412 c 0
 510.33 -333.33 491 -241.33 451 -136 c 0
 413.67 -35.33 392 35.67 386 77 c 0
 374 168.33 420 245.33 524 308 c 1
 524 372 l 1
 419.33 434.67 373.33 511.67 386 603 c 0
 392 645.67 413.67 716.67 451 816 c 0
 490.33 922 509.67 1013.67 509 1091 c 0
 505.67 1265 451 1397 345 1487 c 0
 328.33 1501 312.33 1500.67 297 1486 c 0
 283 1470 282.33 1454 295 1438 c 0
 387.67 1335.33 431 1235.67 425 1139 c 0
 421.67 1086.33 400.33 1027.67 361 963 c 0
 294.33 850.33 270.67 731.33 290 606 c 1
 309.33 486 360 397.33 442 340 c 1
 360 281.33 309.33 192.67 290 74 c 1
 270.67 -52 294.33 -171 361 -283 c 0
 400.33 -348.33 421.67 -407.33 425 -460 c 0
EndSplineSet
EndChar
StartChar: brokenbar
Encoding: 166 166 5777
Width: 410
Flags: HW
LayerCount: 2
Fore
SplineSet
253 510 m 1
 252.333333333 503.333333333 238.5 496.666666667 211.5 490 c 128
 184.5 483.333333333 167.333333333 480 160 480 c 0
 156.666666667 480 154.166666667 480.5 152.5 481.5 c 128
 150.833333333 482.5 149.833333333 483.5 149.5 484.5 c 128
 149.166666667 485.5 149.166666667 487.5 149.5 490.5 c 128
 149.833333333 493.5 150 495.333333333 150 496 c 2
 150 1444 l 1
 148.666666667 1452 152 1457.33333333 160 1460 c 0
 182.666666667 1466.66666667 208.333333333 1470 237 1470 c 0
 242.333333333 1470 246.333333333 1469 249 1467 c 128
 251.666666667 1465 253 1463 253 1461 c 2
 253 1458 l 1
 253 510 l 1
150 -770 m 2
 150 208 l 1
 148.666666667 216 152 221.333333333 160 224 c 0
 182.666666667 230.666666667 208.333333333 234 237 234 c 0
 242.333333333 234 246.333333333 233 249 231 c 128
 251.666666667 229 253 227 253 225 c 2
 253 222 l 1
 253 -756 l 1
 252.333333333 -762.666666667 238.5 -769.333333333 211.5 -776 c 128
 184.5 -782.666666667 167.333333333 -786 160 -786 c 0
 156.666666667 -786 154.166666667 -785.5 152.5 -784.5 c 128
 150.833333333 -783.5 149.833333333 -782.5 149.5 -781.5 c 128
 149.166666667 -780.5 149.166666667 -778.5 149.5 -775.5 c 128
 149.833333333 -772.5 150 -770.666666667 150 -770 c 2
EndSplineSet
EndChar
StartChar: guillemotleft
Encoding: 171 171 336
Width: 850
Flags: HW
LayerCount: 2
Fore
SplineSet
199 340 m 0
 199 200 259.67 78 381 -26 c 0
 392.33 -35.33 394.67 -46 388 -58 c 0
 380.67 -70.67 369 -73 353 -65 c 0
 273.67 -25 211.67 31.5 167 104.5 c 128
 122.33 177.5 100 256 100 340 c 0
 100 424.67 122.33 503.33 167 576 c 0
 213 650.67 275 707 353 745 c 0
 369.67 753 381.33 750.67 388 738 c 0
 394.67 726 392.33 715.33 381 706 c 0
 259.67 609.33 199 487.33 199 340 c 0
557 340 m 0
 557 200 617.67 78 739 -26 c 0
 750.33 -35.33 752.67 -46 746 -58 c 0
 738.67 -70.67 727 -73 711 -65 c 0
 631.67 -25 569.67 31.5 525 104.5 c 128
 480.33 177.5 458 256 458 340 c 0
 458 424.67 480.33 503.33 525 576 c 0
 571 650.67 633 707 711 745 c 0
 727.67 753 739.33 750.67 746 738 c 0
 752.67 726 750.33 715.33 739 706 c 0
 617.67 609.33 557 487.33 557 340 c 0
EndSplineSet
EndChar
StartChar: guillemotright
Encoding: 187 187 335
Width: 850
Flags: HW
LayerCount: 2
Fore
SplineSet
651 340 m 0
 651 487.33 590.33 609.33 469 706 c 0
 457.67 715.33 455.33 726 462 738 c 0
 468.67 750.67 480.33 753 497 745 c 0
 575 707 637 650.67 683 576 c 0
 727.67 503.33 750 424.67 750 340 c 0
 750 256 727.67 177.5 683 104.5 c 128
 638.33 31.5 576.33 -25 497 -65 c 0
 481 -73 469.33 -70.67 462 -58 c 0
 455.33 -46 457.67 -35.33 469 -26 c 0
 590.33 78 651 200 651 340 c 0
293 340 m 0
 293 487.33 232.33 609.33 111 706 c 0
 99.67 715.33 97.33 726 104 738 c 0
 110.67 750.67 122.33 753 139 745 c 0
 217 707 279 650.67 325 576 c 0
 369.67 503.33 392 424.67 392 340 c 0
 392 256 369.67 177.5 325 104.5 c 128
 280.33 31.5 218.33 -25 139 -65 c 0
 123 -73 111.33 -70.67 104 -58 c 0
 97.33 -46 99.67 -35.33 111 -26 c 0
 232.33 78 293 200 293 340 c 0
EndSplineSet
EndChar
StartChar: uni030A
Encoding: 778 778 5774
Width: 0
GlyphClass: 4
Flags: HW
AnchorPoint: "TashkilAbove" 254 1640 mark 0
AnchorPoint: "MarkAbove" 254 1640 mark 0
AnchorPoint: "TashkilTashkilAbove" 256 2214 basemark 0
LayerCount: 2
Fore
SplineSet
88 1898 m 0
 88.6666666667 1856.66666667 102 1820.33333333 128 1789 c 0
 162 1751 204 1732 254 1732 c 0
 295.333333333 1732.66666667 331.666666667 1746 363 1772 c 0
 401 1806 420 1848 420 1898 c 0
 419.333333333 1939.33333333 406 1975.66666667 380 2007 c 0
 346 2045 304 2064 254 2064 c 0
 212.666666667 2063.33333333 176.333333333 2050 145 2024 c 0
 107 1990 88 1948 88 1898 c 0
12 1898 m 0
 12.6666666667 1972 41 2033 97 2081 c 0
 143 2120.33333333 195.333333333 2140 254 2140 c 0
 328 2139.33333333 389 2111 437 2055 c 0
 475 2009 494.666666667 1956.66666667 496 1898 c 0
 495.333333333 1824 467 1763 411 1715 c 0
 365 1677 312.666666667 1657.33333333 254 1656 c 0
 180 1656.66666667 119 1685 71 1741 c 0
 32.3333333333 1787 12.6666666667 1839.33333333 12 1898 c 0
EndSplineSet
EndChar
StartChar: uni0600
Encoding: 1536 1536 4827
Width: 2324
Flags: HW
LayerCount: 2
Back
SplineSet
2064 -128 m 9
 2005 -114 l 2
 1938.33333333 -98 1905 -69.6666666667 1905 -29 c 0
 1905 54.3333333333 1941.33333333 136.333333333 2014 217 c 0
 2061.33333333 269.666666667 2105 296 2145 296 c 0
 2155 296 2157 288.333333333 2151 273 c 2
 2107 165 l 2
 2099.66666667 147.666666667 2092.33333333 138 2085 136 c 0
 2045 125.333333333 2018 111 2004 93 c 0
 1996 83 2006 72.3333333333 2034 61 c 128
 2062 49.6666666667 2098 40.8333333333 2142 34.5 c 128
 2186 28.1666666667 2208 6.66666666667 2208 -30 c 128
 2208 -66.6666666667 2188.33333333 -111.333333333 2149 -164 c 0
 2063.66666667 -278 1733 -335 1157 -335 c 0
 583.666666667 -335 268.333333333 -323.333333333 211 -300 c 0
 182.333333333 -288.666666667 158 -271.666666667 138 -249 c 2
 71 -175 l 2
 63.6666666667 -167 60 -160.166666667 60 -154.5 c 128
 60 -148.833333333 71.3333333333 -148 94 -152 c 0
 245.333333333 -178.666666667 596.333333333 -192 1147 -192 c 128
 1697.66666667 -192 2003.33333333 -170.666666667 2064 -128 c 9
EndSplineSet
Fore
SplineSet
1938 -136 m 1
 1917.33 -98 1906.17 -56.83 1904.5 -12.5 c 128
 1902.83 31.83 1908 71.33 1920 106 c 0
 1968 242 2038 317 2130 331 c 0
 2175.33 337.67 2215.67 323 2251 287 c 0
 2262.33 275 2266.67 264.67 2264 256 c 0
 2253.33 216.67 2241 186.33 2227 165 c 0
 2221.67 157 2215.33 156.33 2208 163 c 0
 2155.33 209.67 2102.67 218.33 2050 189 c 128
 1997.33 159.67 1967.17 130.17 1959.5 100.5 c 128
 1951.83 70.83 1950 49 1954 35 c 0
 1971.33 -30.33 1998 -74 2034 -96 c 0
 2171 -146 l 0
 2186.33 -154 2193.67 -166.33 2193 -183 c 0
 2191 -230.33 2187.33 -266.67 2182 -292 c 0
 2178.67 -305.33 2171.33 -309 2160 -303 c 0
 2078 -258.33 2024 -235.83 1998 -235.5 c 128
 1972 -235.17 1939.67 -244 1901 -262 c 0
 1797.67 -310.67 1549.67 -335 1157 -335 c 0
 605.67 -335 290.33 -319.33 211 -288 c 0
 190.33 -280 166 -263 138 -237 c 2
 71 -175 l 2
 63.67 -167.67 60 -161.17 60 -155.5 c 128
 60 -149.83 71.33 -148.67 94 -152 c 0
 341.33 -186 660.17 -203 1050.5 -203 c 128
 1440.83 -203 1680.83 -196 1770.5 -182 c 128
 1860.17 -168 1916 -152.67 1938 -136 c 1
EndSplineSet
EndChar
StartChar: uni0601
Encoding: 1537 1537 4828
Width: 3651
Flags: HW
LayerCount: 2
Back
SplineSet
3524 -71 m 0
 3568.66666667 -71 3591 -86.3333333333 3591 -117 c 0
 3591 -134.333333333 3585.66666667 -159.5 3575 -192.5 c 128
 3564.33333333 -225.5 3548 -254.166666667 3526 -278.5 c 128
 3504 -302.833333333 3462.66666667 -347.333333333 3402 -412 c 128
 3341.33333333 -476.666666667 3290.66666667 -538 3250 -596 c 0
 3236 -615.333333333 3226.16666667 -621.666666667 3220.5 -615 c 128
 3214.83333333 -608.333333333 3216.33333333 -597 3225 -581 c 1
 3275.66666667 -496.333333333 3324.33333333 -428.833333333 3371 -378.5 c 128
 3417.66666667 -328.166666667 3464.33333333 -281 3511 -237 c 1
 3502.33333333 -217 3484.83333333 -207 3458.5 -207 c 128
 3432.16666667 -207 3399 -215.333333333 3359 -232 c 0
 3115.66666667 -331.333333333 2919.33333333 -404.666666667 2770 -452 c 0
 2458 -551.333333333 2148.66666667 -601 1842 -601 c 0
 1634 -601 1467 -581.333333333 1341 -542 c 128
 1215 -502.666666667 1104.66666667 -443.666666667 1010 -365 c 1
 999.333333333 -357.666666667 990.333333333 -359.666666667 983 -371 c 0
 945.666666667 -433.666666667 903 -478.666666667 855 -506 c 0
 825 -523.333333333 795.666666667 -532 767 -532 c 0
 715.666666667 -532 665.333333333 -505 616 -451 c 0
 608.666666667 -442.333333333 593.333333333 -423.5 570 -394.5 c 128
 546.666666667 -365.5 522.333333333 -351 497 -351 c 128
 471.666666667 -351 444.166666667 -370.666666667 414.5 -410 c 128
 384.833333333 -449.333333333 366.166666667 -478.333333333 358.5 -497 c 128
 350.833333333 -515.666666667 338.833333333 -547.5 322.5 -592.5 c 128
 306.166666667 -637.5 289.166666667 -671.333333333 271.5 -694 c 128
 253.833333333 -716.666666667 232.666666667 -728.333333333 208 -729 c 1
 158 -728.333333333 120.833333333 -697.5 96.5 -636.5 c 128
 72.1666666667 -575.5 60 -463 60 -299 c 0
 60 -285.666666667 64.5 -277.5 73.5 -274.5 c 128
 82.5 -271.5 88.3333333333 -274.833333333 91 -284.5 c 128
 93.6666666667 -294.166666667 95.3333333333 -330 96 -392 c 0
 97.3333333333 -530.666666667 131.333333333 -605 198 -615 c 1
 203 -615 l 2
 229.666666667 -615 257 -585.666666667 285 -527 c 0
 292.333333333 -511.666666667 302.333333333 -489.333333333 315 -460 c 0
 383.666666667 -292.666666667 456 -209 532 -209 c 0
 557.333333333 -209 588 -230.666666667 624 -274 c 128
 660 -317.333333333 690 -346.833333333 714 -362.5 c 128
 738 -378.166666667 765.666666667 -386 797 -386 c 0
 872.333333333 -386 941.333333333 -335 1004 -233 c 0
 1023.33333333 -201.666666667 1040 -186 1054 -186 c 0
 1064 -186 1076.33333333 -197.666666667 1091 -221 c 0
 1137.66666667 -296.333333333 1233 -354.166666667 1377 -394.5 c 128
 1521 -434.833333333 1710.33333333 -455 1945 -455 c 0
 2227 -455 2546.33333333 -395.666666667 2903 -277 c 0
 2950.33333333 -261 3049.83333333 -222.666666667 3201.5 -162 c 128
 3353.16666667 -101.333333333 3460.66666667 -71 3524 -71 c 0
395 341 m 2
 396.333333333 344.333333333 398 346 400 346 c 0
 434.666666667 346 478 326.666666667 530 288 c 0
 535.333333333 284 536.333333333 279.666666667 533 275 c 1
 471 151 l 1
 515 139.666666667 554.666666667 120.333333333 590 93 c 0
 595.333333333 89 596 84.3333333333 592 79 c 1
 524 -51 l 2
 524 -51.6666666667 521.333333333 -52 516 -52 c 128
 510.666666667 -52 467.666666667 -30.3333333333 387 13 c 0
 382.333333333 15.6666666667 381.333333333 19 384 23 c 2
 453 143 l 1
 450.333333333 146.333333333 409 167.666666667 329 207 c 0
 324.333333333 209.666666667 323.333333333 212.666666667 326 216 c 1
 395 341 l 2
884 194 m 2
 886 198 888.333333333 200 891 200 c 2
 897 200 l 1
 942.333333333 192.666666667 984.333333333 176.666666667 1023 152 c 0
 1028.33333333 148.666666667 1029.66666667 144 1027 138 c 2
 971 3 l 2
 971 2.33333333333 967.666666667 2 961 2 c 128
 954.333333333 2 910.333333333 19.3333333333 829 54 c 0
 824.333333333 56 823 59 825 63 c 2
 884 194 l 2
-69.705078125 234.931640625 m 1
 -50.6705729167 252.432291667 -29.0735677083 254.347005209 -4.9140625 240.67578125 c 0
 65.0410156253 200.180989583 112.876302084 152.443033854 138.591796875 97.4619140625 c 0
 150.328125 71.8271484375 156.451171875 45.9361979167 156.9609375 19.7890625 c 0
 157.350260417 -35.580078125 145.105794271 -75.6201171877 120.227539062 -100.331054688 c 0
 110.098632813 -110.215169271 97.3750000003 -114.586263021 82.056640625 -113.444335938 c 0
 59.7356770833 -111.605143229 29.7379557292 -103.918945312 -7.9365234375 -90.3857421875 c 1
 -28.9866536458 -147.137695312 -66.9563802083 -201.402669271 -121.845703125 -253.180664062 c 0
 -133.606770834 -264.185221354 -145.19140625 -274.099609375 -156.599609375 -282.923828125 c 0
 -251.12109375 -355.669270834 -353.910481771 -420.16796875 -464.967773438 -476.419921875 c 0
 -467.191731771 -477.544270833 -469.166015625 -478.541341145 -470.890625 -479.411132812 c 0
 -480.1875 -484.094726563 -484.984700521 -483.477213542 -485.282226562 -477.55859375 c 1
 -484.870768229 -472.46484375 -481.78515625 -467.55078125 -476.025390625 -462.81640625 c 0
 -458.096354167 -449.1796875 -430.595377605 -428.830729167 -393.522460938 -401.76953125 c 0
 -305.333658854 -337.314453125 -240.080729166 -286.217122395 -197.763671875 -248.477539062 c 0
 -117.513671875 -176.530924479 -66.7268880208 -119.307942709 -45.4033203125 -76.80859375 c 1
 -69.5465494792 -66.5078125 -91.75 -54.9417317708 -112.013671875 -42.1103515625 c 0
 -142.126302084 -22.1910807292 -153.049804688 8.16634114583 -144.784179688 48.9619140625 c 0
 -143.843424479 53.4541015625 -142.61328125 60.3323567708 -141.09375 69.5966796875 c 0
 -137.840494792 88.8681640625 -134.659179688 103.015625 -131.549804688 112.0390625 c 0
 -119.409830729 145.744791667 -105.533854167 170.708007813 -89.921875 186.928710938 c 1
 -87.0618489583 208.418945313 -80.3229166667 224.419921875 -69.705078125 234.931640625 c 1
-56.22265625 118.19140625 m 0
 -69.2278645833 119.477213542 -79.8095703125 111.782877605 -87.9677734375 95.1083984375 c 0
 -96.1259765625 77.2561848958 -95.2701822917 62.5416666667 -85.400390625 50.96484375 c 0
 -77.1653645833 41.8450520833 -59.6123046875 33.1233723958 -32.7412109375 24.7998046875 c 0
 -31.2112630208 24.3232421875 -30.0423177083 23.9586588542 -29.234375 23.7060546875 c 0
 -24.328125 23.2353515625 -21.5026041667 24.9602864583 -20.7578125 28.880859375 c 0
 -16.5989583333 85.1946614583 -28.4205729167 114.96484375 -56.22265625 118.19140625 c 0
48.7939453125 97.0888671875 m 1
 38.9052734375 104.782226562 34.2942708333 104.182291667 34.9609375 95.2890625 c 0
 37.744140625 73.94921875 33.3053385417 44.5940755208 21.64453125 7.2236328125 c 1
 42.9947916667 -3.74967447917 62.4658203125 -10.3997395833 80.0576171875 -12.7265625 c 0
 91.0921223958 -14.119140625 97.2369791667 -13.6800130208 98.4921875 -11.4091796875 c 0
 99.5292968747 -8.73795572917 100.071289062 -3.82291666667 100.118164062 3.3359375 c 0
 99.6370442707 36.30859375 82.5289713542 67.5595703125 48.7939453125 97.0888671875 c 1
EndSplineSet
Fore
SplineSet
3524 -71 m 0
 3568.66666667 -71 3591 -86.3333333333 3591 -117 c 0
 3591 -134.333333333 3585.66666667 -159.5 3575 -192.5 c 128
 3564.33333333 -225.5 3548 -254.166666667 3526 -278.5 c 128
 3504 -302.833333333 3462.66666667 -347.333333333 3402 -412 c 128
 3341.33333333 -476.666666667 3290.66666667 -538 3250 -596 c 0
 3236 -615.333333333 3226.16666667 -621.666666667 3220.5 -615 c 128
 3214.83333333 -608.333333333 3216.33333333 -597 3225 -581 c 1
 3275.66666667 -496.333333333 3324.33333333 -428.833333333 3371 -378.5 c 128
 3417.66666667 -328.166666667 3464.33333333 -281 3511 -237 c 1
 3502.33333333 -217 3484.83333333 -207 3458.5 -207 c 128
 3432.16666667 -207 3399 -215.333333333 3359 -232 c 0
 3115.66666667 -331.333333333 2919.33333333 -404.666666667 2770 -452 c 0
 2458 -551.333333333 2148.66666667 -601 1842 -601 c 0
 1634 -601 1467 -581.333333333 1341 -542 c 128
 1215 -502.666666667 1104.66666667 -443.666666667 1010 -365 c 1
 999.333333333 -357.666666667 990.333333333 -359.666666667 983 -371 c 0
 945.666666667 -433.666666667 903 -478.666666667 855 -506 c 0
 825 -523.333333333 795.666666667 -532 767 -532 c 0
 715.666666667 -532 665.333333333 -505 616 -451 c 0
 608.666666667 -442.333333333 593.333333333 -423.5 570 -394.5 c 128
 546.666666667 -365.5 522.333333333 -351 497 -351 c 128
 471.666666667 -351 444.166666667 -370.666666667 414.5 -410 c 128
 384.833333333 -449.333333333 366.166666667 -478.333333333 358.5 -497 c 128
 350.833333333 -515.666666667 338.833333333 -547.5 322.5 -592.5 c 128
 306.166666667 -637.5 289.166666667 -671.333333333 271.5 -694 c 128
 253.833333333 -716.666666667 232.666666667 -728.333333333 208 -729 c 1
 158 -728.333333333 120.833333333 -697.5 96.5 -636.5 c 128
 72.1666666667 -575.5 60 -463 60 -299 c 0
 60 -285.666666667 64.5 -277.5 73.5 -274.5 c 128
 82.5 -271.5 88.3333333333 -274.833333333 91 -284.5 c 128
 93.6666666667 -294.166666667 95.3333333333 -330 96 -392 c 0
 97.3333333333 -530.666666667 131.333333333 -605 198 -615 c 1
 203 -615 l 2
 229.666666667 -615 257 -585.666666667 285 -527 c 0
 292.333333333 -511.666666667 302.333333333 -489.333333333 315 -460 c 0
 383.666666667 -292.666666667 456 -209 532 -209 c 0
 557.333333333 -209 588 -230.666666667 624 -274 c 128
 660 -317.333333333 690 -346.833333333 714 -362.5 c 128
 738 -378.166666667 765.666666667 -386 797 -386 c 0
 872.333333333 -386 941.333333333 -335 1004 -233 c 0
 1023.33333333 -201.666666667 1040 -186 1054 -186 c 0
 1064 -186 1076.33333333 -197.666666667 1091 -221 c 0
 1137.66666667 -296.333333333 1233 -354.166666667 1377 -394.5 c 128
 1521 -434.833333333 1710.33333333 -455 1945 -455 c 0
 2227 -455 2546.33333333 -395.666666667 2903 -277 c 0
 2950.33333333 -261 3049.83333333 -222.666666667 3201.5 -162 c 128
 3353.16666667 -101.333333333 3460.66666667 -71 3524 -71 c 0
EndSplineSet
EndChar
StartChar: uni0602
Encoding: 1538 1538 4825
Width: 1664
Flags: HW
LayerCount: 2
Fore
SplineSet
226 -2 m 0
 177.33 -2 153 -28 153 -80 c 0
 153 -115.33 176 -141.67 222 -159 c 1
 244.67 -166.33 283.67 -175 339 -185 c 1
 339 -63 301.33 -2 226 -2 c 0
182 -278 m 0
 155.33 -265.33 132.17 -247.33 112.5 -224 c 128
 92.83 -200.67 83 -173.33 83 -142 c 0
 83 -71.33 108 -7.33 158 50 c 0
 191.33 87.33 222.83 106 252.5 106 c 128
 282.17 106 308.67 99 332 85 c 0
 368.67 63.67 387 8 387 -82 c 0
 387 -114.67 384.67 -151.67 380 -193 c 1
 464.67 -204.33 601.67 -210 791 -210 c 0
 1062.33 -208.67 1310.33 -188.67 1535 -150 c 0
 1565.67 -144.67 1581 -144.67 1581 -150 c 256
 1581 -154.67 1573.33 -162.33 1558 -173 c 2
 1473 -231 l 2
 1447.67 -248.33 1419.33 -261 1388 -269 c 0
 1225.33 -310.33 1002.33 -331 719 -331 c 128
 435.67 -331 256.67 -313.33 182 -278 c 0
EndSplineSet
EndChar
StartChar: uni0603
Encoding: 1539 1539 4826
Width: 2272
Flags: HW
LayerCount: 2
Fore
SplineSet
1644 -418 m 0
 1628 -418 1620 -407.5 1620 -386.5 c 128
 1620 -365.5 1629.33333333 -332.333333333 1648 -287 c 1
 1604 -279.666666667 1563.33333333 -260.666666667 1526 -230 c 1
 1405.33333333 -299.333333333 1171 -334 823 -334 c 0
 598.333333333 -334 399.333333333 -310.333333333 226 -263 c 0
 184.666666667 -251.666666667 155.333333333 -236.333333333 138 -217 c 2
 71 -143 l 2
 63.6666666667 -135 60 -128 60 -122 c 128
 60 -116 71.3333333333 -115.333333333 94 -120 c 0
 393.333333333 -180 654.666666667 -210 878 -210 c 0
 1200.66666667 -210 1428.33333333 -177 1561 -111 c 0
 1566.33333333 -108.333333333 1576 -115 1590 -131 c 0
 1618.66666667 -163.666666667 1662 -182.666666667 1720 -188 c 1
 1844 -5.33333333333 1961 86.3333333333 2071 87 c 0
 2091 87 2119.5 75 2156.5 51 c 128
 2193.5 27 2212 -3.66666666667 2212 -41 c 128
 2212 -78.3333333333 2199.5 -119.166666667 2174.5 -163.5 c 128
 2149.5 -207.833333333 2132.66666667 -233.333333333 2124 -240 c 0
 2052 -294.666666667 1953.33333333 -322 1828 -322 c 0
 1779.33333333 -322 1734 -316 1692 -304 c 1
 1682 -317.333333333 1671 -350.666666667 1659 -404 c 16
 1657 -413.333333333 1652 -418 1644 -418 c 0
2124 -140 m 0
 2086 -75.3333333333 2036.83333333 -43 1976.5 -43 c 128
 1916.16666667 -43 1847.66666667 -95.6666666667 1771 -201 c 1
 1791.66666667 -204.333333333 1817.83333333 -206 1849.5 -206 c 128
 1881.16666667 -206 1930.5 -202.166666667 1997.5 -194.5 c 128
 2064.5 -186.833333333 2106.66666667 -172.666666667 2124 -152 c 0
 2125.33333333 -150.666666667 2126 -149 2126 -147 c 128
 2126 -145 2125.33333333 -142.666666667 2124 -140 c 0
EndSplineSet
EndChar
StartChar: uni0604
Encoding: 1540 1540 6228
Width: 4472
Flags: HW
LayerCount: 2
Fore
SplineSet
226 -307 m 1
 202 -291.67 172.67 -268.33 138 -237 c 2
 71 -175 l 2
 63.67 -168.33 60 -162.33 60 -157 c 128
 60 -151.67 71.33 -150 94 -152 c 24
 423.33 -182.67 980 -198.33 1764 -199 c 128
 2548 -199.67 3091.67 -184.33 3395 -153 c 1
 3485.67 -144.33 3551.33 -126.33 3592 -99 c 1
 3545.33 -13 3536.33 71.67 3565 155 c 1
 3612.33 279.67 3683.67 344 3779 348 c 0
 3807 349.33 3833.17 327.5 3857.5 282.5 c 128
 3881.83 237.5 3914 214.33 3954 213 c 1
 4026 209 4100.33 269.67 4177 395 c 0
 4186.33 410.33 4195.5 413 4204.5 403 c 128
 4213.5 393 4213.17 378.33 4203.5 359 c 128
 4193.83 339.67 4189 328 4189 324 c 0
 4189 307.33 4197.67 295.67 4215 289 c 0
 4275 265 4321 257.67 4353 267 c 0
 4362.33 269.67 4353 288.33 4325 323 c 0
 4322.33 326.33 4322 329.67 4324 333 c 2
 4383 429 l 2
 4385.67 433 4389 432.67 4393 428 c 0
 4427.67 387.33 4431.67 320.67 4405 228 c 0
 4391 179.33 4375.5 146.17 4358.5 128.5 c 128
 4341.5 110.83 4317 104 4285 108 c 1
 4214.33 118.67 4157.67 138.33 4115 167 c 0
 4111 169.67 4107.67 169.33 4105 166 c 0
 4050.33 87.33 3982.67 52 3902 60 c 0
 3859.33 64 3821.67 96.67 3789 158 c 0
 3778.33 178 3762.33 190.33 3741 195 c 1
 3685 205 3640.67 191.67 3608 155 c 1
 3608.67 107.67 3621.17 64.5 3645.5 25.5 c 128
 3669.83 -13.5 3696.33 -41.33 3725 -58 c 1
 3735 -64.67 3758.33 -72.83 3795 -82.5 c 128
 3831.67 -92.17 3859.5 -102.17 3878.5 -112.5 c 128
 3897.5 -122.83 3906.67 -137.33 3906 -156 c 0
 3904 -214 3899.33 -259.33 3892 -292 c 0
 3888 -308.67 3879 -313 3865 -305 c 0
 3764.33 -250.33 3697.83 -222.5 3665.5 -221.5 c 128
 3633.17 -220.5 3590 -233 3536 -259 c 256
 3482 -285 3365.83 -306.5 3187.5 -323.5 c 128
 3009.17 -340.5 2563.83 -348.67 1851.5 -348 c 128
 1139.17 -347.33 597.33 -333.67 226 -307 c 1
EndSplineSet
EndChar
StartChar: uni0608
Encoding: 1544 1544 4619
Width: 1763
Flags: HW
LayerCount: 2
Fore
SplineSet
1366 188 m 1
 1463.5 186.833333333 1530.5 208.5 1567 253 c 0
 1569 255.666666667 1569.33333333 260.333333333 1568 267 c 0
 1560 306.333333333 1541.66666667 346 1513 386 c 0
 1501.23768737 402.336545325 1499.23768737 419.003211991 1507 436 c 2
 1565 563 l 2
 1576.93254637 589.128161889 1589.59921304 589.461495222 1603 564 c 24
 1658.60444045 461.715288548 1668.60444045 341.715288548 1633 204 c 0
 1597.5 67.3333333333 1506.83333333 0 1361 2 c 1
 1356.67567567 -21.0630630631 1347.00900901 -59.3963963964 1332 -113 c 0
 1313.33333333 -179.666666667 1290.33333333 -230.666666667 1263 -266 c 0
 1154.33333333 -410.666666667 994.666666667 -496 784 -522 c 0
 665.333333333 -536.666666667 564 -520 480 -472 c 0
 410.666666667 -432 364.666666667 -374.333333333 342 -299 c 0
 308.666666667 -189 322.333333333 -68 383 64 c 1
 300.673328399 -10.2289661979 212.006661732 -53.8956328645 117 -67 c 0
 97.7434624297 -69.6560741476 88.7434624297 -59.9894074809 90 -38 c 2
 94 32 l 2
 95.3715325148 56.0018190087 103.038199181 68.335152342 117 69 c 0
 245.357028699 75.1776110069 363.023695365 129.844277674 470 233 c 0
 488.666666667 251 502.666666667 256.333333333 512 249 c 0
 524 239.666666667 525.333333333 228.333333333 516 215 c 0
 396.666666667 44.3333333333 376 -100.333333333 454 -219 c 0
 496 -283.666666667 576.333333333 -323.333333333 695 -338 c 0
 811 -352.666666667 927.666666667 -336.666666667 1045 -290 c 0
 1168.24923077 -241.385025641 1249.5825641 -173.718358975 1289 -87 c 0
 1295.66666667 -72.3333333333 1293.33333333 -43.3333333333 1282 0 c 1
 1158 3.33333333333 1075 24 1033 62 c 0
 987.83820038 102.580167775 999.171533713 187.580167775 1067 317 c 0
 1115.56626506 409.666666667 1158.23293173 456 1195 456 c 0
 1279 456 1336 366.666666667 1366 188 c 1
1226 198 m 1
 1207.33333333 266.666666667 1175.66666667 300.666666667 1131 300 c 0
 1101.66666667 299.333333333 1091.66666667 286.333333333 1101 261 c 0
 1114.33333333 228.333333333 1156 207.333333333 1226 198 c 1
EndSplineSet
EndChar
StartChar: uni060B
Encoding: 1547 1547 4620
Width: 1026
Flags: HW
LayerCount: 2
Fore
SplineSet
697 838 m 0
 715 838 737 826.666666667 763 804 c 0
 885 696.666666667 942.666666667 561.666666667 936 399 c 0
 932.666666667 323 911.666666667 254.666666667 873 194 c 0
 773 37.3333333333 535.666666667 -24 161 10 c 0
 133.666666667 12.6666666667 117.666666667 24.6666666667 113 46 c 2
 92 143 l 2
 83.3333333333 183.666666667 103 201 151 195 c 0
 485 157.666666667 716.666666667 203 846 331 c 1
 842.666666667 371.666666667 836.333333333 398.666666667 827 412 c 0
 817.666666667 425.333333333 810 431.333333333 804 430 c 0
 798 428.666666667 794 425.666666667 792 421 c 0
 768.666666667 361.666666667 733.333333333 326.666666667 686 316 c 0
 536 284 467.333333333 342 480 490 c 0
 486 562.666666667 513 639 561 719 c 0
 609 799 654.333333333 838.666666667 697 838 c 0
573 524 m 1
 646.333333333 510.666666667 693.333333333 517.333333333 714 544 c 1
 682.666666667 593.333333333 654.333333333 617.333333333 629 616 c 0
 594.333333333 614.666666667 575.666666667 584 573 524 c 1
EndSplineSet
Refer: 191 -1 N 1 0 0 1 621 1010 2
Refer: 255 1648 N 1 0 0 1 240 -2510 2
EndChar
StartChar: uni060C
Encoding: 1548 1548 167
Width: 756
Flags: HW
LayerCount: 2
Fore
SplineSet
422 813 m 0
 444 828.33 462.17 828 476.5 812 c 128
 490.83 796 488.67 778.33 470 759 c 0
 301.33 585.67 243.67 425 297 277 c 24
 303 261 310.67 258 320 268 c 0
 351.33 306 391.67 325 441 325 c 0
 483.67 325 520.17 309.83 550.5 279.5 c 128
 580.83 249.17 596 212.67 596 170 c 128
 596 127.33 579.5 90.33 546.5 59 c 128
 513.5 27.67 475.67 12.67 433 14 c 0
 381 15.33 340 27.67 310 51 c 0
 224 117.67 188.67 240.67 204 420 c 0
 211.33 501.33 239.5 580.17 288.5 656.5 c 128
 337.5 732.83 382 785 422 813 c 0
EndSplineSet
EndChar
StartChar: uni060D
Encoding: 1549 1549 4823
Width: 648
Flags: HW
LayerCount: 2
Fore
SplineSet
549 942 m 2
 519 876 l 2
 493.67 822 466 808.33 436 835 c 0
 402.67 863.67 360.33 852.67 309 802 c 0
 256.33 751.33 198.67 675.33 136 574 c 0
 120 548 105.33 538 92 544 c 0
 76.67 552 76 572.67 90 606 c 0
 126 689.33 182.67 787.33 260 900 c 0
 348.67 1024.67 436.33 1079 523 1063 c 0
 573.67 1053.67 582.33 1013.33 549 942 c 2
EndSplineSet
EndChar
StartChar: uni060E
Encoding: 1550 1550 4824
Width: 1375
Flags: HW
LayerCount: 2
Fore
SplineSet
223 452 m 0
 174.333333333 452 150 426 150 374 c 0
 150 338.666666667 173 312.333333333 219 295 c 0
 241.666666667 287.666666667 280.666666667 279 336 269 c 1
 336 391 298.333333333 452 223 452 c 0
179 176 m 0
 152.333333333 188.666666667 129.166666667 206.666666667 109.5 230 c 128
 89.8333333333 253.333333333 80 280.666666667 80 312 c 0
 80 382.666666667 105 446.666666667 155 504 c 1
 188.333333333 541.333333333 219.833333333 560 249.5 560 c 128
 279.166666667 560 305.666666667 553 329 539 c 0
 365.666666667 517.666666667 384 462 384 372 c 0
 384 339.333333333 381.666666667 302.333333333 377 261 c 1
 463 248.333333333 563.333333333 242.666666667 678 244 c 0
 834 245.333333333 1024.66666667 265.333333333 1250 304 c 0
 1280.66666667 309.333333333 1296 309.333333333 1296 304 c 256
 1296 299.333333333 1288.33333333 291.666666667 1273 281 c 2
 1188 223 l 2
 1162.66666667 205.666666667 1134.33333333 193 1103 185 c 0
 940.333333333 143.666666667 773.333333333 123 602 123 c 0
 394.666666667 123 253.666666667 140.666666667 179 176 c 0
EndSplineSet
EndChar
StartChar: uni060F
Encoding: 1551 1551 4618
Width: 1658
Flags: HW
LayerCount: 2
Fore
SplineSet
337 -363 m 1
 332.333333333 -99 423.666666667 131 611 327 c 1
 503.666666667 369.666666667 433 414.666666667 399 462 c 0
 385 481.333333333 379 503 381 527 c 0
 386.333333333 591 403.333333333 649.333333333 432 702 c 0
 496.666666667 821.333333333 569.666666667 900.666666667 651 940 c 0
 691 959.333333333 739.166666667 952.5 795.5 919.5 c 128
 851.833333333 886.5 891.666666667 853.333333333 915 820 c 0
 929.666666667 799.333333333 920.666666667 792.333333333 888 799 c 0
 712 834.333333333 566.666666667 775.333333333 452 622 c 0
 446 614 447.666666667 605.333333333 457 596 c 0
 547 506 659.333333333 469 794 485 c 0
 816 487.666666667 848 501.666666667 890 527 c 0
 1050.66666667 623.666666667 1140.66666667 678 1160 690 c 0
 1186 705.333333333 1192.33333333 693.666666667 1179 655 c 0
 1149 569 1125 521.666666667 1107 513 c 0
 978.333333333 451 843 367.666666667 701 263 c 0
 513.666666667 125 411.666666667 -65 395 -307 c 1
 553 -159.666666667 688.333333333 -58.6666666667 801 -4 c 0
 1027 105.333333333 1212.33333333 129.333333333 1357 68 c 0
 1455 26 1519.33333333 -41.3333333333 1550 -134 c 0
 1594 -272.666666667 1559 -430.666666667 1445 -608 c 0
 1287.66666667 -852.666666667 1097 -975.333333333 873 -976 c 0
 557 -976.666666667 380.333333333 -808 343 -470 c 1
 271 -541.333333333 197 -622 121 -712 c 0
 93.6666666667 -744 84.3333333333 -744.333333333 93 -713 c 2
 128 -588 l 2
 134 -568 203.666666667 -493 337 -363 c 1
406 -411 m 1
 474 -666.333333333 652 -794 940 -794 c 0
 1208 -793.333333333 1380.33333333 -678.666666667 1457 -450 c 0
 1497.66666667 -328 1466.66666667 -219.666666667 1364 -125 c 128
 1261.33333333 -30.3333333333 1092 -26 856 -112 c 0
 730.666666667 -157.333333333 580.666666667 -257 406 -411 c 1
EndSplineSet
EndChar
StartChar: uni0610
Encoding: 1552 1552 4818
Width: 0
GlyphClass: 4
Flags: HW
LayerCount: 2
Fore
SplineSet
574 2045 m 1
 532 2083.67 487.17 2096.83 439.5 2084.5 c 128
 391.83 2072.17 329.33 2036 252 1976 c 1
 394.67 1968 502 1991 574 2045 c 1
83 2005 m 1
 111.67 1987.67 151.67 1978.33 203 1977 c 1
 262.33 2037.67 322 2089.33 382 2132 c 128
 442 2174.67 489.33 2196 524 2196 c 1
 576 2197.33 613 2167.33 635 2106 c 1
 639.67 2088.67 634.67 2065 620 2035 c 128
 605.33 2005 593.33 1985 584 1975 c 0
 534.67 1921.67 442.67 1889 308 1877 c 0
 239.33 1871 173.67 1874.33 111 1887 c 1
 115 1822.33 103 1753 75 1679 c 0
 69 1663.67 60.67 1657.33 50 1660 c 128
 39.33 1662.67 35.67 1671.33 39 1686 c 0
 62.33 1790 51.33 1882 6 1962 c 0
 0.67 1971.33 -1.33 1977.33 0 1980 c 2
 32 2064 l 2
 36.67 2076 44.17 2074.5 54.5 2059.5 c 128
 64.83 2044.5 74.33 2026.33 83 2005 c 1
EndSplineSet
EndChar
StartChar: uni0611
Encoding: 1553 1553 4819
Width: 0
GlyphClass: 4
Flags: HW
LayerCount: 2
Fore
SplineSet
111 1887 m 1
 115.67 1822.33 103.67 1753 75 1679 c 0
 69 1663.67 60.67 1657.33 50 1660 c 128
 39.33 1662.67 35.67 1671.33 39 1686 c 0
 62.33 1790 51.33 1882 6 1962 c 0
 0.67 1971.33 -1.33 1977.33 0 1980 c 2
 32 2064 l 2
 40.67 2085.33 57.67 2065.67 83 2005 c 1
 127 1985 184 1975.67 254 1977 c 1
 233.33 2003 221.67 2033.33 219 2068 c 0
 213 2133.33 230.33 2185.83 271 2225.5 c 128
 311.67 2265.17 352.17 2289 392.5 2297 c 128
 432.83 2305 485.67 2280.67 551 2224 c 0
 559.67 2216.67 561.33 2208.33 556 2199 c 1
 550 2190.33 542.33 2188 533 2192 c 24
 464.33 2218.67 395.33 2219.33 326 2194 c 0
 296 2183.33 278 2170 272 2154 c 1
 266.67 2137.33 276.83 2108.67 302.5 2068 c 128
 328.17 2027.33 351 2005.67 371 2003 c 1
 415.67 1995 472.67 2012.33 542 2055 c 0
 567.33 2070.33 582.5 2075.5 587.5 2070.5 c 152
 592.5 2065.5 594 2060.67 592 2056 c 2
 552 1973 l 2
 547.33 1963.67 543 1957.33 539 1954 c 1
 413 1877.33 270.33 1855 111 1887 c 1
EndSplineSet
EndChar
StartChar: uni0612
Encoding: 1554 1554 4820
Width: 0
GlyphClass: 4
Flags: HW
LayerCount: 2
Fore
SplineSet
0 1679 m 0
 0 1873.66666667 86.6666666667 2010 260 2088 c 1
 182.666666667 2107.33333333 113.333333333 2105 52 2081 c 0
 40 2076.33333333 34.3333333333 2078 35 2086 c 0
 37.6666666667 2154.66666667 74 2190.66666667 144 2194 c 0
 170.666666667 2195.33333333 212.666666667 2190.33333333 270 2179 c 24
 327.333333333 2167.66666667 376 2162.33333333 416 2163 c 0
 456 2163.66666667 505.333333333 2169 564 2179 c 0
 584 2182.33333333 590.333333333 2176 583 2160 c 2
 558 2106 l 2
 555.333333333 2100.66666667 551.666666667 2097.33333333 547 2096 c 0
 379 2072 264.666666667 2040 204 2000 c 0
 91.3333333333 1926.66666667 35 1819.66666667 35 1679 c 0
 33 1667.66666667 26.6666666667 1662 16 1662 c 24
 8 1662 2.66666666667 1667.66666667 0 1679 c 0
EndSplineSet
Refer: 47 -1 N 0.5 0 0 0.5 451 1873 2
EndChar
StartChar: uni0614
Encoding: 1556 1556 4822
Width: 0
GlyphClass: 4
Flags: HW
LayerCount: 2
Fore
SplineSet
581 1810 m 1
 393 1734 193 1715 -19 1753 c 0
 -41.6666666667 1757.66666667 -52 1768.66666667 -50 1786 c 0
 -48 1800 -35.6666666667 1806.33333333 -13 1805 c 0
 301.666666667 1793.66666667 511.333333333 1836.66666667 616 1934 c 0
 628 1944 637 1947.33333333 643 1944 c 0
 652.333333333 1938.66666667 654.333333333 1929 649 1915 c 0
 641 1894 l 1
 699 1850 757 1830 815 1834 c 1
 815.666666667 1843.33333333 810 1858 798 1878 c 0
 791.333333333 1889.33333333 791.666666667 1903 799 1919 c 2
 831 1986 l 2
 839 2003.33333333 848 1999.33333333 858 1974 c 0
 871.333333333 1939.33333333 873.666666667 1895.66666667 865 1843 c 0
 853.666666667 1775.66666667 833 1740.33333333 803 1737 c 0
 730.333333333 1729 656.333333333 1753.33333333 581 1810 c 1
EndSplineSet
EndChar
StartChar: uni0615
Encoding: 1557 1557 288
Width: 0
GlyphClass: 4
Flags: HW
AnchorPoint: "MarkAbove" 478 2600 mark 0
LayerCount: 2
Fore
SplineSet
358 3572 m 0
 394.67 3282.67 406 3074 392 2946 c 1
 545.33 3110 663.33 3166 746 3114 c 0
 788.67 3087.33 812 3058 816 3026 c 128
 820 2994 809.83 2954.5 785.5 2907.5 c 128
 761.17 2860.5 742.67 2832.67 730 2824 c 0
 620.67 2750.67 438 2704.33 182 2685 c 1
 136.67 2692.33 98.67 2706.67 68 2728 c 128
 37.33 2749.33 16.67 2770 6 2790 c 128
 -4.67 2810 -3 2819.33 11 2818 c 1
 70.33 2809.33 148.33 2808.33 245 2815 c 1
 326 2894 l 1
 325.33 3100 310 3302.33 280 3501 c 0
 275.33 3527.67 277.33 3546.67 286 3558 c 2
 318 3606 l 2
 337.33 3635.33 350.67 3624 358 3572 c 0
540 2990 m 0
 501.33 2978 427 2922.67 317 2824 c 1
 485.67 2842.67 620.33 2878.67 721 2932 c 1
 685 2996.67 624.67 3016 540 2990 c 0
EndSplineSet
EndChar
StartChar: uni0616
Encoding: 1558 1558 4615
Width: 0
GlyphClass: 4
Flags: HW
AnchorPoint: "MarkAbove" 439 1640 mark 0
AnchorPoint: "TashkilAboveDot" 437 1640 mark 0
AnchorPoint: "TashkilAbove" 437 1640 mark 0
LayerCount: 2
Fore
SplineSet
543 2379 m 0
 563 2211 571.333333333 2094.66666667 568 2030 c 128
 564.666666667 1965.33333333 557.5 1918.5 546.5 1889.5 c 128
 535.5 1860.5 527.333333333 1846 522 1846 c 0
 512.666666667 1845.33333333 509 1853.66666667 511 1871 c 1
 515 1938.33333333 507 2077.33333333 487 2288 c 0
 485 2307.33333333 486 2320.33333333 490 2327 c 2
 514 2376 l 2
 529.333333333 2407.33333333 539 2408.33333333 543 2379 c 0
301 2371 m 0
 324.333333333 2221.66666667 328.333333333 2107.16666667 313 2027.5 c 128
 297.666666667 1947.83333333 245.666666667 1881.33333333 157 1828 c 1
 293.666666667 1806.66666667 533.333333333 1811 876 1841 c 0
 893.333333333 1843 897.333333333 1836.33333333 888 1821 c 2
 851 1767 l 2
 845 1758.33333333 838.666666667 1753 832 1751 c 0
 770.666666667 1741.66666667 661.5 1734.33333333 504.5 1729 c 128
 347.5 1723.66666667 230.333333333 1726.66666667 153 1738 c 0
 129 1741.33333333 115 1752.66666667 111 1772 c 1
 107 1801.33333333 113.666666667 1830.33333333 131 1859 c 128
 148.333333333 1887.66666667 167 1909.33333333 187 1924 c 0
 247.666666667 1966.66666667 277 2013.33333333 275 2064 c 1
 265.666666667 2162.66666667 256.333333333 2245 247 2311 c 0
 244.333333333 2328.33333333 245.666666667 2341.33333333 251 2350 c 2
 270 2379 l 2
 286.666666667 2403 297 2400.33333333 301 2371 c 0
EndSplineSet
EndChar
StartChar: uni0617
Encoding: 1559 1559 4617
Width: 0
GlyphClass: 4
Flags: HW
AnchorPoint: "MarkAbove" 478 2600 mark 0
LayerCount: 2
Fore
SplineSet
441 3624 m 2
 443 3627.33333333 453.5 3625.66666667 472.5 3619 c 128
 491.5 3612.33333333 513.666666667 3597.66666667 539 3575 c 0
 543 3571.66666667 543.666666667 3568 541 3564 c 2
 482 3471 l 2
 479.333333333 3467.66666667 475.166666667 3468.33333333 469.5 3473 c 128
 463.833333333 3477.66666667 435 3495.66666667 383 3527 c 0
 379 3529 378.333333333 3531.33333333 381 3534 c 1
 441 3624 l 2
567 3292 m 2
 569.666666667 3302 577 3301 589 3289 c 0
 621 3256.33333333 645 3212.33333333 661 3157 c 128
 677 3101.66666667 681.333333333 3042.5 674 2979.5 c 128
 666.666666667 2916.5 639.166666667 2854.5 591.5 2793.5 c 128
 543.833333333 2732.5 481.666666667 2692 405 2672 c 0
 384.333333333 2666.66666667 364.666666667 2667 346 2673 c 0
 222.666666667 2715 161.5 2740.83333333 162.5 2750.5 c 128
 163.5 2760.16666667 168.333333333 2763.66666667 177 2761 c 0
 233 2743.66666667 281.333333333 2737.66666667 322 2743 c 0
 457.333333333 2761 561 2839.66666667 633 2979 c 0
 636.333333333 2985 637 2991.33333333 635 2998 c 0
 623 3041.33333333 591 3095.33333333 539 3160 c 0
 536.333333333 3163.33333333 535.666666667 3166.33333333 537 3169 c 2
 567 3292 l 2
EndSplineSet
EndChar
StartChar: uni0618
Encoding: 1560 1560 292
Width: 0
GlyphClass: 4
Flags: HW
AnchorPoint: "MarkAbove" 509 1640 mark 0
AnchorPoint: "TashkilAboveDot" 506 1640 mark 0
AnchorPoint: "TashkilAbove" 506 1640 mark 0
LayerCount: 2
Fore
SplineSet
292 1785 m 0
 643 1941 l 0
 662.333333333 1949 670.666666667 1944.66666667 668 1928 c 2
 661 1871 l 2
 659.666666667 1860.33333333 655 1853 647 1849 c 0
 303 1729 l 0
 279.666666667 1721 269 1725.66666667 271 1743 c 2
 274 1765 l 2
 276 1774.33333333 282 1781 292 1785 c 0
EndSplineSet
EndChar
StartChar: uni0619
Encoding: 1561 1561 291
Width: 0
GlyphClass: 4
Flags: HW
AnchorPoint: "MarkAbove" 499 1640 mark 0
AnchorPoint: "TashkilAbove" 500 1640 mark 0
AnchorPoint: "TashkilAboveDot" 500 1640 mark 0
LayerCount: 2
Fore
SplineSet
551 2159 m 0
 568.33 2163.67 582.33 2158.67 593 2144 c 0
 602.33 2130 607.67 2110.67 609 2086 c 128
 610.33 2061.33 599.67 2023 577 1971 c 1
 596.33 1959 610.33 1950.67 619 1946 c 128
 627.67 1941.33 628.67 1932.33 622 1919 c 2
 602 1879 l 2
 596.67 1867 574.67 1872.33 536 1895 c 1
 474.67 1815.67 419 1762.33 369 1735 c 0
 346.33 1723 331.67 1721.67 325 1731 c 128
 318.33 1740.33 329 1755 357 1775 c 0
 410.33 1813 458.33 1860.33 501 1917 c 1
 433.67 1949.67 412.33 1992 437 2044 c 0
 467 2108 505 2146.33 551 2159 c 0
540 2049 m 128
 532 2063.67 518 2066.5 498 2057.5 c 128
 478 2048.5 470.67 2041 476 2035 c 0
 486.67 2022.33 508 2007.33 540 1990 c 1
 548 2014.67 548 2034.33 540 2049 c 128
EndSplineSet
EndChar
StartChar: uni061D
Encoding: 1565 1565 6268
Width: 674
LayerCount: 2
Fore
SplineSet
378 154 m 0
 361 212 336 276 294 329 c 0
 276 350 246 378 203 413 c 0
 168 441 141 465 122 485 c 0
 116 491 119 508 123 513 c 0
 152 568 227 655 304 655 c 0
 352 655 381 631 381 579 c 0
 381 556 373 525 357 486 c 1
 372 476 l 1
 399 516 420 574 420 635 c 0
 420 707 387 758 317 758 c 0
 206 758 116 642 87 583 c 0
 78 564 72 542 72 517 c 0
 72 459 99 398 131 370 c 0
 173 331 227 297 262 250 c 0
 316 183 336 134 376 47 c 0
 395 1 433 -43 488 -43 c 0
 548 -43 603 18 603 80 c 0
 603 124 577 166 534 166 c 256
 493 166 466 136 466 95 c 0
 466 83 468 70 473 55 c 1
 466 53 461 52 455 52 c 0
 406 52 386 125 378 154 c 0
EndSplineSet
EndChar
StartChar: uni061F
Encoding: 1567 1567 168
Width: 846
Flags: HW
LayerCount: 2
Fore
SplineSet
659 1062 m 1
 665.67 1155.33 634.67 1224.67 566 1270 c 0
 523.33 1298 475.67 1311.67 423 1311 c 0
 366.33 1309.67 323.33 1291.67 294 1257 c 0
 231.33 1184.33 234.33 1090.33 303 975 c 0
 394.33 823 442.67 670.33 448 517 c 0
 450.67 447.67 447.33 390.33 438 345 c 0
 434.67 328.33 426 320 412 320 c 0
 396 320.67 388.67 331 390 351 c 0
 391.33 378.33 392 404.67 392 430 c 0
 391.33 500.67 371.33 553 332 587 c 0
 190 707 107.67 803.67 85 877 c 0
 42.33 1010.33 58.33 1128 133 1230 c 0
 200.33 1322 299.67 1368.67 431 1370 c 0
 486.33 1370.67 540.33 1355.67 593 1325 c 0
 650.33 1291.67 690.67 1239 714 1167 c 0
 724.67 1134.33 728.33 1093.67 725 1045 c 0
 721.67 996.33 715 961 705 939 c 0
 678.33 879 637.33 849.33 582 850 c 0
 542.67 850.67 512 864 490 890 c 0
 468.67 916 458 944 458 974 c 0
 458 1004.67 467 1032 485 1056 c 0
 503.67 1080.67 531.67 1093.67 569 1095 c 0
 607 1096.33 637 1085.33 659 1062 c 1
EndSplineSet
Refer: 296 -1 N 1 0 0 1 91 0 2
EndChar
StartChar: uni0621
Encoding: 1569 1569 64
Width: 782
Flags: HW
AnchorPoint: "TashkilBelow" 430 60 basechar 0
AnchorPoint: "TashkilAbove" 300 700 basechar 0
LayerCount: 2
Fore
SplineSet
631 255 m 2
 625 235.666666667 616.333333333 222.333333333 605 215 c 1
 502.333333333 179 375.333333333 110 224 8 c 24
 210.666666667 -0.666666666667 199.666666667 -0.666666666667 191 8 c 0
 167.666666667 31.3333333333 198.333333333 78.3333333333 283 149 c 1
 171.666666667 189.666666667 120.666666667 244 130 312 c 1
 136.666666667 368 178.666666667 440.666666667 256 530 c 0
 303.333333333 584 343.333333333 611 376 611 c 0
 446 610.333333333 477.666666667 572 471 496 c 0
 468.333333333 468.666666667 459.5 442.5 444.5 417.5 c 128
 429.5 392.5 412.333333333 389 393 407 c 0
 331.666666667 465.666666667 287.666666667 476.333333333 261 439 c 0
 231.666666667 397 255.666666667 357.333333333 333 320 c 0
 380.333333333 297.333333333 435.333333333 291.666666667 498 303 c 0
 516 306.333333333 537.333333333 315.166666667 562 329.5 c 128
 586.666666667 343.833333333 607.333333333 352.666666667 624 356 c 1
 650 360 657.666666667 344.333333333 647 309 c 2
 631 255 l 2
EndSplineSet
EndChar
StartChar: uni0640
Encoding: 1600 1600 208
Width: 0
Flags: HW
LayerCount: 2
Fore
SplineSet
0 185 m 25
 0 0 l 25
 0 0 l 25
 0 185 l 25
 0 185 l 25
EndSplineSet
EndChar
StartChar: uni064B
Encoding: 1611 1611 232
Width: 0
GlyphClass: 4
Flags: HW
AnchorPoint: "TashkilTashkilAbove" 287 2170 basemark 0
AnchorPoint: "MarkAbove" 529 1640 mark 0
AnchorPoint: "TashkilAboveDot" 529 1640 mark 0
AnchorPoint: "TashkilAbove" 529 1640 mark 0
LayerCount: 2
Fore
SplineSet
689 2073 m 2
 733 2103 748.33 2097.33 735 2056 c 2
 714 1992 l 2
 707.33 1970.67 696 1955.33 680 1946 c 2
 322 1726 l 2
 293.33 1708.67 281.33 1715 286 1745 c 2
 292 1784 l 2
 295.33 1802.67 306.67 1818.67 326 1832 c 2
 689 2073 l 2
681 2277 m 2
 719.67 2301.67 734.33 2296 725 2260 c 2
 711 2208 l 2
 705 2185.33 690.67 2167.67 668 2155 c 2
 305 1944 l 2
 259 1917.33 244.67 1924 262 1964 c 2
 280 2003 l 2
 288 2022.33 298.67 2036 312 2044 c 2
 681 2277 l 2
EndSplineSet
EndChar
StartChar: uni064C
Encoding: 1612 1612 233
Width: 0
GlyphClass: 4
Flags: HW
AnchorPoint: "TashkilTashkilAbove" 187 2170 basemark 0
AnchorPoint: "MarkAbove" 509 1640 mark 0
AnchorPoint: "TashkilAbove" 510 1640 mark 0
AnchorPoint: "TashkilAboveDot" 510 1640 mark 0
LayerCount: 2
Fore
SplineSet
610 2266 m 0
 629.33 2264 643.33 2248.67 652 2220 c 128
 660.67 2191.33 664.33 2162.17 663 2132.5 c 128
 661.67 2102.83 656.33 2073.33 647 2044 c 1
 669.67 2030.67 686.33 2020.67 697 2014 c 128
 707.67 2007.33 712.33 2000.67 711 1994 c 2
 697 1927 l 2
 692.33 1905.67 675.67 1904 647 1922 c 0
 623.67 1936.67 607.67 1947.67 599 1955 c 1
 540.33 1845 448.67 1772 324 1736 c 0
 292.67 1726.67 275.33 1731.67 272 1751 c 0
 268 1769.67 282.33 1784 315 1794 c 0
 428.33 1827.33 510 1890 560 1982 c 1
 512.67 2016.67 485.67 2044 479 2064 c 128
 472.33 2084 475 2111.83 487 2147.5 c 128
 499 2183.17 516.17 2212.5 538.5 2235.5 c 128
 560.83 2258.5 584.67 2268.67 610 2266 c 0
591 2140 m 0
 576.33 2157.33 556 2158.67 530 2144 c 0
 518 2137.33 519.67 2128 535 2116 c 0
 557.67 2098 578.33 2084.67 597 2076 c 0
 602.33 2074 604.33 2083.67 603 2105 c 0
 601.67 2121 597.67 2132.67 591 2140 c 0
436 2073 m 0
 446.67 2075 449 2066.67 443 2048 c 2
 426 1995 l 2
 418.67 1972.33 403 1964.33 379 1971 c 0
 355.67 1978.33 337.67 1998.67 325 2032 c 0
 313 2065.33 311 2099.33 319 2134 c 0
 333.67 2197.33 368.33 2258.67 423 2318 c 0
 547.67 2455.33 637 2510.67 691 2484 c 0
 710.33 2474.67 721 2457 723 2431 c 0
 724.33 2403.67 716.67 2376.33 700 2349 c 0
 685.33 2325.67 667.67 2324 647 2344 c 0
 610.33 2380 565.67 2378.67 513 2340 c 0
 466.33 2306.67 432.33 2273.33 411 2240 c 0
 385.67 2201.33 372.17 2170 370.5 2146 c 128
 368.83 2122 375.33 2103 390 2089 c 0
 403.33 2075.67 418.67 2070.33 436 2073 c 0
EndSplineSet
EndChar
StartChar: uni064E
Encoding: 1614 1614 235
Width: 0
GlyphClass: 4
Flags: HW
AnchorPoint: "MarkAbove" 549 1640 mark 0
AnchorPoint: "TashkilTashkilAbove" 297 1955 basemark 0
AnchorPoint: "TashkilAbove" 556 1640 mark 0
AnchorPoint: "TashkilAboveDot" 556 1640 mark 0
LayerCount: 2
Fore
SplineSet
724 2092 m 0
 758.67 2112.67 771 2105.67 761 2071 c 2
 741 2004 l 2
 736.33 1987.33 721.67 1971.33 697 1956 c 0
 298 1726 l 0
 274 1712.67 262 1719 262 1745 c 2
 263 1779 l 2
 263.67 1792.33 275.33 1808 298 1826 c 0
 724 2092 l 0
EndSplineSet
EndChar
StartChar: uni064F
Encoding: 1615 1615 236
Width: 0
GlyphClass: 4
Flags: HW
AnchorPoint: "MarkAbove" 569 1640 mark 0
AnchorPoint: "TashkilTashkilAbove" 400 2200 basemark 0
AnchorPoint: "TashkilAboveDot" 570 1640 mark 0
AnchorPoint: "TashkilAbove" 570 1640 mark 0
LayerCount: 2
Fore
SplineSet
636 2348 m 0
 659.333333333 2351.33333333 679 2340.33333333 695 2315 c 0
 729 2262.33333333 728.666666667 2191 694 2101 c 1
 716 2088.33333333 732 2079.66666667 742 2075 c 0
 760.666666667 2067.66666667 764.666666667 2054 754 2034 c 2
 731 1990 l 2
 723.666666667 1975.33333333 713.5 1970.5 700.5 1975.5 c 128
 687.5 1980.5 669 1989.66666667 645 2003 c 1
 551 1878.33333333 444 1786 324 1726 c 0
 297.333333333 1712 279.333333333 1713.66666667 270 1731 c 0
 259.333333333 1751 269 1769.33333333 299 1786 c 0
 422.333333333 1858 520 1940.33333333 592 2033 c 1
 553.333333333 2053 524.666666667 2072.33333333 506 2091 c 0
 472.666666667 2122.33333333 463.666666667 2155.66666667 479 2191 c 0
 518.333333333 2285.66666667 570.666666667 2338 636 2348 c 0
615 2215 m 0
 584.333333333 2243 559.666666667 2241.33333333 541 2210 c 0
 535.666666667 2202.66666667 539.166666667 2192.5 551.5 2179.5 c 128
 563.833333333 2166.5 592 2149.33333333 636 2128 c 1
 642 2168.66666667 635 2197.66666667 615 2215 c 0
EndSplineSet
EndChar
StartChar: uni0651
Encoding: 1617 1617 238
Width: 0
GlyphClass: 4
Flags: HW
AnchorPoint: "MarkAbove" 427 1640 mark 0
AnchorPoint: "TashkilTashkilBelow" 405 1640 basemark 0
AnchorPoint: "TashkilTashkilAbove" 410 2054 basemark 0
AnchorPoint: "TashkilAbove" 427 1640 mark 0
AnchorPoint: "TashkilAboveDot" 427 1640 mark 0
LayerCount: 2
Fore
SplineSet
612 2014 m 0
 615.33 2044 625.67 2058.33 643 2057 c 0
 663.67 2055.67 673 2041.33 671 2014 c 0
 666.33 1940.67 652.67 1879.33 630 1830 c 0
 604 1772 566 1741 516 1737 c 0
 484 1734.33 453.67 1750.67 425 1786 c 1
 405.67 1752 380.33 1726.67 349 1710 c 0
 315 1692 281.33 1689.67 248 1703 c 0
 168 1735 159 1831 221 1991 c 0
 231 2015.67 245.67 2024 265 2016 c 0
 280.33 2009.33 284.67 1994 278 1970 c 0
 256 1890.67 266 1848 308 1842 c 0
 359.33 1835.33 400 1890.33 430 2007 c 0
 436 2029.67 446.67 2039.33 462 2036 c 0
 479.33 2032 486.33 2022 483 2006 c 0
 471.67 1936 488.33 1900.67 533 1900 c 128
 577.67 1899.33 604 1937.33 612 2014 c 0
EndSplineSet
EndChar
StartChar: uni0652
Encoding: 1618 1618 239
Width: 0
GlyphClass: 4
Flags: HW
AnchorPoint: "MarkAbove" 369 1640 mark 0
AnchorPoint: "TashkilTashkilAbove" 372 1640 mark 0
AnchorPoint: "TashkilAboveDot" 372 1640 mark 0
AnchorPoint: "TashkilAbove" 372 1640 mark 0
LayerCount: 2
Fore
SplineSet
239 2016 m 0
 293.666666667 2116 364 2133 450 2067 c 0
 506 2024.33333333 536 1972.66666667 540 1912 c 0
 544.666666667 1838 522.333333333 1783.66666667 473 1749 c 0
 437 1724.33333333 392.666666667 1714 340 1718 c 0
 230 1725.33333333 185.666666667 1793.66666667 207 1923 c 0
 213 1957 223.666666667 1988 239 2016 c 0
457 1861 m 0
 496.333333333 1871.66666667 495.666666667 1897.66666667 455 1939 c 0
 425.666666667 1968.33333333 389.666666667 1983.33333333 347 1984 c 0
 295 1985.33333333 268 1963.33333333 266 1918 c 0
 265.333333333 1888.66666667 276.666666667 1870 300 1862 c 0
 347.333333333 1845.33333333 399.666666667 1845 457 1861 c 0
EndSplineSet
EndChar
StartChar: uni0653
Encoding: 1619 1619 199
Width: 0
GlyphClass: 4
Flags: H
AnchorPoint: "MarkAbove" -1 1570 mark 0
AnchorPoint: "TashkilAbove" 0 1640 mark 0
LayerCount: 2
Fore
SplineSet
401 1868 m 0
 426.33 1874.67 442.83 1867.33 450.5 1846 c 128
 458.17 1824.67 452.33 1807.67 433 1795 c 0
 286.33 1698.33 48 1655 -282 1665 c 1
 -294 1637.67 -306.17 1617.17 -318.5 1603.5 c 128
 -330.83 1589.83 -341 1587.33 -349 1596 c 2
 -444 1693 l 1
 -462.67 1710.33 -441.33 1754.33 -380 1825 c 0
 -368.67 1837.67 -349.67 1841.67 -323 1837 c 0
 -80.33 1797.67 161 1808 401 1868 c 0
EndSplineSet
EndChar
StartChar: uni0654
Encoding: 1620 1620 197
Width: 0
GlyphClass: 4
Flags: H
AnchorPoint: "TashkilAbove" 0 950 mark 0
AnchorPoint: "MarkAbove" -1 830 mark 0
AnchorPoint: "TashkilTashkilAbove" -50 1470 basemark 0
AnchorPoint: "HamzaAbove" 0 950 mark 0
LayerCount: 2
Fore
SplineSet
151 984 m 0
 77 969.33 24.67 957.17 -6 947.5 c 128
 -36.67 937.83 -94.33 914.33 -179 877 c 0
 -197 869.67 -210 872 -218 884 c 0
 -234.67 908.67 -208 942.67 -138 986 c 1
 -188.67 1011.33 -217 1040 -223 1072 c 0
 -233.67 1127.33 -210.67 1194.33 -154 1273 c 1
 -96.67 1351 -35.67 1387.33 29 1382 c 0
 70.33 1378.67 88.83 1355.5 84.5 1312.5 c 128
 80.17 1269.5 68 1234 48 1206 c 128
 28 1178 11 1175 -3 1197 c 128
 -17 1219 -37.5 1231.33 -64.5 1234 c 128
 -91.5 1236.67 -112.67 1229 -128 1211 c 128
 -143.33 1193 -142 1175.33 -124 1158 c 0
 -78.67 1115.33 -12.33 1092.67 75 1090 c 0
 89 1090 110 1093.33 138 1100 c 128
 166 1106.67 185.5 1109.83 196.5 1109.5 c 128
 207.5 1109.17 215.5 1104.83 220.5 1096.5 c 128
 225.5 1088.17 226.33 1080.33 223 1073 c 0
 197 1018.33 173 988.67 151 984 c 0
EndSplineSet
EndChar
StartChar: uni0658
Encoding: 1624 1624 4625
Width: 0
GlyphClass: 4
Flags: HW
AnchorPoint: "MarkAbove" 369 1640 mark 0
AnchorPoint: "TashkilAboveDot" 372 1640 mark 0
AnchorPoint: "TashkilAbove" 372 1640 mark 0
LayerCount: 2
Fore
SplineSet
302 2067 m 0
 311.333333333 2081.66666667 320.5 2088.66666667 329.5 2088 c 128
 338.5 2087.33333333 341.666666667 2078.33333333 339 2061 c 0
 325 1949.66666667 359.333333333 1889 442 1879 c 0
 468.666666667 1875.66666667 492 1888.66666667 512 1918 c 256
 526.666666667 1939.33333333 537.666666667 1948.16666667 545 1944.5 c 128
 552.333333333 1940.83333333 553 1928 547 1906 c 0
 510.333333333 1787.33333333 453 1727.66666667 375 1727 c 0
 289 1726.33333333 242.666666667 1768 236 1852 c 256
 231.333333333 1922 253.333333333 1993.66666667 302 2067 c 0
EndSplineSet
EndChar
StartChar: uni0659
Encoding: 1625 1625 4622
Width: 0
GlyphClass: 4
Flags: HW
AnchorPoint: "MarkAbove" 549 1640 mark 0
AnchorPoint: "TashkilAbove" 556 1640 mark 0
AnchorPoint: "TashkilAboveDot" 556 1640 mark 0
LayerCount: 2
Fore
SplineSet
270 1730 m 0
 228.67 1729.33 221.33 1741.67 248 1767 c 2
 300 1815 l 2
 313.33 1827 334 1833.33 362 1834 c 0
 842 1834 l 0
 883.33 1834.67 890.67 1822.33 864 1797 c 2
 812 1749 l 2
 798.67 1737 778 1730.67 750 1730 c 0
 270 1730 l 0
EndSplineSet
EndChar
StartChar: uni065A
Encoding: 1626 1626 209
Width: 0
GlyphClass: 4
Flags: HW
AnchorPoint: "TashkilAbove" 0 950 mark 0
AnchorPoint: "MarkAbove" 0 840 mark 0
AnchorPoint: "TashkilTashkilAbove" 0 1500 basemark 0
AnchorPoint: "MarkDotAbove" 0 950 mark 0
AnchorPoint: "VAbove" 0 950 mark 0
LayerCount: 2
Back
SplineSet
127.709960938 1314.46972656 m 1
 94.943359375 1291.53027344 l 1
 42.4609375 1212.01009115 0.273763020833 1129.18001302 -31.6181640625 1043.04003906 c 1
 -113.8984375 1196.08984375 l 1
 -171.255859375 1278.00976562 l 1
 -204.021484375 1255.05957031 l 1
 -164.136067708 1178.3063151 -113.816080729 1086.44856771 -53.0615234375 979.486328125 c 1
 4.2958984375 897.571289062 l 1
 37.0615234375 920.513671875 l 1
 70.3603515625 1029.49153646 119.695638021 1133.50683594 185.067382812 1232.55957031 c 1
 127.709960938 1314.46972656 l 1
208 1356 m 0
 108 1229.33333333 36 1094 -8 950 c 17
 -102.666666667 1116.66666667 -172 1246.66666667 -216 1340 c 1024
EndSplineSet
Fore
SplineSet
142 1307 m 2
 180 1251 l 2
 184.67 1243.67 187 1237.33 187 1232 c 0
 187 1225.33 184.67 1219 180 1213 c 0
 113.33 1102.33 68.33 1006.67 45 926 c 0
 26 912 l 2
 23.33 910 20.33 909 17 909 c 0
 11.67 909 6.33 912.33 1 919 c 0
 -77 1015 -138 1117.67 -182 1227 c 16
 -186 1236.33 -188 1244.33 -188 1251 c 0
 -188 1263 -181.67 1271 -169 1275 c 0
 -152.33 1280.33 -139.67 1271.67 -131 1249 c 0
 -112.33 1199 -77 1130.33 -25 1043 c 1
 3 1144.33 46.33 1230.67 105 1302 c 0
 113 1311.33 120.33 1316 127 1316 c 0
 133 1316 138 1313 142 1307 c 2
EndSplineSet
EndChar
StartChar: uni065B
Encoding: 1627 1627 244
Width: 0
GlyphClass: 4
Flags: HW
AnchorPoint: "TashkilAbove" 0 950 mark 0
AnchorPoint: "MarkAbove" 0 840 mark 0
AnchorPoint: "TashkilTashkilAbove" 0 1500 basemark 0
AnchorPoint: "TashkilAboveDot" 0 950 mark 0
AnchorPoint: "VAbove" 0 950 mark 0
LayerCount: 2
Fore
SplineSet
158 937 m 2
 154.67 930.33 150 927 144 927 c 0
 137.33 925.67 129.67 929.33 121 938 c 0
 55 1002.67 2.67 1084 -36 1182 c 1
 -78 1090 -105.67 1018 -119 966 c 0
 -125 942.67 -136.67 932.67 -154 936 c 0
 -167.33 938.67 -174.67 946 -176 958 c 0
 -176 964 -174.67 972 -172 982 c 8
 -140 1095.33 -90.33 1204 -23 1308 c 0
 -18.33 1315.33 -13.33 1319.33 -8 1320 c 0
 -4.67 1320.67 -1.67 1320 1 1318 c 2
 21 1306 l 0
 53 1228 108 1137.67 186 1035 c 0
 191.33 1029.67 194.33 1023.67 195 1017 c 0
 195.67 1011.67 194 1005 190 997 c 2
 158 937 l 2
EndSplineSet
EndChar
StartChar: uni065D
Encoding: 1629 1629 289
Width: 0
GlyphClass: 4
Flags: HW
AnchorPoint: "MarkAbove" 569 1640 mark 0
AnchorPoint: "TashkilAbove" 570 1640 mark 0
AnchorPoint: "TashkilAboveDot" 570 1640 mark 0
LayerCount: 2
Fore
SplineSet
387 2348 m 0
 452.33 2338 504.67 2285.67 544 2191 c 0
 559.33 2155.67 550.33 2122.33 517 2091 c 0
 498.33 2072.33 469.67 2053 431 2033 c 1
 503 1940.33 600.67 1858 724 1786 c 0
 754 1769.33 763.67 1751 753 1731 c 0
 743.67 1713.67 725.67 1712 699 1726 c 0
 579 1786 472 1878.33 378 2003 c 1
 354 1989.67 335.5 1980.5 322.5 1975.5 c 128
 309.5 1970.5 299.33 1975.33 292 1990 c 2
 269 2034 l 2
 258.33 2054 262.33 2067.67 281 2075 c 0
 291 2079.67 307 2088.33 329 2101 c 1
 294.33 2191 294 2262.33 328 2315 c 0
 344 2340.33 363.67 2351.33 387 2348 c 0
408 2215 m 0
 388 2197.67 381 2168.67 387 2128 c 1
 431 2149.33 459.17 2166.5 471.5 2179.5 c 128
 483.83 2192.5 487.33 2202.67 482 2210 c 0
 463.33 2241.33 438.67 2243 408 2215 c 0
EndSplineSet
EndChar
StartChar: uni065E
Encoding: 1630 1630 4623
Width: 0
GlyphClass: 4
Flags: HW
AnchorPoint: "MarkAbove" 549 1640 mark 0
AnchorPoint: "TashkilAbove" 556 1640 mark 0
AnchorPoint: "TashkilAboveDot" 556 1640 mark 0
LayerCount: 2
Fore
SplineSet
313 2082 m 2
 313.67 2084 315 2085 317 2085 c 0
 336.33 2085 362 2070.33 394 2041 c 0
 396.67 2038.33 397.33 2035.33 396 2032 c 2
 347 1955 l 2
 345 1951.67 341.67 1952 337 1956 c 0
 332.33 1960 318.67 1968.67 296 1982 c 0
 273.33 1995.33 262 2002.67 262 2004 c 0
 262 2005.33 262.33 2006.33 263 2007 c 2
 313 2082 l 2
677 1867 m 2
 679 1869 680.67 1870 682 1870 c 0
 683.33 1870 692 1867.33 708 1862 c 0
 724 1856.67 736.67 1848.67 746 1838 c 0
 756.67 1826 761.33 1819 760 1817 c 2
 711 1740 l 2
 710.33 1738.67 709.33 1738 708 1738 c 0
 706.67 1738 699.33 1743.33 686 1754 c 0
 672.67 1764.67 659.33 1772.67 646 1778 c 0
 632.67 1783.33 626 1787 626 1789 c 0
 626 1790.33 626.33 1791.33 627 1792 c 2
 677 1867 l 2
EndSplineSet
Refer: 235 1614 N 1 0 0 1 0 0 2
EndChar
StartChar: uni065F
Encoding: 1631 1631 247
Width: 0
GlyphClass: 4
Flags: HW
AnchorPoint: "TashkilBelow" 0 -500 mark 0
AnchorPoint: "MarkBelow" 0 -460 mark 0
AnchorPoint: "TashkilTashkilBelow" 0 -1120 basemark 0
AnchorPoint: "HamzaBelow" 0 -500 mark 0
LayerCount: 2
Back
SplineSet
-178 -966 m 0
 -199.132 -977.786 -246.521 -968.261 -320.167 -937.425 c 0
 -354.299666667 -923.613 -386.299666667 -927.192 -416.167 -948.162 c 0
 -434.653 -961.456666667 -457.986333333 -988.736 -486.167 -1030 c 0
151 -900 m 0
 77 -914.666666667 24.6666666667 -926.833333333 -6 -936.5 c 128
 -36.6666666667 -946.166666667 -94.3333333333 -969.666666667 -179 -1007 c 0
 -197 -1014.33333333 -210 -1012 -218 -1000 c 0
 -234.666666667 -975.333333333 -208 -941.333333333 -138 -898 c 1
 -188.666666667 -872.666666667 -217 -844 -223 -812 c 0
 -233.666666667 -756.666666667 -210.666666667 -689.666666667 -154 -611 c 1
 -96.6666666667 -533 -35.6666666667 -496.666666667 29 -502 c 0
 70.3333333333 -505.333333333 88.8333333333 -528.5 84.5 -571.5 c 128
 80.1666666667 -614.5 68 -650 48 -678 c 128
 28 -706 11 -709 -3 -687 c 128
 -17 -665 -37.5 -652.666666667 -64.5 -650 c 128
 -91.5 -647.333333333 -112.666666667 -655 -128 -673 c 128
 -143.333333333 -691 -142 -708.666666667 -124 -726 c 0
 -78.6666666667 -768.666666667 -12.3333333333 -791.333333333 75 -794 c 0
 89 -794 110 -790.666666667 138 -784 c 128
 166 -777.333333333 185.5 -774.166666667 196.5 -774.5 c 128
 207.5 -774.833333333 215.5 -779.166666667 220.5 -787.5 c 128
 225.5 -795.833333333 226.333333333 -803.666666667 223 -811 c 0
 197 -865.666666667 173 -895.333333333 151 -900 c 0
EndSplineSet
Fore
SplineSet
-173 -922 m 128
 -158.333333333 -915.333333333 -146.666666667 -907.333333333 -138 -898 c 1
 -188.666666667 -872.666666667 -217 -844 -223 -812 c 0
 -233.666666667 -756.666666667 -210.666666667 -689.666666667 -154 -611 c 1
 -96.6666666667 -533 -35.6666666667 -496.666666667 29 -502 c 0
 70.3333333333 -505.333333333 88.8333333333 -528.5 84.5 -571.5 c 128
 80.1666666667 -614.5 68 -650 48 -678 c 128
 28 -706 11 -709 -3 -687 c 128
 -17 -665 -37.5 -652.666666667 -64.5 -650 c 128
 -91.5 -647.333333333 -112.666666667 -655 -128 -673 c 128
 -143.333333333 -691 -142 -708.666666667 -124 -726 c 0
 -78.6666666667 -768.666666667 -12.3333333333 -791.333333333 75 -794 c 0
 89 -794 110 -790.666666667 138 -784 c 128
 166 -777.333333333 185.5 -774.166666667 196.5 -774.5 c 128
 207.5 -774.833333333 215.5 -779.166666667 220.5 -787.5 c 128
 225.5 -795.833333333 226.333333333 -803.666666667 223 -811 c 0
 198.333333333 -865.666666667 174.333333333 -895.333333333 151 -900 c 0
 47 -922 -63 -957.666666667 -179 -1007 c 0
 -213.666666667 -1021.66666667 -266.333333333 -1014.66666667 -337 -986 c 0
 -371 -972 -400.166666667 -973.5 -424.5 -990.5 c 128
 -448.833333333 -1007.5 -475 -1036.66666667 -503 -1078 c 1
 -507 -1083.33333333 -511.833333333 -1082.83333333 -517.5 -1076.5 c 128
 -523.166666667 -1070.16666667 -524.666666667 -1064 -522 -1058 c 0
 -474.666666667 -976.666666667 -434 -924.333333333 -400 -901 c 0
 -368.666666667 -879.666666667 -336.666666667 -875.666666667 -304 -889 c 0
 -231.333333333 -917.666666667 -187.666666667 -928.666666667 -173 -922 c 128
EndSplineSet
EndChar
StartChar: uni0660
Encoding: 1632 1632 263
Width: 1200
Flags: HW
LayerCount: 2
Fore
SplineSet
514 639 m 2
 524 667.666666667 544.666666667 672 576 652 c 2
 745 543 l 2
 769.666666667 527 776.666666667 503.666666667 766 473 c 2
 701 271 l 2
 689.666666667 236.333333333 666.333333333 229.666666667 631 251 c 2
 445 361 l 2
 428.333333333 371 425.333333333 391 436 421 c 2
 514 639 l 2
EndSplineSet
EndChar
StartChar: uni0661
Encoding: 1633 1633 258
Width: 1200
Flags: HW
LayerCount: 2
Fore
SplineSet
503 1074 m 2
 522.33 1130.67 549.67 1118.33 585 1037 c 1
 665.67 832.33 719.67 635.67 747 447 c 0
 783.67 183 778 -20 730 -162 c 0
 722.67 -183.33 710 -192.33 692 -189 c 128
 674 -185.67 665 -171.67 665 -147 c 0
 669 203 598.33 506.67 453 764 c 0
 429.67 804.67 423.33 839.67 434 869 c 2
 503 1074 l 2
EndSplineSet
EndChar
StartChar: uni0662
Encoding: 1634 1634 259
Width: 1200
Flags: HW
LayerCount: 2
Fore
SplineSet
280 1067 m 2
 294.67 1129 321.33 1122.67 360 1048 c 24
 426.67 920 516.67 856.33 630 857 c 0
 791.33 857.67 881.33 929 900 1071 c 0
 903.33 1095.67 914.5 1108 933.5 1108 c 128
 952.5 1108 964.67 1100.33 970 1085 c 128
 975.33 1069.67 971.67 1023.67 959 947 c 128
 946.33 870.33 918.67 801.67 876 741 c 0
 808 641.67 692.67 605 530 631 c 1
 616.67 307.67 640 44.67 600 -158 c 0
 597.33 -171.33 590.33 -180.5 579 -185.5 c 128
 567.67 -190.5 557.67 -189.33 549 -182 c 128
 540.33 -174.67 535.33 -163.67 534 -149 c 0
 511.33 203.67 418.67 507 256 761 c 0
 232 799 223.33 831.67 230 859 c 2
 280 1067 l 2
EndSplineSet
EndChar
StartChar: uni0663
Encoding: 1635 1635 260
Width: 1200
Flags: HW
LayerCount: 2
Fore
SplineSet
997 1088 m 0
 998.333333333 1112.66666667 1009.66666667 1125 1031 1125 c 128
 1052.33333333 1125 1062.33333333 1104.66666667 1061 1064 c 0
 1057.66666667 980.666666667 1042.33333333 888.333333333 1015 787 c 0
 979 653.666666667 896.666666667 607.333333333 768 648 c 0
 728 660.666666667 693.333333333 678 664 700 c 1
 599.333333333 629.333333333 526.666666667 597 446 603 c 1
 531.333333333 257 554 3.33333333333 514 -158 c 0
 510.666666667 -171.333333333 503.333333333 -180.333333333 492 -185 c 128
 480.666666667 -189.666666667 470.666666667 -188.666666667 462 -182 c 0
 454 -175.333333333 449.333333333 -163.666666667 448 -147 c 0
 425.333333333 217 333.333333333 519 172 759 c 0
 144 800.333333333 133.333333333 834 140 860 c 2
 191 1068 l 2
 203 1116 226.666666667 1113.66666667 262 1061 c 24
 341.333333333 944.333333333 389.666666667 881 407 871 c 0
 445 849 493.333333333 840.666666667 552 846 c 0
 633.333333333 853.333333333 688 927.666666667 716 1069 c 0
 721.333333333 1095.66666667 732 1108.33333333 748 1107 c 128
 764 1105.66666667 774.166666667 1096.33333333 778.5 1079 c 128
 782.833333333 1061.66666667 780 1027.16666667 770 975.5 c 128
 760 923.833333333 792 887.666666667 866 867 c 1
 944 846.333333333 987.666666667 920 997 1088 c 0
EndSplineSet
EndChar
StartChar: uni0664
Encoding: 1636 1636 261
Width: 1200
Flags: HW
LayerCount: 2
Fore
SplineSet
597 1110 m 0
 605.666666667 1118.66666667 616.666666667 1123 630 1123 c 0
 644 1123 655 1118.33333333 663 1109 c 128
 671 1099.66666667 673.666666667 1089.33333333 671 1078 c 2
 634 921 l 2
 631.333333333 910.333333333 621.333333333 901.666666667 604 895 c 0
 526.666666667 867.666666667 479.333333333 837.333333333 462 804 c 0
 450.666666667 782 458 762.666666667 484 746 c 0
 577.333333333 686 663 646.666666667 741 628 c 0
 774.333333333 620 782 595.666666667 764 555 c 2
 728 475 l 2
 714 443.666666667 695.333333333 420.333333333 672 405 c 0
 592.666666667 351.666666667 530.666666667 298.666666667 486 246 c 24
 457.333333333 212 460 184 494 162 c 0
 608 89.3333333333 726.333333333 45.3333333333 849 30 c 0
 887.666666667 25.3333333333 899.333333333 5 884 -31 c 2
 825 -172 l 2
 816.333333333 -192.666666667 800.666666667 -201.666666667 778 -199 c 0
 616 -181.666666667 475.666666667 -131.333333333 357 -48 c 0
 329.666666667 -28.6666666667 323 6.66666666667 337 58 c 2
 383 227 l 2
 397 277 457.333333333 349 564 443 c 1
 490.666666667 469.666666667 416.333333333 508.666666667 341 560 c 0
 302.333333333 586 298.666666667 632.333333333 330 699 c 2
 395 838 l 2
 435.666666667 925.333333333 503 1016 597 1110 c 0
EndSplineSet
EndChar
StartChar: uni0665
Encoding: 1637 1637 262
Width: 1200
Flags: HW
LayerCount: 2
Fore
SplineSet
484 818 m 0
 524 864.67 568.67 881.67 618 869 c 0
 708.67 846.33 786.67 800.67 852 732 c 0
 942.67 636 968.33 491.67 929 299 c 0
 909.67 203 866.67 129.67 800 79 c 128
 733.33 28.33 648.33 3 545 3 c 128
 441.67 3 367.33 24 322 66 c 128
 276.67 108 254 177 254 273 c 0
 252.67 461.67 329.33 643.33 484 818 c 0
801 449 m 0
 701.67 561.67 600 613.67 496 605 c 0
 432 601 394.67 551.33 384 456 c 0
 376 394.67 386.67 347.67 416 315 c 0
 460 263 533.33 249 636 273 c 0
 710.67 289.67 769.33 318 812 358 c 0
 838 380 834.33 410.33 801 449 c 0
EndSplineSet
EndChar
StartChar: uni0666
Encoding: 1638 1638 265
Width: 1200
Flags: HW
LayerCount: 2
Fore
SplineSet
227 1069 m 2
 237.666666667 1123.66666667 262.666666667 1122.66666667 302 1066 c 0
 380.666666667 950 531.666666667 925.666666667 755 993 c 0
 791 1003.66666667 807.333333333 992.333333333 804 959 c 0
 778 693.666666667 837.666666667 430 983 168 c 0
 1002.33333333 132.666666667 1009 97.3333333333 1003 62 c 2
 968 -134 l 2
 956 -200 934.666666667 -203.666666667 904 -145 c 0
 761.333333333 126.333333333 695.333333333 415.666666667 706 723 c 0
 706.666666667 741.666666667 703 750 695 748 c 0
 479.666666667 692.666666667 320.333333333 722 217 836 c 0
 197.666666667 857.333333333 190.666666667 881.333333333 196 908 c 2
 227 1069 l 2
EndSplineSet
EndChar
StartChar: uni0667
Encoding: 1639 1639 266
Width: 1200
Flags: HW
LayerCount: 2
Fore
SplineSet
637 -158 m 0
 633.666666667 -172.666666667 627.166666667 -182.333333333 617.5 -187 c 128
 607.833333333 -191.666666667 599 -191 591 -185 c 128
 583 -179 578.666666667 -169.333333333 578 -156 c 0
 573.333333333 -64 532.5 74.5 455.5 259.5 c 128
 378.5 444.5 282 634.333333333 166 829 c 0
 159.333333333 840.333333333 158 856.666666667 162 878 c 2
 188 1045 l 2
 198.666666667 1116.33333333 215 1132 237 1092 c 24
 379.666666667 838.666666667 507 549.666666667 619 225 c 0
 634.333333333 181.666666667 646.333333333 179 655 217 c 0
 710.333333333 465 819 741.666666667 981 1047 c 0
 990.333333333 1067 1000.33333333 1077.5 1011 1078.5 c 128
 1021.66666667 1079.5 1027.66666667 1071 1029 1053 c 2
 1041 855 l 2
 1041.66666667 839 1035.66666667 819.333333333 1023 796 c 0
 930.333333333 640.666666667 853.833333333 488.5 793.5 339.5 c 128
 733.166666667 190.5 681 24.6666666667 637 -158 c 0
EndSplineSet
EndChar
StartChar: uni0668
Encoding: 1640 1640 267
Width: 1200
Flags: HW
LayerCount: 2
Fore
SplineSet
563 1080 m 0
 566.33 1094.67 572.83 1104.33 582.5 1109 c 128
 592.17 1113.67 601 1113 609 1107 c 128
 617 1101 621.33 1091.33 622 1078 c 0
 626.67 986 667.5 847.5 744.5 662.5 c 128
 821.5 477.5 918 287.67 1034 93 c 0
 1040.67 81.67 1042 65.33 1038 44 c 2
 1012 -123 l 2
 1001.33 -194.33 985 -210 963 -170 c 24
 820.33 83.33 693 372.33 581 697 c 0
 565.67 740.33 553.67 743 545 705 c 0
 489.67 457 381 180.33 219 -125 c 0
 209.67 -145 199.67 -155.5 189 -156.5 c 128
 178.33 -157.5 172.33 -149 171 -131 c 2
 159 67 l 2
 158.33 83 164.33 102.67 177 126 c 0
 269.67 281.33 346.17 433.5 406.5 582.5 c 128
 466.83 731.5 519 897.33 563 1080 c 0
EndSplineSet
EndChar
StartChar: uni0669
Encoding: 1641 1641 268
Width: 1200
Flags: HW
LayerCount: 2
Fore
SplineSet
450 1023 m 0
 544.67 1138.33 632.33 1138.67 713 1024 c 0
 777.67 932 812.67 796.67 818 618 c 0
 823.33 442 859 293.67 925 173 c 0
 945 136.33 952.33 102.67 947 72 c 2
 910 -144 l 2
 898.67 -210.67 878 -208 848 -136 c 24
 768.67 50.67 723.67 228.33 713 397 c 1
 413.67 368.33 259.67 441.67 251 617 c 0
 246.33 712.33 312.67 847.67 450 1023 c 0
659 712 m 0
 635.67 784.67 593.67 830 533 848 c 0
 459.67 868 410.33 838 385 758 c 0
 371 714 380.33 681.67 413 661 c 0
 458.33 632.33 532.33 621 635 627 c 0
 668.33 629 676.33 657.33 659 712 c 0
EndSplineSet
EndChar
StartChar: uni066B
Encoding: 1643 1643 333
Width: 614
Flags: HW
LayerCount: 2
Fore
SplineSet
297 300 m 18
 307 350 343 357.333333333 405 322 c 0
 494.333333333 271.333333333 529.666666667 184 511 60 c 0
 489.666666667 -84 442.333333333 -203 369 -297 c 128
 295.666666667 -391 215.666666667 -440 129 -444 c 0
 45 -448 32 -429 90 -387 c 0
 174.666666667 -325.666666667 248.666666667 -255.333333333 312 -176 c 0
 370 -105.333333333 413 -22.6666666667 441 72 c 0
 446.333333333 90.6666666667 434.666666667 103 406 109 c 10
 310 129 l 18
 280 135 268 153.666666667 274 185 c 10
 297 300 l 18
EndSplineSet
EndChar
StartChar: uni066C
Encoding: 1644 1644 334
Width: 614
Flags: HW
LayerCount: 2
Fore
SplineSet
317 438 m 18
 307 388 271 380.666666667 209 416 c 0
 119.666666667 466.666666667 84.3333333333 554 103 678 c 0
 124.333333333 822 171.666666667 941 245 1035 c 128
 318.333333333 1129 398.333333333 1178 485 1182 c 0
 569 1186 582 1167 524 1125 c 0
 444 1067 370 996.666666667 302 914 c 0
 242.666666667 841.333333333 199.666666667 758.666666667 173 666 c 0
 167.666666667 647.333333333 179.333333333 635 208 629 c 10
 304 609 l 18
 334 603 346 584.333333333 340 553 c 10
 317 438 l 18
EndSplineSet
EndChar
StartChar: uni066D
Encoding: 1645 1645 337
Width: 1116
Flags: HW
LayerCount: 2
Fore
SplineSet
87 759 m 1
 446 759 l 1
 558 1100 l 1
 670 759 l 1
 1029 759 l 1
 739 547 l 1
 850 206 l 1
 558 417 l 1
 266 206 l 1
 377 547 l 1
 87 759 l 1
EndSplineSet
EndChar
StartChar: uni0670
Encoding: 1648 1648 255
Width: 0
GlyphClass: 4
Flags: HW
AnchorPoint: "TashkilAbove" 395 1640 mark 0
AnchorPoint: "MarkAbove" 389 1640 mark 0
AnchorPoint: "TashkilTashkilAbove2" 245 2520 basemark 0
AnchorPoint: "HamzaAbove" 313 1984 mark 0
AnchorPoint: "TashkilTashkilAbove" 400 1776 mark 0
AnchorPoint: "AlefAbove" 395 1640 mark 0
LayerCount: 2
Fore
SplineSet
241 2379 m 2
 247.666666667 2400.33333333 260.333333333 2399.66666667 279 2377 c 0
 409 2233.66666667 453.333333333 2051 412 1829 c 0
 409.333333333 1815.66666667 402.666666667 1808.33333333 392 1807 c 0
 379.333333333 1805 372.333333333 1812 371 1828 c 0
 353 1970 300 2095 212 2203 c 0
 200.666666667 2216.33333333 197.333333333 2231.33333333 202 2248 c 2
 241 2379 l 2
EndSplineSet
EndChar
StartChar: uni06D4
Encoding: 1748 1748 4621
Width: 1007
Flags: HW
LayerCount: 2
Fore
SplineSet
836 185 m 0
 860 184.333333333 864 175.333333333 848 158 c 10
 729 29 l 18
 711 9.66666666667 684 0 648 0 c 0
 172 0 l 0
 148 0.666666666667 144 9.66666666667 160 27 c 10
 279 156 l 18
 297 175.333333333 324 185 360 185 c 0
 836 185 l 0
EndSplineSet
EndChar
StartChar: uni06D6
Encoding: 1750 1750 4596
Width: 0
GlyphClass: 4
Flags: HW
AnchorPoint: "MarkAbove" 499 2600 mark 0
LayerCount: 2
Fore
SplineSet
212 3127 m 0
 210.67 3165.67 207.67 3221.33 203 3294 c 0
 201.67 3312.67 199 3362.33 195 3443 c 0
 193.67 3469 195.67 3486 201 3494 c 2
 225 3530 l 2
 250.33 3568 264 3565 266 3521 c 0
 276.67 3283 288.33 3149.33 301 3120 c 0
 319 3078 344.67 3058.67 378 3062 c 0
 409.33 3065.33 445.33 3090 486 3136 c 0
 499.33 3151.33 510.67 3156 520 3150 c 24
 566 3121.33 596.33 3104.67 611 3100 c 1
 615 3102 641 3125.33 689 3170 c 0
 771.67 3244 843.67 3283.67 905 3289 c 0
 941.67 3292.33 969.33 3279.33 988 3250 c 0
 1006.67 3220 1003.67 3176.67 979 3120 c 0
 940.33 3036 880.67 2987.67 800 2975 c 0
 698 2961.67 594.33 2982.67 489 3038 c 1
 461 3004.67 443 2984.67 435 2978 c 0
 389.67 2937.33 345.33 2935.67 302 2973 c 1
 272.67 2999.67 252.67 3039.33 242 3092 c 1
 232 3032 213.67 2981 187 2939 c 0
 161 2897.67 118.67 2859 60 2823 c 1
 123.33 2813 204.67 2806.67 304 2804 c 0
 439.33 2800 572 2803.33 702 2814 c 0
 734.67 2818.67 828 2827.67 982 2841 c 0
 1004.67 2843 1009.67 2834.33 997 2815 c 2
 951 2746 l 2
 943.67 2734.67 935 2728 925 2726 c 0
 845.67 2714 701 2704.33 491 2697 c 0
 299 2690.33 154 2694.33 56 2709 c 0
 25.33 2713.67 7.33 2728 2 2752 c 1
 -4 2789.33 3.67 2825.67 25 2861 c 0
 48.33 2899.67 73 2928.33 99 2947 c 0
 176.33 3001.67 214 3061.67 212 3127 c 0
903 3162 m 0
 853 3215.33 768 3192 648 3092 c 1
 726.67 3074.67 815 3074 913 3090 c 1
 920.33 3122.67 917 3146.67 903 3162 c 0
EndSplineSet
EndChar
StartChar: uni06D7
Encoding: 1751 1751 4599
Width: 0
GlyphClass: 4
Flags: HW
AnchorPoint: "MarkAbove" 499 2600 mark 0
LayerCount: 2
Fore
SplineSet
419 3058 m 0
 493 3058.66666667 557.333333333 3086.66666667 612 3142 c 1
 610.666666667 3164 607 3179.66666667 601 3189 c 0
 591.666666667 3203 584.666666667 3204.66666667 580 3194 c 0
 561.333333333 3149.33333333 533 3126.33333333 495 3125 c 0
 434.333333333 3123 402.666666667 3159.33333333 400 3234 c 0
 398.666666667 3273.33333333 413 3317.66666667 443 3367 c 0
 491 3445 544.333333333 3447.33333333 603 3374 c 0
 645.666666667 3320.66666667 666 3256.66666667 664 3182 c 0
 662.666666667 3140 650.333333333 3100.33333333 627 3063 c 0
 578.333333333 2984.33333333 509 2945.33333333 419 2946 c 0
 321 2946 262 2994.66666667 242 3092 c 1
 232 3032 213.666666667 2981 187 2939 c 0
 161 2897.66666667 118.666666667 2859 60 2823 c 1
 123.333333333 2813 204.666666667 2806.66666667 304 2804 c 0
 462 2800 594.666666667 2803.33333333 702 2814 c 0
 812.666666667 2825.33333333 906 2834.33333333 982 2841 c 0
 1004.66666667 2843 1009.66666667 2834.33333333 997 2815 c 2
 951 2746 l 2
 943.666666667 2734.66666667 935 2728 925 2726 c 0
 845.666666667 2714 701 2704.33333333 491 2697 c 0
 299 2690.33333333 154 2694.33333333 56 2709 c 0
 25.3333333333 2713.66666667 7.33333333333 2728 2 2752 c 1
 -4 2789.33333333 3.66666666667 2825.66666667 25 2861 c 0
 48.3333333333 2899.66666667 73 2928.33333333 99 2947 c 0
 176.333333333 3001.66666667 214 3061.66666667 212 3127 c 0
 210.666666667 3165.66666667 207.666666667 3221.33333333 203 3294 c 0
 201.666666667 3312.66666667 199 3362.33333333 195 3443 c 0
 193.666666667 3469 195.666666667 3486 201 3494 c 2
 225 3530 l 2
 250.333333333 3568 264 3565 266 3521 c 0
 276.666666667 3283 288.333333333 3149.33333333 301 3120 c 0
 319.666666667 3078.66666667 359 3058 419 3058 c 0
439 3685 m 2
 441 3688.33333333 444.333333333 3689 449 3687 c 0
 475.666666667 3678.33333333 499.333333333 3665.66666667 520 3649 c 1
 562 3712 l 2
 564.666666667 3715.33333333 568 3716 572 3714 c 0
 584 3710 612 3693.66666667 656 3665 c 0
 660 3662.33333333 660.666666667 3658.66666667 658 3654 c 2
 601 3565 l 2
 598.333333333 3561 594.333333333 3561.66666667 589 3567 c 0
 585 3571 563 3585 523 3609 c 1
 478 3538 l 2
 476.666666667 3536 472.666666667 3536.66666667 466 3540 c 0
 449.333333333 3548 421.666666667 3565.33333333 383 3592 c 0
 380.333333333 3594 379.666666667 3596.33333333 381 3599 c 2
 439 3685 l 2
EndSplineSet
EndChar
StartChar: uni06D8
Encoding: 1752 1752 4608
Width: 0
GlyphClass: 4
Flags: HW
AnchorPoint: "MarkAbove" 429 2600 mark 0
LayerCount: 2
Fore
SplineSet
411 2921 m 1
 335 2785 229.333333333 2701.66666667 94 2671 c 0
 64.6666666667 2664.33333333 47.6666666667 2665.66666667 43 2675 c 0
 35 2693 45.3333333333 2709 74 2723 c 0
 203.333333333 2787 299.666666667 2866 363 2960 c 1
 391.666666667 3126 442 3208 514 3206 c 0
 594 3203.33333333 634 3128.66666667 634 2982 c 9
 599 2905 l 2
 595 2896.33333333 587.666666667 2892.33333333 577 2893 c 0
 510.333333333 2895.66666667 455 2905 411 2921 c 1
EndSplineSet
EndChar
StartChar: uni06D9
Encoding: 1753 1753 4605
Width: 0
GlyphClass: 4
Flags: HW
AnchorPoint: "MarkAbove" 389 2600 mark 0
LayerCount: 2
Fore
SplineSet
467 2997 m 1
 519 3111.67 537 3276.67 521 3492 c 0
 519 3522.67 520.33 3542 525 3550 c 0
 541.67 3580 551.5 3597.5 554.5 3602.5 c 128
 557.5 3607.5 561.33 3609.5 566 3608.5 c 128
 570.67 3607.5 573.67 3604.67 575 3600 c 0
 587 3554 598.83 3524.5 610.5 3511.5 c 128
 622.17 3498.5 622.67 3486.67 612 3476 c 2
 579 3442 l 1
 585.67 3246.67 555.33 3082.33 488 2949 c 1
 510.67 2891.67 523.33 2840.33 526 2795 c 1
 528.67 2750.33 517 2724.67 491 2718 c 0
 417.67 2699.33 337.33 2697 250 2711 c 0
 240.67 2712.33 235 2715 233 2719 c 1
 219 2753 221 2782 239 2806 c 0
 245 2814 250.33 2817.33 255 2816 c 0
 270.33 2814.67 285 2813.33 299 2812 c 0
 300 2813 l 0
 356 2844.33 401.33 2886.67 436 2940 c 1
 356.67 3107.33 258.67 3246.67 142 3358 c 1
 125 3327 l 1
 114.33 3320.33 104.67 3322 96 3332 c 1
 14 3420 l 1
 2.67 3433.33 -1.67 3448.67 1 3466 c 2
 16 3570 l 2
 17.33 3580.67 21 3586 27 3586 c 0
 43 3587.33 87.33 3544.33 160 3457 c 0
 302 3287 404.33 3133.67 467 2997 c 1
456 2894 m 1
 435.33 2863.33 412 2835 386 2809 c 0
 385 2808 l 1
 427 2807.33 457 2810.67 475 2818 c 1
 473 2840.67 466.67 2866 456 2894 c 1
EndSplineSet
EndChar
StartChar: uni06DA
Encoding: 1754 1754 4604
Width: 0
GlyphClass: 4
Flags: HW
AnchorPoint: "MarkAbove" 399 2600 mark 0
LayerCount: 2
Fore
SplineSet
369 3188 m 2
 371 3191.33 374.33 3192 379 3190 c 0
 410.33 3179.33 438 3163 462 3141 c 0
 465.33 3137.67 466 3134.33 464 3131 c 2
 407 3041 l 2
 405 3037.67 401.17 3038.33 395.5 3043 c 128
 389.83 3047.67 362.33 3065 313 3095 c 0
 309.67 3097 309 3099.33 311 3102 c 2
 369 3188 l 2
674 3571 m 2
 646 3507 l 2
 642.67 3500.33 638.33 3497 633 3497 c 0
 444.33 3471.67 312 3434.33 236 3385 c 0
 87.33 3287.67 29.33 3170.67 62 3034 c 0
 80 2958 137 2898.67 233 2856 c 0
 285 2833.33 367.5 2818.5 480.5 2811.5 c 128
 593.5 2804.5 698.33 2805.33 795 2814 c 0
 807 2815.33 814.83 2813.83 818.5 2809.5 c 128
 822.17 2805.17 822.17 2800.33 818.5 2795 c 128
 814.83 2789.67 810 2786 804 2784 c 0
 756 2770 718.33 2754.67 691 2738 c 0
 650.33 2714 625.33 2701.67 616 2701 c 0
 384 2680.33 216.67 2707.5 114 2782.5 c 128
 11.33 2857.5 -21.83 2975.17 14.5 3135.5 c 128
 50.83 3295.83 146.33 3413 301 3487 c 1
 194.33 3513 114.33 3510.33 61 3479 c 0
 56.33 3476.33 51.83 3475.5 47.5 3476.5 c 128
 43.17 3477.5 41 3480 41 3484 c 0
 41.67 3502.67 45.67 3522.33 53 3543 c 0
 67.67 3584.33 105.67 3606.67 167 3610 c 0
 197.67 3611.33 246.33 3605.5 313 3592.5 c 152
 379.67 3579.5 436 3573.33 482 3574 c 128
 528 3574.67 584.67 3580.67 652 3592 c 0
 674.67 3596 682 3589 674 3571 c 2
EndSplineSet
EndChar
StartChar: uni06DB
Encoding: 1755 1755 4601
Width: 0
GlyphClass: 4
Flags: HW
AnchorPoint: "MarkAbove" 379 2600 mark 0
LayerCount: 2
Fore
SplineSet
364 3111 m 2
 367.33 3115 372 3115.33 378 3112 c 0
 418 3089.33 452 3060 480 3024 c 0
 484 3018.67 484 3013.67 480 3009 c 2
 380 2901 l 2
 376 2897 370.83 2898.83 364.5 2906.5 c 128
 358.17 2914.17 325 2945 265 2999 c 0
 261 3002.33 260.67 3005.67 264 3009 c 2
 364 3111 l 2
507 2911 m 2
 510.33 2914.33 515 2914.67 521 2912 c 0
 561 2889.33 594.67 2860 622 2824 c 0
 626 2818.67 626 2813.67 622 2809 c 2
 522 2702 l 2
 518.67 2698 513.67 2699.67 507 2707 c 0
 506.33 2707.67 473 2738.33 407 2799 c 0
 403.67 2802.33 403.33 2805.67 406 2809 c 2
 507 2911 l 2
220 2911 m 2
 224 2915 228.33 2915.33 233 2912 c 0
 273 2889.33 307 2860 335 2824 c 0
 339 2818.67 339 2813.67 335 2809 c 2
 235 2702 l 2
 232.33 2698.67 227 2700.33 219 2707 c 0
 218.33 2707.67 185.33 2738.33 120 2799 c 0
 116.67 2802.33 116.33 2805.67 119 2809 c 2
 220 2911 l 2
EndSplineSet
EndChar
StartChar: uni06DC
Encoding: 1756 1756 4603
Width: 0
GlyphClass: 4
Flags: HW
AnchorPoint: "MarkAbove" 589 2600 mark 0
AnchorPoint: "SeenAbove" 510 2700 mark 0
LayerCount: 2
Fore
SplineSet
982 3403 m 2
 984 3411 988 3415 994 3415 c 128
 1000 3415 1005 3411.67 1009 3405 c 0
 1019.67 3387.67 1025 3361 1025 3325 c 0
 1025 3267 1011 3215.67 983 3171 c 0
 975.67 3159 966 3151.67 954 3149 c 0
 917.33 3141.67 874.67 3152.67 826 3182 c 1
 790.67 3118.67 739.67 3091.67 673 3101 c 1
 669 3033 658.67 2974.33 642 2925 c 128
 625.33 2875.67 596.33 2834.67 555 2802 c 24
 464.33 2731.33 364.33 2697.67 255 2701 c 0
 120.33 2704.33 37.33 2760.67 6 2870 c 0
 -2.67 2900.67 -1.17 2944.67 10.5 3002 c 128
 22.17 3059.33 46 3121.67 82 3189 c 0
 84.67 3194.33 88.5 3197.17 93.5 3197.5 c 128
 98.5 3197.83 102 3196 104 3192 c 128
 106 3188 106 3183.67 104 3179 c 0
 54.67 3083 34.67 3018.67 44 2986 c 0
 72.67 2883.33 147 2830.33 267 2827 c 0
 431 2823 548 2875.67 618 2985 c 1
 622 3045.67 606.33 3114 571 3190 c 0
 567 3198 566 3204.67 568 3210 c 0
 584.67 3246 598.67 3272.67 610 3290 c 0
 613.33 3294.67 617 3295.17 621 3291.5 c 128
 625 3287.83 633.5 3275 646.5 3253 c 128
 659.5 3231 669.33 3219.33 676 3218 c 0
 716.67 3209.33 757.33 3221.67 798 3255 c 0
 814 3268.33 829 3304.33 843 3363 c 0
 844.33 3369.67 847.33 3374 852 3376 c 128
 856.67 3378 861 3377.67 865 3375 c 0
 873 3369.67 873.33 3347 866 3307 c 1
 897.33 3283.67 932.33 3274 971 3278 c 1
 971.67 3290 969.83 3298.5 965.5 3303.5 c 128
 961.17 3308.5 959.67 3313 961 3317 c 2
 982 3403 l 2
EndSplineSet
EndChar
StartChar: uni06DD
Encoding: 1757 1757 4558
Width: 2620
Flags: HW
LayerCount: 2
Fore
SplineSet
2006 988 m 1
 2011.33 976.67 2011.33 957.67 2006 931 c 128
 2000.67 904.33 1982.33 884.67 1951 872 c 1
 1907.67 858.67 1867 865.33 1829 892 c 1
 1812.33 904.67 1810.33 913.33 1823 918 c 24
 1849.67 927.33 1863.67 940.67 1865 958 c 1
 1863.67 984 1845.67 1007.33 1811 1028 c 1
 1618.33 1044 1475 1009.67 1381 925 c 1
 1406.33 889 1402 862.33 1368 845 c 1
 1348.67 839 1334.5 840.67 1325.5 850 c 128
 1316.5 859.33 1311.33 869 1310 879 c 1
 1308.67 869 1303.5 859.33 1294.5 850 c 128
 1285.5 840.67 1271.33 839 1252 845 c 1
 1218 862.33 1213.67 889 1239 925 c 1
 1145 1009.67 1001.33 1044 808 1028 c 1
 773.33 1007.33 755.33 984 754 958 c 1
 755.33 940.67 769.33 927.33 796 918 c 24
 808.67 913.33 806.67 904.67 790 892 c 1
 752 865.33 711.33 858.67 668 872 c 1
 636.67 884.67 618.33 904.33 613 931 c 128
 607.67 957.67 607.67 976.67 613 988 c 1
 537 961.33 464.33 922.33 395 871 c 1
 229 745.67 146 568.67 146 340 c 128
 146 111.33 229 -66 395 -192 c 1
 464.33 -242.67 537 -281.33 613 -308 c 1
 607.67 -297.33 607.67 -278.33 613 -251 c 128
 618.33 -223.67 636.67 -204 668 -192 c 1
 711.33 -179.33 752 -186.33 790 -213 c 1
 805.33 -225 804 -234 786 -240 c 1
 766 -244.67 755.33 -257.33 754 -278 c 1
 756 -304.67 774 -328.33 808 -349 c 1
 1002 -363.67 1145.67 -329 1239 -245 c 1
 1213.67 -209 1218 -182.33 1252 -165 c 1
 1271.33 -159 1285.5 -160.67 1294.5 -170 c 128
 1303.5 -179.33 1308.67 -189 1310 -199 c 1
 1311.33 -189 1316.5 -179.33 1325.5 -170 c 128
 1334.5 -160.67 1348.67 -159 1368 -165 c 1
 1402 -182.33 1406.33 -209 1381 -245 c 1
 1474.33 -329 1618 -363.67 1812 -349 c 1
 1846 -328.33 1864 -304.67 1866 -278 c 1
 1864.67 -257.33 1854 -244.67 1834 -240 c 1
 1816 -234 1814.67 -225 1830 -213 c 1
 1868 -186.33 1908.67 -179.33 1952 -192 c 1
 1983.33 -204 2001.67 -223.67 2007 -251 c 128
 2012.33 -278.33 2012.33 -297.33 2007 -308 c 1
 2083 -281.33 2155.67 -242.67 2225 -192 c 1
 2391 -66 2474 111.33 2474 340 c 128
 2474 568.67 2391 745.67 2225 871 c 1
 2155.67 922.33 2082.67 961.33 2006 988 c 1
1280 -252 m 0
 1181.33 -324 1132.67 -397.67 1134 -473 c 1
 1136.67 -539.67 1195.33 -616 1310 -702 c 1
 1424.67 -616 1483.33 -539.67 1486 -473 c 1
 1487.33 -397.67 1438.67 -324 1340 -252 c 0
 1322.67 -239.33 1312.67 -226 1310 -212 c 1
 1307.33 -226 1297.33 -239.33 1280 -252 c 0
1709 -539 m 0
 1707.67 -520.33 1714.33 -504 1729 -490 c 0
 1742.33 -477.33 1758.67 -470.67 1778 -470 c 0
 1793.33 -469.33 1809.67 -476 1827 -490 c 0
 1839.67 -500.67 1846.33 -517 1847 -539 c 256
 1847 -558.33 1840.33 -574.67 1827 -588 c 0
 1814.33 -600.67 1798 -607.33 1778 -608 c 0
 1758.67 -608.67 1742.33 -602 1729 -588 c 0
 1717 -576 1710.33 -559.67 1709 -539 c 0
772 -539 m 0
 770.67 -520.33 777.33 -504 792 -490 c 0
 805.33 -477.33 821.67 -470.67 841 -470 c 0
 856.33 -469.33 872.67 -476 890 -490 c 0
 902.67 -500.67 909.33 -517 910 -539 c 256
 910 -558.33 903.33 -574.67 890 -588 c 0
 877.33 -600.67 861 -607.33 841 -608 c 0
 821.67 -608.67 805.33 -602 792 -588 c 0
 780 -576 773.33 -559.67 772 -539 c 0
1709 1217 m 0
 1707.67 1235.67 1714.33 1252 1729 1266 c 0
 1742.33 1278.67 1758.67 1285.33 1778 1286 c 0
 1793.33 1286.67 1809.67 1280 1827 1266 c 0
 1839.67 1255.33 1846.33 1239 1847 1217 c 256
 1847 1197.67 1840.33 1181.33 1827 1168 c 0
 1814.33 1155.33 1798 1148.67 1778 1148 c 0
 1758.67 1147.33 1742.33 1154 1729 1168 c 0
 1717 1180 1710.33 1196.33 1709 1217 c 0
772 1217 m 0
 770.67 1235.67 777.33 1252 792 1266 c 0
 805.33 1278.67 821.67 1285.33 841 1286 c 0
 856.33 1286.67 872.67 1280 890 1266 c 0
 902.67 1255.33 909.33 1239 910 1217 c 256
 910 1197.67 903.33 1181.33 890 1168 c 0
 877.33 1155.33 861 1148.67 841 1148 c 0
 821.67 1147.33 805.33 1154 792 1168 c 0
 780 1180 773.33 1196.33 772 1217 c 0
1310 -764 m 1
 1300.67 -755.33 1256 -722.67 1176 -666 c 128
 1096 -609.33 1047.5 -559.33 1030.5 -516 c 128
 1013.5 -472.67 1014.33 -432.33 1033 -395 c 1
 982.33 -401 933.33 -404 886 -404 c 0
 688 -402 514 -345 364 -233 c 0
 181.33 -96.33 90 94.5 90 339.5 c 128
 90 584.5 181.33 775.67 364 913 c 1
 514.67 1024.33 688.67 1081 886 1083 c 0
 932.67 1083 981.67 1080 1033 1074 c 1
 1014.33 1112 1013.33 1152.67 1030 1196 c 128
 1046.67 1239.33 1095 1289.33 1175 1346 c 128
 1255 1402.67 1300 1435.33 1310 1444 c 1
 1320 1435.33 1365 1402.67 1445 1346 c 128
 1525 1289.33 1573.33 1239.33 1590 1196 c 128
 1606.67 1152.67 1605.67 1112 1587 1074 c 1
 1638.33 1080 1687.33 1083 1734 1083 c 0
 1931.33 1081 2105.33 1024.33 2256 913 c 1
 2438.67 775.67 2530 584.5 2530 339.5 c 128
 2530 94.5 2438.67 -96.33 2256 -233 c 0
 2106 -345 1932 -402 1734 -404 c 0
 1686.67 -404 1637.67 -401 1587 -395 c 1
 1605.67 -432.33 1606.5 -472.67 1589.5 -516 c 128
 1572.5 -559.33 1524 -609.33 1444 -666 c 128
 1364 -722.67 1319.33 -755.33 1310 -764 c 1
1310 892 m 1
 1312.67 906 1322.67 919.33 1340 932 c 0
 1437.33 1004.67 1486 1078.33 1486 1153 c 1
 1483.33 1221.67 1424.67 1298 1310 1382 c 1
 1195.33 1298 1136.67 1221.67 1134 1153 c 1
 1133.33 1077 1182 1003.33 1280 932 c 0
 1297.33 919.33 1307.33 906 1310 892 c 1
EndSplineSet
EndChar
StartChar: uni06DE
Encoding: 1758 1758 4590
Width: 1336
Flags: HW
LayerCount: 2
Fore
SplineSet
947 720 m 2
 994.33 778 1037.33 787.67 1076 749 c 0
 1115.33 709.67 1106 666.33 1048 619 c 2
 751 374 l 1
 1134 411 l 2
 1208.67 418.33 1246 394.67 1246 340 c 0
 1246 284.67 1208.67 260.67 1134 268 c 2
 752 305 l 1
 1048 61 l 2
 1106 13.67 1115.67 -29.67 1077 -69 c 0
 1037.67 -108.33 994.33 -98.67 947 -40 c 2
 702 257 l 1
 739 -126 l 2
 746.33 -200.67 722.67 -238 668 -238 c 0
 612.67 -238 588.67 -200.67 596 -126 c 2
 633 256 l 1
 389 -41 l 2
 341.67 -99 298.33 -108.33 259 -69 c 0
 220.33 -30.33 230 13 288 61 c 2
 585 305 l 1
 202 268 l 2
 127.33 260.67 90 284.67 90 340 c 0
 90 394.67 127.33 418.33 202 411 c 2
 585 374 l 1
 288 619 l 2
 230 666.33 220.67 709.67 260 749 c 0
 298.67 787.67 341.67 778 389 720 c 2
 633 424 l 1
 596 806 l 2
 588.67 880.67 612.67 918 668 918 c 0
 722.67 918 746.33 880.67 739 806 c 2
 702 422 l 1
 947 720 l 2
EndSplineSet
EndChar
StartChar: uni06DF
Encoding: 1759 1759 4582
Width: 0
GlyphClass: 4
Flags: HW
AnchorPoint: "MarkAbove" 368 1640 mark 0
AnchorPoint: "TashkilAbove" 372 1640 mark 0
LayerCount: 2
Fore
SplineSet
246.75 1976.84960938 m 0
 297.016927083 2067.84960938 363.317057292 2083.88313802 445.650390625 2024.95019531 c 0
 506.317057292 1980.75032552 534.916992187 1931.78352864 531.450195312 1878.04980469 c 0
 526.250325521 1810.45019531 505.016927083 1759.31705729 467.75 1724.65039062 c 0
 444.350260417 1702.11653646 402.317057292 1692.58300782 341.650390625 1696.04980469 c 0
 236.783203125 1699.51660156 194.749674479 1763.6500651 215.549804688 1888.45019531 c 0
 221.616861979 1921.38313802 232.016927083 1950.84960938 246.75 1976.84960938 c 0
460.450195312 1836.45019531 m 0
 485.017150269 1841.76171322 481.550353395 1860.82844499 450.049804688 1893.65039062 c 0
 416.424331645 1927.35306438 382.45786029 1944.9862024 348.150390625 1946.54980469 c 0
 294.963705062 1947.41634115 266.297038396 1926.74967448 262.150390625 1884.54980469 c 0
 260.327061182 1865.40929602 267.260329411 1852.40929602 282.950195312 1845.54980469 c 0
 332.913157814 1824.70132837 392.079824481 1821.66812524 460.450195312 1836.45019531 c 0
EndSplineSet
EndChar
StartChar: uni06E0
Encoding: 1760 1760 4583
Width: 0
GlyphClass: 4
Flags: HW
AnchorPoint: "MarkAbove" 368 1640 mark 0
AnchorPoint: "TashkilAbove" 372 1640 mark 0
LayerCount: 2
Fore
SplineSet
442 1993 m 0
 442 2073.67 438 2128.33 430 2157 c 256
 420.67 2193.67 398.67 2212 364 2212 c 0
 333.33 2211.33 312 2193 300 2157 c 256
 292 2131.67 288 2077 288 1993 c 0
 288 1911 292 1855.67 300 1827 c 256
 310.67 1791 332 1773 364 1773 c 0
 398.67 1772.33 420.67 1790.33 430 1827 c 256
 438 1855.67 442 1911 442 1993 c 0
207 1993 m 0
 207 2071.67 223.67 2134 257 2180 c 256
 290.33 2226.67 326 2250 364 2250 c 0
 404 2250 440.67 2226.67 474 2180 c 256
 507.33 2133.33 524 2071 524 1993 c 0
 524 1913.67 507.33 1850.67 474 1804 c 256
 440.67 1757.33 404 1734 364 1734 c 0
 326 1734 290.33 1757.33 257 1804 c 256
 223.67 1850.67 207 1913.67 207 1993 c 0
EndSplineSet
EndChar
StartChar: uni06E1
Encoding: 1761 1761 4552
Width: 0
GlyphClass: 4
Flags: HW
AnchorPoint: "TashkilTashkilAbove" 366 2190 basemark 0
AnchorPoint: "MarkAbove" 368 1640 mark 0
AnchorPoint: "TashkilAbove" 372 1640 mark 0
AnchorPoint: "TashkilAboveDot" 372 1640 mark 0
LayerCount: 2
Fore
SplineSet
533 2038 m 2
 564.33 2030 573 2007.67 559 1971 c 0
 551 1949.67 538.33 1930.33 521 1913 c 0
 472.33 1864.33 434.67 1829.33 408 1808 c 0
 386.67 1790 362.67 1778.67 336 1774 c 0
 291.33 1767.33 238.67 1771.33 178 1786 c 0
 166.67 1788.67 161.67 1796 163 1808 c 1
 165.67 1816.67 171 1821.33 179 1822 c 0
 285 1830.67 371.67 1861.67 439 1915 c 1
 397 1933 359 1942.67 325 1944 c 0
 288.33 1945.33 253.33 1938.33 220 1923 c 0
 209.33 1918.33 201.33 1919.67 196 1927 c 0
 187.33 1939 187 1949.67 195 1959 c 0
 228.33 2000.33 258 2031 284 2051 c 0
 315.33 2075.67 356.33 2081.67 407 2069 c 2
 533 2038 l 2
EndSplineSet
EndChar
StartChar: uni06E2
Encoding: 1762 1762 4592
Width: 0
GlyphClass: 4
Flags: HW
AnchorPoint: "MarkAbove" 318 1640 mark 0
AnchorPoint: "TashkilTashkilAbove2" 450 2150 mark 0
AnchorPoint: "TashkilTashkilAbove" 450 2150 mark 0
AnchorPoint: "TashkilAbove" 320 1640 mark 0
AnchorPoint: "TashkilAboveDot" 320 1640 mark 0
LayerCount: 2
Fore
SplineSet
171 2158 m 0
 141 2134 132 2138.66666667 144 2172 c 0
 159.333333333 2216 180.666666667 2252.33333333 208 2281 c 128
 235.333333333 2309.66666667 272.666666667 2310.33333333 320 2283 c 0
 356 2261.66666667 384.666666667 2231.33333333 406 2192 c 0
 412 2181.33333333 414 2169.66666667 412 2157 c 2
 401 2089 l 2
 398.333333333 2074.33333333 387.333333333 2065.66666667 368 2063 c 0
 214.666666667 2042.33333333 131.333333333 2005.66666667 118 1953 c 1
 174.666666667 1799.66666667 205.333333333 1689.33333333 210 1622 c 0
 212 1595.33333333 206.666666667 1581 194 1579 c 0
 180.666666667 1577 171.333333333 1587.66666667 166 1611 c 0
 158 1645 140.666666667 1698.33333333 114 1771 c 0
 86 1845.66666667 74 1910 78 1964 c 1
 86.6666666667 2064.66666667 151.666666667 2128.66666667 273 2156 c 1
 244.333333333 2189.33333333 210.333333333 2190 171 2158 c 0
EndSplineSet
EndChar
StartChar: uni06E4
Encoding: 1764 1764 4591
Width: 0
GlyphClass: 4
Flags: HW
AnchorPoint: "AlefAbove" 0 1300 mark 0
AnchorPoint: "TashkilTashkilAbove" 0 1658 mark 0
AnchorPoint: "MarkAbove" 0 1600 mark 0
AnchorPoint: "TashkilTashkilAbove2" 0 1658 mark 0
AnchorPoint: "TashkilAbove" 0 1658 mark 0
LayerCount: 2
Fore
SplineSet
321 1841 m 0
 341 1846.33333333 354.166666667 1840.5 360.5 1823.5 c 128
 366.833333333 1806.5 362.333333333 1792.66666667 347 1782 c 0
 229.666666667 1704.66666667 39 1670 -225 1678 c 1
 -234.333333333 1656 -244 1639.66666667 -254 1629 c 128
 -264 1618.33333333 -272.333333333 1616.33333333 -279 1623 c 2
 -355 1701 l 1
 -369.666666667 1715 -352.333333333 1750 -303 1806 c 0
 -293.666666667 1816 -278.666666667 1819.33333333 -258 1816 c 0
 -64 1784.66666667 129 1793 321 1841 c 0
EndSplineSet
EndChar
StartChar: uni06E5
Encoding: 1765 1765 4594
Width: 682
Flags: HW
AnchorPoint: "TashkilAbove" 400 855 basechar 0
LayerCount: 2
Fore
SplineSet
509 339 m 1
 493.67 374.33 477 394.33 459 399 c 0
 441.67 403 429 399 421 387 c 24
 414.33 377 417 366.67 429 356 c 0
 442.33 344 469 338.33 509 339 c 1
516 210 m 1
 493.33 206 464 206.67 428 212 c 0
 360 223.33 337.33 274.33 360 365 c 0
 371.33 411.67 393.33 456.33 426 499 c 0
 441.33 519 459 529 479 529 c 0
 502.33 529 523.33 517.33 542 494 c 0
 594 429.33 606 331.33 578 200 c 0
 560 114.67 522.33 45 465 -9 c 0
 429.67 -41.67 393.33 -61.33 356 -68 c 0
 266.67 -84 185.33 -71 112 -29 c 0
 93.33 -18.33 86.67 -9 92 -1 c 256
 97.33 7 109.33 10.67 128 10 c 0
 204.67 7.33 275.67 20.33 341 49 c 0
 423.67 84.33 482 138 516 210 c 1
EndSplineSet
EndChar
StartChar: uni06E6
Encoding: 1766 1766 4595
Width: 834
Flags: HW
AnchorPoint: "TashkilAbove" 419 855 basechar 0
LayerCount: 2
Fore
SplineSet
395 449 m 0
 418.333333333 503 447.666666667 530 483 530 c 0
 528.333333333 530 557.666666667 502.666666667 571 448 c 0
 580.333333333 409.333333333 584 361.333333333 582 304 c 0
 581.333333333 285.333333333 575.833333333 276 565.5 276 c 128
 555.166666667 276 548.666666667 284.333333333 546 301 c 0
 536.666666667 370.333333333 511.666666667 405.333333333 471 406 c 0
 442.333333333 406 414 379.333333333 386 326 c 0
 348 254 270.333333333 190 153 134 c 0
 139 127.333333333 134.333333333 122.333333333 139 119 c 1
 295 84.3333333333 482.333333333 86.6666666667 701 126 c 0
 753 136 761.666666667 124.333333333 727 91 c 0
 725.666666667 90.3333333333 709.666666667 78 679 54 c 128
 648.333333333 30 621.333333333 16.3333333333 598 13 c 0
 522.666666667 0.333333333333 441.166666667 -5.33333333333 353.5 -4 c 128
 265.833333333 -2.66666666667 205 3 171 13 c 1
 98.3333333333 36.3333333333 79.3333333333 80.3333333333 114 145 c 0
 142.666666667 197.666666667 172.333333333 232.666666667 203 250 c 0
 297 305.333333333 361 371.666666667 395 449 c 0
EndSplineSet
EndChar
StartChar: uni06E8
Encoding: 1768 1768 4606
Width: 0
GlyphClass: 4
Flags: HW
AnchorPoint: "TashkilTashkilAbove" 260 2558 basemark 0
AnchorPoint: "MarkAbove" 288 1640 mark 0
AnchorPoint: "NoonAbove" 290 1640 mark 0
LayerCount: 2
Fore
SplineSet
264 2469 m 2
 266 2472.33 269.33 2473.33 274 2472 c 0
 305.33 2461.33 333.33 2445 358 2423 c 0
 361.33 2419.67 362 2416 360 2412 c 2
 303 2323 l 2
 301 2319.67 297.17 2320.17 291.5 2324.5 c 128
 285.83 2328.83 258 2346 208 2376 c 0
 204.67 2378 204 2380.33 206 2383 c 2
 264 2469 l 2
484 2291 m 1
 512 2239.67 534.67 2177.5 552 2104.5 c 128
 569.33 2031.5 572.67 1960.67 562 1892 c 0
 556 1855.33 544.33 1823.33 527 1796 c 0
 481 1724 401 1682.33 287 1671 c 0
 205 1663 142.5 1679 99.5 1719 c 128
 56.5 1759 37 1814.33 41 1885 c 128
 45 1955.67 69.33 2022 114 2084 c 0
 120 2092.67 125.67 2095 131 2091 c 128
 136.33 2087 136 2079.33 130 2068 c 0
 81.33 1986 72 1919.33 102 1868 c 128
 132 1816.67 191.33 1791 280 1791 c 1
 383.33 1792.33 466.67 1827 530 1895 c 0
 531.33 1896.33 532 1899.67 532 1905 c 0
 532.67 1941.67 521.5 1991 498.5 2053 c 128
 475.5 2115 454.33 2159.67 435 2187 c 0
 429.67 2195 428.33 2201.67 431 2207 c 2
 467 2295 l 2
 470.33 2305.67 476 2304.33 484 2291 c 1
EndSplineSet
EndChar
StartChar: uni06E9
Encoding: 1769 1769 4616
Width: 1376
Flags: HW
LayerCount: 2
Fore
SplineSet
901.5 856.5 m 128
 860.5 873.5 833.333333333 852 820 792 c 2
 759 533 l 2
 757 525 757.833333333 520.166666667 761.5 518.5 c 128
 765.166666667 516.833333333 769.333333333 519.333333333 774 526 c 2
 915 752 l 2
 947 804.666666667 942.5 839.5 901.5 856.5 c 128
1204.5 126.5 m 128
 1221.5 167.5 1200 194.666666667 1140 208 c 2
 881 269 l 2
 873 271 868.166666667 270.166666667 866.5 266.5 c 128
 864.833333333 262.833333333 867.333333333 258.666666667 874 254 c 2
 1100 113 l 2
 1152.66666667 81 1187.5 85.5 1204.5 126.5 c 128
474.5 -176.5 m 128
 515.5 -193.5 543 -172 557 -112 c 2
 617 147 l 2
 619 155 618 159.833333333 614 161.5 c 128
 610 163.166666667 606 160.666666667 602 154 c 2
 462 -73 l 2
 429.333333333 -125 433.5 -159.5 474.5 -176.5 c 128
171.5 553.5 m 128
 154.5 512.5 176 485 236 471 c 2
 495 411 l 2
 503 409 507.833333333 410 509.5 414 c 128
 511.166666667 418 508.666666667 422 502 426 c 2
 275 566 l 2
 223 598.666666667 188.5 594.5 171.5 553.5 c 128
1140 471 m 2
 1200 485 1221.5 512.5 1204.5 553.5 c 128
 1187.5 594.5 1153 598.666666667 1101 566 c 2
 874 426 l 2
 867.333333333 421.333333333 864.666666667 417.166666667 866 413.5 c 128
 867.333333333 409.833333333 872 409 880 411 c 2
 1140 471 l 2
819 -112 m 2
 833 -172 860.5 -193.5 901.5 -176.5 c 128
 942.5 -159.5 946.666666667 -125 914 -73 c 2
 774 154 l 2
 769.333333333 160.666666667 765.166666667 163.333333333 761.5 162 c 128
 757.833333333 160.666666667 757 156 759 148 c 2
 819 -112 l 2
236 208 m 2
 176.666666667 194 155.5 166.5 172.5 125.5 c 128
 189.5 84.5 224 80.3333333333 276 113 c 2
 502 254 l 2
 508.666666667 258 511.166666667 262 509.5 266 c 128
 507.833333333 270 503.333333333 271 496 269 c 2
 236 208 l 2
556 792 m 2
 542 851.333333333 514.5 872.5 473.5 855.5 c 128
 432.5 838.5 428.333333333 804 461 752 c 2
 602 526 l 2
 606 519.333333333 610 516.833333333 614 518.5 c 128
 618 520.166666667 619 524.666666667 617 532 c 2
 556 792 l 2
1083 735 m 128
 1051.66666667 766.333333333 1018.33333333 757 983 707 c 2
 827 491 l 2
 822.333333333 484.333333333 821.5 479.5 824.5 476.5 c 128
 827.5 473.5 832.333333333 474.333333333 839 479 c 2
 1056 634 l 2
 1105.33333333 670 1114.33333333 703.666666667 1083 735 c 128
1083 -55 m 128
 1114.33333333 -23.6666666667 1105 9.66666666667 1055 45 c 2
 839 201 l 2
 832.333333333 205.666666667 827.5 206.5 824.5 203.5 c 128
 821.5 200.5 822.333333333 195.666666667 827 189 c 2
 982 -28 l 2
 1018 -77.3333333333 1051.66666667 -86.3333333333 1083 -55 c 128
293 -55 m 128
 324.333333333 -86.3333333333 358 -77.3333333333 394 -28 c 2
 549 189 l 2
 553.666666667 195.666666667 554.5 200.5 551.5 203.5 c 128
 548.5 206.5 543.666666667 205.666666667 537 201 c 2
 321 45 l 2
 271 9.66666666667 261.666666667 -23.6666666667 293 -55 c 128
293 735 m 128
 261.666666667 703.666666667 270.666666667 670 320 634 c 2
 537 479 l 2
 543.666666667 474.333333333 548.5 473.5 551.5 476.5 c 128
 554.5 479.5 553.666666667 484.333333333 549 491 c 2
 393 707 l 2
 357.666666667 757 324.333333333 766.333333333 293 735 c 128
1156 288 m 2
 1216 278 1246 295.166666667 1246 339.5 c 131
 1246 383.833333333 1216 401 1156 391 c 2
 893 348 l 2
 885 346.666666667 881 344 881 340 c 131
 881 336 885 333.333333333 893 332 c 2
 1156 288 l 2
636 -128 m 2
 626 -188 643.166666667 -218 687.5 -218 c 131
 731.833333333 -218 749 -188 739 -128 c 2
 696 135 l 2
 694.666666667 143 692 147 688 147 c 131
 684 147 681.333333333 143 680 135 c 2
 636 -128 l 2
220 391 m 2
 160 401 130 383.833333333 130 339.5 c 131
 130 295.166666667 160 278 220 288 c 2
 483 332 l 2
 491 333.333333333 495 336 495 340 c 131
 495 344 491 346.666666667 483 348 c 2
 220 391 l 2
739 808 m 2
 749 868 731.833333333 898 687.5 898 c 131
 643.166666667 898 626 868 636 808 c 2
 680 545 l 2
 681.333333333 537 684 533 688 533 c 131
 692 533 694.666666667 537 696 545 c 2
 739 808 l 2
688 976 m 1
 700 1044 721.666666667 1104.33333333 753 1157 c 1
 724.333333333 1184.33333333 702.666666667 1216 688 1252 c 1
 673.333333333 1216 651.333333333 1184.33333333 622 1157 c 1
 654 1104.33333333 676 1044 688 976 c 1
713 1482 m 0
 713 1403.33333333 714.666666667 1354 718 1334 c 0
 727.333333333 1276.66666667 749 1232 783 1200 c 1
 797.666666667 1216 805.333333333 1224.33333333 806 1225 c 0
 865.333333333 1285 926.666666667 1315 990 1315 c 0
 1016.66666667 1315 1038 1309.66666667 1054 1299 c 0
 1084 1279 1099 1251.33333333 1099 1216 c 0
 1099 1197.33333333 1094 1180 1084 1164 c 0
 1064.66666667 1133.33333333 1036.66666667 1118 1000 1118 c 0
 982 1118 964.666666667 1123 948 1133 c 0
 917.333333333 1151.66666667 902 1179.33333333 902 1216 c 0
 906 1234 894 1233 866 1213 c 0
 790.666666667 1149.66666667 746 1055 732 929 c 1
 770 911 785.333333333 866 778 794 c 1
 808 892 857.666666667 923 927 887 c 0
 981.666666667 858.333333333 987.666666667 804.333333333 945 725 c 1
 1010.33333333 805 1068.33333333 814.333333333 1119 753 c 0
 1157.66666667 705.666666667 1142.33333333 653.666666667 1073 597 c 1
 1164.33333333 645.666666667 1221.66666667 632 1245 556 c 0
 1262.33333333 498 1228 456 1142 430 c 1
 1238 439.333333333 1286 409.333333333 1286 340 c 0
 1286 270 1239.66666667 239.666666667 1147 249 c 1
 1242.33333333 219.666666667 1271.66666667 170 1235 100 c 0
 1206.33333333 46.6666666667 1152.33333333 41 1073 83 c 1
 1153 17 1162.33333333 -41.3333333333 1101 -92 c 0
 1054.33333333 -130 1002.33333333 -114.333333333 945 -45 c 1
 993.666666667 -136.333333333 980 -193.666666667 904 -217 c 0
 846 -234.333333333 804 -200 778 -114 c 1
 785.333333333 -186 770 -231 732 -249 c 1
 746 -375 790.666666667 -469.666666667 866 -533 c 0
 894 -553 906 -554 902 -536 c 0
 902 -499.333333333 917.333333333 -471.666666667 948 -453 c 0
 964.666666667 -443 982 -438 1000 -438 c 0
 1036.66666667 -438 1064.66666667 -453.333333333 1084 -484 c 0
 1094 -500 1099 -517.333333333 1099 -536 c 0
 1099 -571.333333333 1084 -599 1054 -619 c 0
 1038 -629.666666667 1016.66666667 -635 990 -635 c 0
 926.666666667 -635 865.333333333 -605 806 -545 c 0
 805.333333333 -544.333333333 797.666666667 -536 783 -520 c 1
 749 -552 727.333333333 -596.666666667 718 -654 c 0
 714.666666667 -674 713 -723.333333333 713 -802 c 0
 713 -824.666666667 704.666666667 -836 688 -836 c 0
 670.666666667 -836 662 -824.666666667 662 -802 c 0
 662 -723.333333333 660.333333333 -674 657 -654 c 0
 647.666666667 -596.666666667 626 -552 592 -520 c 1
 577.333333333 -536 569.666666667 -544.333333333 569 -545 c 0
 509.666666667 -605 448.333333333 -635 385 -635 c 0
 358.333333333 -635 337 -629.666666667 321 -619 c 0
 291 -599 276 -571.333333333 276 -536 c 0
 276 -517.333333333 281 -500 291 -484 c 0
 310.333333333 -453.333333333 338.333333333 -438 375 -438 c 0
 393 -438 410.333333333 -443 427 -453 c 0
 457.666666667 -471.666666667 473 -499.333333333 473 -536 c 0
 469 -554 481 -553 509 -533 c 0
 584.333333333 -469.666666667 629 -375 643 -249 c 1
 605 -231.666666667 589.333333333 -189 596 -121 c 1
 567.333333333 -214.333333333 518.333333333 -243 449 -207 c 0
 394.333333333 -178.333333333 388 -125 430 -47 c 1
 366 -125 308.333333333 -134.333333333 257 -75 c 0
 217 -27.6666666667 231.333333333 24 300 80 c 1
 211.333333333 32.6666666667 155 47 131 123 c 0
 113.666666667 181 148 223 234 249 c 1
 138 239.666666667 90 270 90 340 c 0
 90 409.333333333 138 439.333333333 234 430 c 1
 135.333333333 460 104.666666667 510.666666667 142 582 c 0
 170 634 223.666666667 639 303 597 c 1
 223.666666667 662.333333333 214.333333333 720.333333333 275 771 c 0
 321.666666667 809.666666667 372.666666667 795.333333333 428 728 c 1
 380.666666667 816.666666667 395 873 471 897 c 0
 529 914.333333333 571 880 597 794 c 1
 589.666666667 866 605 911 643 929 c 1
 629 1055 584.333333333 1149.66666667 509 1213 c 0
 481 1233 469 1234 473 1216 c 0
 473 1179.33333333 457.666666667 1151.66666667 427 1133 c 0
 410.333333333 1123 393 1118 375 1118 c 0
 338.333333333 1118 310.333333333 1133.33333333 291 1164 c 0
 281 1180 276 1197.33333333 276 1216 c 0
 276 1251.33333333 291 1279 321 1299 c 0
 337 1309.66666667 358.333333333 1315 385 1315 c 0
 448.333333333 1315 509.666666667 1285 569 1225 c 0
 569.666666667 1224.33333333 577.333333333 1216 592 1200 c 1
 626 1232 647.666666667 1276.66666667 657 1334 c 0
 660.333333333 1354 662 1403.33333333 662 1482 c 0
 662 1504.66666667 670.666666667 1516 688 1516 c 0
 704.666666667 1516 713 1504.66666667 713 1482 c 0
688 -296 m 1
 676 -364 654 -424.333333333 622 -477 c 1
 651.333333333 -504.333333333 673.333333333 -536 688 -572 c 1
 702.666666667 -536 724.333333333 -504.333333333 753 -477 c 1
 721.666666667 -424.333333333 700 -364 688 -296 c 1
EndSplineSet
EndChar
StartChar: uni06EA
Encoding: 1770 1770 4610
Width: 0
GlyphClass: 4
Flags: HW
AnchorPoint: "MarkBelow" 520 -760 mark 0
LayerCount: 2
Fore
SplineSet
521 -1570 m 1
 691 -1278 l 1
 521 -988 l 1
 351 -1278 l 1
 521 -1570 l 1
521 -1710 m 1
 269 -1278 l 1
 521 -850 l 1
 773 -1278 l 1
 521 -1710 l 1
EndSplineSet
EndChar
StartChar: uni06EC
Encoding: 1772 1772 4607
Width: 0
GlyphClass: 4
Flags: HW
AnchorPoint: "TashkilTashkilAbove" 228 1640 mark 0
AnchorPoint: "TashkilTashkilAbove" 190 2170 basemark 0
AnchorPoint: "MarkAbove" 228 1640 mark 0
AnchorPoint: "TashkilAbove" 224 1640 mark 0
LayerCount: 2
Fore
SplineSet
384 2026 m 256
 426.666666667 1984 448 1931.66666667 448 1869 c 280
 448 1807 426 1754 382 1710 c 280
 338 1666 285 1644 223 1644 c 280
 161 1644 108 1666 64 1710 c 280
 20 1754 -2 1807 -2 1869 c 280
 -2 1931 20 1984 64 2028 c 280
 108 2072 161 2094 223 2094 c 256
 286.333333333 2094 340 2071.33333333 384 2026 c 256
EndSplineSet
EndChar
StartChar: uni06F4
Encoding: 1780 1780 285
Width: 585
Flags: HW
LayerCount: 2
Back
Fore
SplineSet
175 515 m 0
 202 473 221 438 232 410 c 0
 237 399 242 399 246 410 c 0
 286 503 343 553 419 558 c 0
 463 561 503 528 538 462 c 0
 545 448 547 439 544 434 c 0
 539 427 533 427 523 434 c 0
 481 465 446 480 420 480 c 0
 337 479 287 445 267 379 c 1
 307 345 346 327 384 325 c 0
 440 322 479 329 500 347 c 0
 513 358 522 361 528 356 c 0
 535 349 534 339 525 325 c 0
 491 271 442 243 379 238 c 0
 341 235 308 240 282 253 c 1
 308 131 312 21 292 -77 c 0
 291 -84 288 -89 282 -91 c 128
 276 -93 271 -93 267 -89 c 128
 263 -85 260 -80 260 -73 c 0
 253 95 207 244 124 372 c 0
 112 391 108 406 111 419 c 2
 136 524 l 2
 142 549 155 546 175 515 c 0
EndSplineSet
EndChar
StartChar: uni06F5
Encoding: 1781 1781 286
Width: 585
Flags: HW
LayerCount: 2
Back
Fore
SplineSet
235 526 m 0
 333 434 396 359 425 301 c 0
 464 223 481 164 476 125 c 0
 463 15 430 -45 376 -54 c 0
 336 -61 308 -51 292 -25 c 1
 261 -61 227 -78 188 -75 c 0
 120 -69 91 -14 102 91 c 0
 110 167 152 255 227 358 c 1
 220 363 212 368 204 372 c 0
 197 376 194 384 196 399 c 2
 213 520 l 2
 215 536 223 538 235 526 c 0
251 342 m 1
 210 286 183 238 168 200 c 0
 143 136 141 92 161 69 c 0
 201 24 253 32 317 94 c 0
 323 100 328 103 333 101 c 1
 337 99 340 95 341 89 c 1
 338 84 337 78 338 71 c 1
 350 63 364 60 381 62 c 0
 404 65 421 80 431 107 c 0
 435 117 433 127 427 139 c 0
 385 222 327 290 251 342 c 1
EndSplineSet
EndChar
StartChar: uni06F6
Encoding: 1782 1782 287
Width: 585
Flags: HW
LayerCount: 2
Fore
SplineSet
331 285 m 0
 347 280 361 283 373 292 c 0
 420 328 458 352 488 363 c 0
 508 370 516 365 510 348 c 2
 484 265 l 2
 477 244 465 230 448 223 c 0
 386 197 325 156 264 102 c 0
 206 51 154 -9 110 -75 c 0
 99 -91 87 -98 77 -94 c 0
 69 -91 70 -81 78 -61 c 0
 119 39 181 127 266 202 c 1
 178 234 126 271 108 314 c 0
 103 327 102 341 106 354 c 0
 118 392 138 425 164 456 c 0
 225 528 280 563 330 563 c 0
 354 563 376 552 398 529 c 0
 424 501 442 475 451 453 c 0
 454 444 453 439 448 436 c 0
 442 433 436 434 429 441 c 0
 407 464 373 476 326 477 c 0
 263 478 209 453 164 403 c 0
 159 398 159 393 164 387 c 0
 201 340 257 306 331 285 c 0
EndSplineSet
EndChar
StartChar: uni0890
Encoding: 2192 2192 6269
Width: 1650
Flags: HW
LayerCount: 2
Back
SplineSet
1591.5 934 m 1
 1650 845.5 l 1
 76.5 845.5 l 1
 0 932.5 l 1
 636 932.5 l 1
 596 999.5 576 1058 576 1108 c 0
 576 1144 585 1172.75 603 1194.25 c 128
 621 1215.75 649 1226.5 687 1226.5 c 0
 730 1226.5 770.25 1216 807.75 1195 c 128
 845.25 1174 892 1141.5 948 1097.5 c 256
 1004 1053.5 1047.5 1022.5 1078.5 1004.5 c 0
 1121.5 979.5 1167 956 1215 934 c 1
 1591.5 934 l 1
657 932.5 m 1
 1033.5 934 l 1
 1003.5 955 970.5 980 934.5 1009 c 0
 882.5 1050 841 1079.75 810 1098.25 c 128
 779 1116.75 749 1126 720 1126 c 0
 661 1126 631.5 1098 631.5 1042 c 0
 631.5 1010 640 973.5 657 932.5 c 1
EndSplineSet
Fore
SplineSet
1592 934 m 1
 1650 846 l 1
 76 846 l 1
 0 932 l 1
 636 932 l 1
 596 999 576 1058 576 1108 c 0
 576 1181 626 1225 687 1226 c 0
 804 1228 863 1165 948 1098 c 256
 1054 1015 1101 986 1215 934 c 1
 1592 934 l 1
657 932 m 1
 1034 934 l 1
 975 975 863 1067 810 1098 c 128
 740 1140 632 1142 632 1042 c 0
 632 1010 640 973 657 932 c 1
EndSplineSet
EndChar
StartChar: uni08AC
Encoding: 2220 2220 6093
Width: 1171
Flags: W
AnchorPoint: "TashkilAbove" 846 1640 basechar 0
AnchorPoint: "TashkilBelow" 726 -670 basechar 0
LayerCount: 2
Fore
SplineSet
883 560 m 1,0,1
 786 568 786 568 705 455 c 1,2,3
 682 426 682 426 727 365 c 0,4,5
 772 304 772 304 832 304 c 0,6,7
 892 304 892 304 967 382 c 1,8,9
 972 540 972 540 883 560 c 1,0,1
975 776 m 0,10,11
 987 776 987 776 995 772 c 0,12,13
 1044 742 1044 742 1058 660 c 0,14,15
 1085 503 1085 503 1023 367 c 0,16,17
 993 301 993 301 949 236 c 1,18,19
 1076 189 1076 189 1171 185 c 0,20,21
 1190 184 1190 184 1194 134 c 0,22,23
 1206 3 1206 3 1171 0 c 0,24,25
 1003 -17 1003 -17 748 118 c 1,26,27
 490 -17 490 -17 260 14 c 0,28,29
 239 17 239 17 231 -26 c 0,30,31
 224 -64 224 -64 226 -170 c 0,32,33
 229 -355 229 -355 228 -385 c 0,34,35
 227 -404 227 -404 213 -406 c 0,36,37
 199 -408 199 -408 195 -385 c 0,38,39
 156 -168 156 -168 130 115 c 0,40,41
 122 205 122 205 196 194 c 0,42,43
 408 159 408 159 613 237 c 1,44,45
 598 328 598 328 637 432 c 0,46,47
 700 602 700 602 868 728 c 0,48,49
 932 776 932 776 975 776 c 0,10,11
EndSplineSet
Refer: 195 -1 N 1 0 0 1 777 -440 2
EndChar
StartChar: uni08E4
Encoding: 2276 2276 6068
Width: 0
GlyphClass: 4
Flags: HW
AnchorPoint: "TashkilAboveDot" 556 1640 mark 0
AnchorPoint: "TashkilAbove" 556 1640 mark 0
AnchorPoint: "TashkilTashkilAbove" 297 1955 basemark 0
AnchorPoint: "MarkAbove" 549 1640 mark 0
LayerCount: 2
Back
SplineSet
667 2132 m 0
 721 2080.66666667 742.333333333 2031.33333333 731 1984 c 0
 725 1955.33333333 707.333333333 1932.16666667 678 1914.5 c 128
 648.666666667 1896.83333333 600.333333333 1882.33333333 533 1871 c 128
 465.666666667 1859.66666667 422 1841.66666667 402 1817 c 1
 373.333333333 1776.33333333 376.666666667 1731.66666667 412 1683 c 0
 422 1669.66666667 425 1663 421 1663 c 0
 404.333333333 1663.66666667 383.666666667 1681.33333333 359 1716 c 0
 308.333333333 1786.66666667 301.333333333 1841.66666667 338 1881 c 1
 358.666666667 1906.33333333 402.833333333 1924.66666667 470.5 1936 c 128
 538.166666667 1947.33333333 586.333333333 1961.66666667 615 1979 c 0
 661 2007 677.666666667 2044 665 2090 c 0
 661 2104 652 2117.66666667 638 2131 c 128
 624 2144.33333333 618.166666667 2154.66666667 620.5 2162 c 128
 622.833333333 2169.33333333 638.333333333 2159.33333333 667 2132 c 0
653 2131 m 0
 692.807838756 2093.11284583 708.141172089 2054.44617916 699 2015 c 0
 693.124722749 1987.35733361 677.791389416 1966.02400028 653 1951 c 0
 619.639632839 1930.84405817 568.639632839 1914.84405817 500 1903 c 0
 433.810809784 1891.57877604 390.510778583 1873.57877604 370.099906398 1849 c 0
 337.412942327 1808.80145417 343.379640195 1757.80145417 388 1696 c 1024
724 2092 m 0
 758.666666667 2112.66666667 771 2105.66666667 761 2071 c 2
 741 2004 l 2
 736.333333333 1987.33333333 721.666666667 1971.33333333 697 1956 c 0
 298 1726 l 0
 274 1712.66666667 262 1719 262 1745 c 2
 263 1779 l 2
 263.666666667 1792.33333333 275.333333333 1808 298 1826 c 0
 724 2092 l 0
EndSplineSet
Fore
SplineSet
667 2132 m 0
 721 2080.67 742.33 2031.33 731 1984 c 0
 725 1955.33 707.33 1932.17 678 1914.5 c 128
 648.67 1896.83 600.33 1882.33 533 1871 c 128
 465.67 1859.67 422 1841.67 402 1817 c 1
 373.33 1776.33 376.67 1731.67 412 1683 c 0
 422 1669.67 425 1663 421 1663 c 0
 404.33 1663.67 383.67 1681.33 359 1716 c 0
 308.33 1786.67 301.33 1841.67 338 1881 c 1
 358.67 1906.33 402.83 1924.67 470.5 1936 c 128
 538.17 1947.33 586.33 1961.67 615 1979 c 0
 661 2007 677.67 2044 665 2090 c 0
 661 2104 652 2117.67 638 2131 c 128
 624 2144.33 618.17 2154.67 620.5 2162 c 128
 622.83 2169.33 638.33 2159.33 667 2132 c 0
EndSplineSet
EndChar
StartChar: uni08E5
Encoding: 2277 2277 6069
Width: 0
GlyphClass: 4
Flags: HW
AnchorPoint: "TashkilAbove" 278 801 mark 0
AnchorPoint: "TashkilAboveDot" 278 801 mark 0
AnchorPoint: "TashkilTashkilAbove" 195 1074 basemark 0
AnchorPoint: "MarkAbove" 278 801 mark 0
LayerCount: 2
Back
SplineSet
300.29296875 1081.54296875 m 1
 285.318359375 1095.21484375 273.274414062 1094.40136719 264.16015625 1079.1015625 c 1
 261.555664062 1075.52148438 263.264648438 1070.55761719 269.287109375 1064.20898438 c 128
 275.30859375 1057.86132812 289.0625 1049.47949219 310.546875 1039.0625 c 1
 313.4765625 1058.92089844 310.05859375 1073.08105469 300.29296875 1081.54296875 c 1
310.546875 1146.484375 m 0
 321.940429688 1148.11230469 331.54296875 1142.74121094 339.35546875 1130.37109375 c 0
 355.95703125 1104.65527344 355.793945312 1069.82421875 338.8671875 1025.87890625 c 1
 349.609375 1019.69433594 357.421875 1015.46191406 362.3046875 1013.18359375 c 0
 371.333007812 1009.63671875 373.286132812 1002.96386719 368.1640625 993.1640625 c 2
 356.93359375 971.6796875 l 2
 353.217773438 964.5703125 348.252929688 962.209960938 342.041015625 964.599609375 c 0
 335.693359375 967.041015625 326.66015625 971.516601562 314.94140625 978.02734375 c 1
 296.623046875 950.797851562 268.139648438 924.59375 229.4921875 899.4140625 c 0
 211.272460938 887.770507812 195.484375 888.583984375 182.12890625 901.85546875 c 0
 165.974609375 918.361328125 154.177734375 939.69140625 146.739257812 965.846679688 c 0
 142.633789062 980.283203125 145.153320312 989.225585938 154.296875 992.67578125 c 0
 165.221679688 996.918945312 172.299804688 992.428710938 175.53125 979.203125 c 0
 180.518554688 958.787109375 188.380859375 941.793945312 199.1171875 928.22265625 c 0
 202.412109375 924.057617188 206.02734375 922.842773438 209.9609375 924.577148438 c 0
 238.78125 938.5859375 265.1484375 961.28515625 289.0625 992.67578125 c 1
 270.182617188 1002.44140625 256.184570312 1011.88183594 247.0703125 1020.99609375 c 0
 230.793945312 1036.29589844 226.399414062 1052.57128906 233.88671875 1069.82421875 c 0
 253.092773438 1116.04785156 278.645507812 1141.6015625 310.546875 1146.484375 c 0
EndSplineSet
Fore
SplineSet
289 993 m 1
 270 1003 256 1012 247 1021 c 0
 231 1037 227 1053 234 1070 c 0
 254 1116 280 1141 311 1146 c 0
 322 1148 331 1142 339 1130 c 0
 356 1104 356 1070 339 1026 c 1
 350 1020 357 1015 362 1013 c 0
 371 1009 373 1002 368 993 c 2
 357 972 l 2
 353 965 348 963 342 965 c 0
 336 967 327 971 315 978 c 1
 301 959 284 941 263 922 c 0
 230 892 203 883 185 895 c 0
 173 903 168 914 169 930 c 0
 170 944 174 959 180 975 c 0
 191 1001 198 1003 202 979 c 0
 206 960 217 950 234 951 c 0
 243 951 253 956 263 964 c 0
 271 971 280 981 289 993 c 1
300 1082 m 0
 285 1096 273 1094 264 1079 c 0
 261 1075 263 1070 269 1064 c 128
 275 1058 290 1049 311 1039 c 1
 314 1059 310 1074 300 1082 c 0
EndSplineSet
EndChar
StartChar: uni08E6
Encoding: 2278 2278 6070
Width: 0
GlyphClass: 4
Flags: HW
AnchorPoint: "TashkilBelow" 534 -670 mark 0
AnchorPoint: "TashkilBelowDot" 534 -670 mark 0
AnchorPoint: "TashkilTashkilBelow" 297 -819 basemark 0
AnchorPoint: "MarkBelow" 450 -670 mark 0
LayerCount: 2
Back
SplineSet
724 -648 m 0
 758.666666667 -627.333333333 771 -634.333333333 761 -669 c 2
 741 -736 l 2
 736.333333333 -752.666666667 721.666666667 -768.666666667 697 -784 c 0
 298 -1014 l 0
 274 -1027.33333333 262 -1021 262 -995 c 2
 263 -961 l 2
 263.666666667 -947.666666667 275.333333333 -932 298 -914 c 0
 724 -648 l 0
EndSplineSet
Fore
Refer: 6068 2276 N 1 0 0 1 -9 -2763 2
EndChar
StartChar: uni08E7
Encoding: 2279 2279 6071
Width: 0
GlyphClass: 4
Flags: HW
AnchorPoint: "TashkilAbove" 529 1640 mark 0
AnchorPoint: "TashkilAboveDot" 529 1640 mark 0
AnchorPoint: "MarkAbove" 529 1640 mark 0
AnchorPoint: "TashkilTashkilAbove" 287 2170 basemark 0
LayerCount: 2
Back
SplineSet
689 2073 m 2
 733 2103 748.333333333 2097.33333333 735 2056 c 2
 714 1992 l 2
 707.333333333 1970.66666667 696 1955.33333333 680 1946 c 2
 322 1726 l 2
 293.333333333 1708.66666667 281.333333333 1715 286 1745 c 2
 292 1784 l 2
 295.333333333 1802.66666667 306.666666667 1818.66666667 326 1832 c 2
 689 2073 l 2
681 2277 m 2
 719.666666667 2301.66666667 734.333333333 2296 725 2260 c 2
 711 2208 l 2
 705 2185.33333333 690.666666667 2167.66666667 668 2155 c 2
 305 1944 l 2
 259 1917.33333333 244.666666667 1924 262 1964 c 2
 280 2003 l 2
 288 2022.33333333 298.666666667 2036 312 2044 c 2
 681 2277 l 2
EndSplineSet
Fore
Refer: 6068 2276 N 1 0 0 1 -62 205 2
Refer: 6068 2276 N 1 0 0 1 2 -42 2
EndChar
StartChar: uni08E9
Encoding: 2281 2281 6073
Width: 0
GlyphClass: 4
Flags: HW
AnchorPoint: "TashkilBelowDot" 499 -670 mark 0
AnchorPoint: "TashkilBelow" 499 -670 mark 0
AnchorPoint: "MarkBelow" 450 -670 mark 0
AnchorPoint: "TashkilTashkilBelow" 287 -889 basemark 0
LayerCount: 2
Back
SplineSet
689 -944 m 2
 733 -914 748.333333333 -919.666666667 735 -961 c 2
 714 -1025 l 2
 707.333333333 -1046.33333333 696 -1061.66666667 680 -1071 c 2
 322 -1291 l 2
 293.333333333 -1308.33333333 281.333333333 -1302 286 -1272 c 2
 292 -1233 l 2
 295.333333333 -1214.33333333 306.666666667 -1198.33333333 326 -1185 c 2
 689 -944 l 2
681 -740 m 2
 719.666666667 -715.333333333 734.333333333 -721 725 -757 c 2
 711 -809 l 2
 705 -831.666666667 690.666666667 -849.333333333 668 -862 c 2
 305 -1073 l 2
 259 -1099.66666667 244.666666667 -1093 262 -1053 c 2
 280 -1014 l 2
 288 -994.666666667 298.666666667 -981 312 -973 c 2
 681 -740 l 2
EndSplineSet
Fore
Refer: 6071 2279 N 1 0 0 1 12 -3049 2
EndChar
StartChar: uni08EA
Encoding: 2282 2282 6074
Width: 0
GlyphClass: 4
Flags: HW
AnchorPoint: "TashkilAbove" 330 1640 mark 0
AnchorPoint: "TashkilAboveDot" 330 1640 mark 0
AnchorPoint: "MarkAbove" 329 1640 mark 0
LayerCount: 2
Fore
SplineSet
278 1915 m 2
 278.67 1917.67 280.33 1919 283 1919 c 0
 308.33 1919 341.67 1900 383 1862 c 0
 386.33 1858.67 387.33 1854.67 386 1850 c 2
 322 1750 l 2
 319.33 1746 315 1746.5 309 1751.5 c 128
 303 1756.5 285.17 1767.67 255.5 1785 c 128
 225.83 1802.33 211 1811.83 211 1813.5 c 128
 211 1815.17 211.67 1816.33 213 1817 c 2
 278 1915 l 2
EndSplineSet
EndChar
StartChar: uni08EC
Encoding: 2284 2284 6076
Width: 0
GlyphClass: 4
Flags: HW
AnchorPoint: "MarkAbove" 319 1640 mark 0
AnchorPoint: "TashkilAboveDot" 320 1640 mark 0
AnchorPoint: "TashkilAbove" 320 1640 mark 0
LayerCount: 2
Back
SplineSet
540 1952.65527344 m 0
 473.865234375 1845.98404948 389.865234375 1783.98404948 288 1766.65527344 c 0
 258 1761.55175781 232 1764.74674479 210 1776.24023438 c 0
 177.415364583 1791.54166667 161.415364583 1816.34667969 162 1850.65527344 c 0
 162.567708333 1888.32063802 176.901041667 1914.59179687 205 1929.46875 c 0
 239.666666667 1947.82291667 282.333333333 1946.55175781 333 1925.65527344 c 8
 396.5625 1900.44303385 452.5625 1850.44303385 501 1775.65527344 c 0
EndSplineSet
Fore
SplineSet
556.6171875 1979.45703125 m 128
 562.387369792 1980.15885416 565.72265625 1978.12207031 566.623046875 1973.34667969 c 128
 567.524088542 1968.57063802 565.711914063 1962.53287761 561.186523438 1955.23339844 c 0
 538.023111979 1917.87141927 512.420247396 1884.84440104 484.377929688 1856.15234375 c 1
 499.066731771 1839.06770833 513.145507812 1820.12792968 526.614257812 1799.33300781 c 0
 528.875325521 1795.84147135 528.299479167 1790.49739583 524.88671875 1783.30078125 c 128
 521.473958333 1776.10481771 516.279947917 1769.28255209 509.3046875 1762.83398438 c 128
 502.328776041 1756.38541667 495.497070312 1752.09114583 488.809570312 1749.95117188 c 128
 482.122721354 1747.81054688 477.6484375 1748.48600261 475.38671875 1751.97753906 c 0
 461.619140625 1773.23600261 447.139973958 1792.57226563 431.94921875 1809.98632812 c 1
 382.624348958 1773.03515625 329.409505208 1749.70247396 272.3046875 1739.98828125 c 0
 239.483072917 1734.40429688 211.055338542 1737.81738281 187.021484375 1750.22753906 c 1
 151.743489584 1766.97363281 134.428385417 1794.33658854 135.076171875 1832.31640625 c 0
 135.248697917 1843.77734375 136.604166667 1854.54036458 139.142578125 1864.60546875 c 0
 144.581380208 1886.16080729 155.732747396 1905.76953125 172.596679688 1923.43164062 c 0
 183.990559896 1935.36458333 196.73046875 1945.05989583 210.81640625 1952.51757812 c 0
 252.602864583 1974.64127604 300.815429687 1974.4358724 355.454101562 1951.90136719 c 0
 394.383138021 1936.46061198 430.564127604 1911.90950521 463.997070312 1878.24804688 c 1
 483.359700521 1898.42057292 501.631835937 1922.36328125 518.813476562 1950.07617188 c 0
 523.338867187 1957.37565104 529.328450521 1963.921875 536.782226562 1969.71484375 c 128
 544.235351562 1975.5078125 550.847005208 1978.75520834 556.6171875 1979.45703125 c 128
409.728515625 1833.48046875 m 1
 378.990234375 1863.39778646 345.929361979 1885.37369791 310.545898438 1899.40820312 c 0
 287.132486979 1909.06445312 264.83203125 1914.17610677 243.64453125 1914.74316406 c 0
 222.791015625 1915.30110677 207.069010416 1911.9938151 196.478515625 1904.82128906 c 1
 191.684895834 1897.01985677 189.166666667 1885.08235677 188.923828125 1869.00878906 c 0
 188.404296875 1838.54003906 203.089192708 1816.28808594 232.978515625 1802.25292969 c 1
 253.156901042 1791.71126302 276.729492187 1788.73470052 303.696289062 1793.32324219 c 0
 342.549804687 1799.93261719 377.893880208 1813.31835938 409.728515625 1833.48046875 c 1
EndSplineSet
EndChar
StartChar: uni08F0
Encoding: 2288 2288 4584
Width: 0
GlyphClass: 4
Flags: HW
AnchorPoint: "TashkilTashkilAbove" 287 2200 basemark 0
AnchorPoint: "MarkAbove" 499 1640 mark 0
AnchorPoint: "TashkilAboveDot" 499 1640 mark 0
AnchorPoint: "TashkilAbove" 499 1640 mark 0
LayerCount: 2
Fore
SplineSet
689 2073 m 2
 733 2103 748.33 2097.33 735 2056 c 2
 714 1992 l 2
 707.33 1970.67 696 1955.33 680 1946 c 2
 322 1726 l 2
 293.33 1708.67 281.33 1715 286 1745 c 2
 292 1784 l 2
 295.33 1802.67 306.67 1818.67 326 1832 c 2
 689 2073 l 2
851 2377 m 2
 890.33 2401.67 905 2396 895 2360 c 2
 881 2308 l 2
 875 2286 860.67 2268.33 838 2255 c 2
 475 2044 l 2
 427.67 2016.67 413.33 2023.33 432 2064 c 2
 450 2103 l 2
 459.33 2123 470 2136.67 482 2144 c 2
 851 2377 l 2
EndSplineSet
EndChar
StartChar: uni08F4
Encoding: 2292 2292 6081
Width: 0
GlyphClass: 4
UnlinkRmOvrlpSave: 1
Flags: HW
AnchorPoint: "TashkilAboveDot" 556 1640 mark 0
AnchorPoint: "TashkilAbove" 556 1640 mark 0
AnchorPoint: "TashkilTashkilAbove" 297 1955 basemark 0
AnchorPoint: "MarkAbove" 549 1640 mark 0
LayerCount: 2
Fore
SplineSet
379 2036 m 0
 433.666666667 2136 504 2153 590 2087 c 0
 643.474923548 2045.04947917 673.474923548 1983.3828125 680 1902 c 0
 687.374348959 1808.99088541 665.041015625 1744.65755208 613 1709 c 0
 577 1684.33333333 532.666666667 1674 480 1678 c 0
 361.541181361 1685.43619792 317.207848027 1773.76953125 347 1943 c 0
 353 1977 363.666666667 2008 379 2036 c 0
597 1821 m 0
 653.632725305 1842.72409495 652.966058638 1888.72409495 595 1959 c 0
 570.254936129 1989 534.235336827 2004.16666667 486.941202096 2004.5 c 128
 439.647067365 2004.83333333 409.333333333 1982.66666667 396 1938 c 0
 385.706318663 1903.51616752 384.067972309 1875.51616752 391.084960938 1854 c 0
 397.061095153 1834.74609375 413.366108174 1820.74609375 440 1812 c 0
 487.335903901 1796.00814057 539.669237234 1799.00814057 597 1821 c 0
764 2102 m 1
 799.090293842 2122.91915103 811.423627175 2115.91915103 801 2081 c 2
 781 2014 l 2
 775.954546393 1997.09773041 761.287879726 1981.09773041 737 1966 c 1
 258 1696 l 2
 234 1682.47181629 222 1688.80514962 222 1715 c 1
 223 1749 l 2
 223.385593123 1762.11016617 235.052259789 1777.77683283 258 1796 c 1
 764 2102 l 1
EndSplineSet
EndChar
StartChar: uni08F5
Encoding: 2293 2293 6082
Width: 0
GlyphClass: 4
Flags: HW
AnchorPoint: "TashkilAboveDot" 556 1640 mark 0
AnchorPoint: "TashkilAbove" 556 1640 mark 0
AnchorPoint: "MarkAbove" 549 1640 mark 0
LayerCount: 2
Fore
SplineSet
413 2222 m 2
 413.67 2224 415 2225 417 2225 c 0
 436.33 2225 462 2210.33 494 2181 c 0
 496.67 2178.33 497.33 2175.33 496 2172 c 2
 447 2095 l 2
 445 2091.67 441.67 2092 437 2096 c 0
 432.33 2100 418.67 2108.67 396 2122 c 0
 373.33 2135.33 362 2142.67 362 2144 c 0
 362 2145.33 362.33 2146.33 363 2147 c 2
 413 2222 l 2
EndSplineSet
Refer: 235 1614 N 1 0 0 1 0 0 2
EndChar
StartChar: uni08F6
Encoding: 2294 2294 6083
Width: 0
GlyphClass: 4
Flags: HW
AnchorPoint: "MarkBelow" 77 -450 mark 0
AnchorPoint: "TashkilBelow" 247 -450 mark 0
AnchorPoint: "TashkilBelowDot" 247 -450 mark 0
AnchorPoint: "TashkilTashkilBelow" -126 -770 basemark 0
LayerCount: 2
Fore
SplineSet
307 -873 m 2
 309 -871 310.67 -870 312 -870 c 0
 313.33 -870 322 -872.67 338 -878 c 0
 354 -883.33 366.67 -891.33 376 -902 c 0
 386.67 -914 391.33 -921 390 -923 c 2
 341 -1000 l 2
 340.33 -1001.33 339.33 -1002 338 -1002 c 0
 336.67 -1002 329.33 -996.67 316 -986 c 0
 302.67 -975.33 289.33 -967.33 276 -962 c 0
 262.67 -956.67 256 -953 256 -951 c 0
 256 -949.67 256.33 -948.67 257 -948 c 2
 307 -873 l 2
EndSplineSet
Refer: 235 1614 N 1 0 0 1 -290 -2610 2
EndChar
StartChar: uni08F7
Encoding: 2295 2295 6084
Width: 0
GlyphClass: 4
Flags: HW
AnchorPoint: "TashkilAbove" 320 1640 mark 0
AnchorPoint: "TashkilAboveDot" 320 1640 mark 0
AnchorPoint: "MarkAbove" 319 1640 mark 0
LayerCount: 2
Fore
SplineSet
545.46 2120.01 m 1
 441.54 2060.01 l 1
 266.19 1976.07 l 1
 523.46 1824.99 l 1
 538.46 1799.01 l 1
 434.54 1739.01 l 1
 136.54 1914.01 l 1
 121.54 1939.99 l 1
 225.46 1999.99 l 1
 530.46 2145.99 l 1
 545.46 2120.01 l 1
EndSplineSet
EndChar
StartChar: uni08F8
Encoding: 2296 2296 6085
Width: 0
GlyphClass: 4
Flags: HW
AnchorPoint: "TashkilAbove" 320 1640 mark 0
AnchorPoint: "TashkilAboveDot" 320 1640 mark 0
AnchorPoint: "MarkAbove" 319 1640 mark 0
LayerCount: 2
Back
SplineSet
481.009765625 1064.46191406 m 1
 506.990234375 1049.46191406 l 1
 360.990234375 744.461914062 l 1
 300.990234375 640.538085938 l 1
 275.009765625 655.538085938 l 1
 100.009765625 953.538085938 l 1
 160.009765625 1057.4609375 l 1
 185.990234375 1042.4609375 l 1
 337.072265625 785.190429688 l 1
 421.009765625 960.538085938 l 1
 481.009765625 1064.46191406 l 1
126 1211 m 1
 100 1226 l 1
 246 1531 l 1
 306 1634 l 1
 332 1619 l 1
 507 1321 l 1
 447 1218 l 1
 421 1233 l 1
 270 1490 l 1
 186 1314 l 1
 126 1211 l 1
151 2103 m 25
 456 1957 l 25
 158 1782 l 25
EndSplineSet
Fore
SplineSet
91.5390625 2085.99023438 m 1
 195.461914062 2145.99023438 l 1
 500.461914062 1999.99023438 l 1
 515.461914062 1974.00976562 l 1
 217.4609375 1799.00976562 l 1
 113.538085938 1739.00976562 l 1
 98.5380859375 1764.99023438 l 1
 378.901367188 1929.6328125 l 1
 106.5390625 2060.00976562 l 1
 91.5390625 2085.99023438 l 1
EndSplineSet
EndChar
StartChar: uni08FC
Encoding: 2300 2300 6089
Width: 0
GlyphClass: 4
Flags: HW
AnchorPoint: "TashkilTashkilAbove" 107 845 mark 0
AnchorPoint: "TashkilTashkilAbove" 106 1060 basemark 0
AnchorPoint: "MarkAbove" 107 845 mark 0
AnchorPoint: "TashkilAboveDot" 107 845 mark 0
AnchorPoint: "TashkilAbove" 107 845 mark 0
LayerCount: 2
Fore
SplineSet
-91 978 m 2
 -90 979 -90 979 -89 979 c 0
 -78 979 -66 972 -52 958 c 0
 -50 956 -50 954 -51 953 c 2
 -75 916 l 2
 -76 914 -78 914 -80 916 c 0
 -82 918 -89 922 -100 929 c 0
 -111 936 -116 938 -116 939 c 0
 -116 941 l 2
 -91 978 l 2
EndSplineSet
Refer: 6088 2299 N 1 0 0 1 0 0 2
EndChar
StartChar: uni08FD
Encoding: 2301 2301 6090
Width: 0
GlyphClass: 4
Flags: HW
AnchorPoint: "MarkAbove" 29 1640 mark 0
AnchorPoint: "TashkilAboveDot" 30 1640 mark 0
AnchorPoint: "TashkilAbove" 30 1640 mark 0
LayerCount: 2
Fore
SplineSet
-187 2002 m 2
 -185.666666667 2004 -184.333333333 2005 -183 2005 c 0
 -161 2005 -135.333333333 1990.33333333 -106 1961 c 0
 -102.8515625 1957.8515625 -102.184895833 1954.8515625 -104 1952 c 2
 -153 1875 l 2
 -155.078125 1871.73372396 -158.411458333 1872.06705729 -163 1876 c 0
 -167.666666667 1880 -181.333333333 1888.66666667 -204 1902 c 0
 -226.666666667 1915.33333333 -238 1922.66666667 -238 1924 c 0
 -238 1925 -237.666666667 1926 -237 1927 c 2
 -187 2002 l 2
EndSplineSet
Refer: 6085 2296 N 1 0 0 1 0 0 2
EndChar
StartChar: uni08FE
Encoding: 2302 2302 6091
Width: 0
GlyphClass: 4
Flags: HW
AnchorPoint: "TashkilAbove" 570 1640 mark 0
AnchorPoint: "TashkilAboveDot" 570 1640 mark 0
AnchorPoint: "TashkilTashkilAbove" 400 2200 basemark 0
AnchorPoint: "MarkAbove" 569 1640 mark 0
LayerCount: 2
Fore
SplineSet
223 2202 m 2
 224.333333333 2204 225.666666667 2205 227 2205 c 0
 249 2205 274.666666667 2190.33333333 304 2161 c 0
 307.148148148 2157.85185185 307.814814815 2154.85185185 306 2152 c 2
 257 2075 l 2
 254.921606922 2071.73395373 251.588273589 2072.06728707 247 2076 c 0
 242.333333333 2080 228.666666667 2088.66666667 206 2102 c 0
 183.333333333 2115.33333333 172 2122.66666667 172 2124 c 0
 172 2125 172.333333333 2126 173 2127 c 2
 223 2202 l 2
EndSplineSet
Refer: 236 1615 N 1 0 0 1 0 0 2
EndChar
StartChar: uni200C
Encoding: 8204 8204 307
Width: 0
Flags: W
LayerCount: 2
Fore
SplineSet
30 1110 m 1,0,-1
 30 0 l 1,1,-1
 -30 0 l 1,2,-1
 -30 1110 l 1,3,-1
 30 1110 l 1,0,-1
EndSplineSet
EndChar
StartChar: uni200F
Encoding: 8207 8207 310
Width: 0
Flags: HW
LayerCount: 2
Fore
SplineSet
-30 970 m 1
 30 970 l 1
 30 0 l 1
 -30 0 l 1
 -30 970 l 1
277 1110 m 1
 138 971 l 1
 96 1013 l 1
 163 1080 l 1
 -30 1080 l 1
 -30 1140 l 1
 162 1140 l 1
 96 1206 l 1
 139 1248 l 1
 277 1110 l 1
EndSplineSet
EndChar
StartChar: uni202C
Encoding: 8236 8236 313
Width: 0
Flags: W
LayerCount: 2
Fore
SplineSet
30 970 m 1,0,-1
 30 0 l 1,1,-1
 -30 0 l 1,2,-1
 -30 970 l 1,3,-1
 30 970 l 1,0,-1
139 1055 m 1,4,-1
 97 1013 l 1,5,-1
 0 1110 l 1,6,-1
 -97 1013 l 1,7,-1
 -139 1055 l 1,8,-1
 0 1194 l 1,9,-1
 139 1055 l 1,4,-1
EndSplineSet
EndChar
StartChar: fraction
Encoding: 8260 8260 6067
Width: 252
Flags: HW
LayerCount: 2
Fore
SplineSet
579 1268 m 1
 -111 4 l 1
 -116.333333333 -4 -124.666666667 -11.6666666667 -136 -19 c 128
 -147.333333333 -26.3333333333 -160.333333333 -28.3333333333 -175 -25 c 0
 -181 -23.6666666667 -186 -21.6666666667 -190 -19 c 128
 -194 -16.3333333333 -196.333333333 -13.8333333333 -197 -11.5 c 2
 -198 -8 l 1
 502 1273 l 2
 502.666666667 1275 505.833333333 1277.5 511.5 1280.5 c 128
 517.166666667 1283.5 524.5 1286 533.5 1288 c 128
 542.5 1290 552.666666667 1290 564 1288 c 0
 574 1286 579 1279.33333333 579 1268 c 1
EndSplineSet
EndChar
StartChar: uni25CC
Encoding: 9676 9676 4627
Width: 1392
Flags: HW
AnchorPoint: "MarkBelow" 696 -510 basechar 0
AnchorPoint: "MarkAbove" 696 1210 basechar 0
LayerCount: 2
Fore
SplineSet
1138 737 m 0
 1138 725.67 1133.67 715.83 1125 707.5 c 128
 1116.33 699.17 1105.67 695 1093 695 c 0
 1081.67 695 1071.83 699.17 1063.5 707.5 c 128
 1055.17 715.83 1051 725.67 1051 737 c 0
 1051 749.67 1055.17 760.33 1063.5 769 c 128
 1071.83 777.67 1081.67 782 1093 782 c 0
 1105.67 782 1116.33 777.67 1125 769 c 128
 1133.67 760.33 1138 749.67 1138 737 c 0
955 860 m 0
 955 847.33 950.5 836.67 941.5 828 c 128
 932.5 819.33 922.67 815 912 815 c 0
 899.33 815 888.67 819.33 880 828 c 128
 871.33 836.67 867 847.33 867 860 c 0
 867 871.33 871.33 881.33 880 890 c 128
 888.67 898.67 899.33 903 912 903 c 256
 924.67 903 935 898.67 943 890 c 128
 951 881.33 955 871.33 955 860 c 0
1259 556 m 256
 1259 543.33 1254.67 532.67 1246 524 c 128
 1237.33 515.33 1227.33 511 1216 511 c 0
 1203.33 511 1192.67 515.33 1184 524 c 128
 1175.33 532.67 1171 543.33 1171 556 c 0
 1171 566.67 1175.33 576.5 1184 585.5 c 128
 1192.67 594.5 1203.33 599 1216 599 c 0
 1227.33 599 1237.33 595 1246 587 c 128
 1254.67 579 1259 568.67 1259 556 c 256
741 903 m 0
 741 891 736.67 880.83 728 872.5 c 128
 719.33 864.17 708.67 860 696 860 c 256
 683.33 860 672.67 864.17 664 872.5 c 128
 655.33 880.83 651 891 651 903 c 0
 651 915.67 655.33 926 664 934 c 128
 672.67 942 683.33 946 696 946 c 256
 708.67 946 719.33 942 728 934 c 128
 736.67 926 741 915.67 741 903 c 0
1302 340 m 256
 1302 327.33 1298 316.67 1290 308 c 128
 1282 299.33 1271.67 295 1259 295 c 0
 1247 295 1236.83 299.33 1228.5 308 c 128
 1220.17 316.67 1216 327.33 1216 340 c 256
 1216 352.67 1220.17 363.33 1228.5 372 c 128
 1236.83 380.67 1247 385 1259 385 c 0
 1271.67 385 1282 380.67 1290 372 c 128
 1298 363.33 1302 352.67 1302 340 c 256
525 860 m 0
 525 847.33 520.67 836.67 512 828 c 128
 503.33 819.33 492.67 815 480 815 c 0
 469.33 815 459.5 819.33 450.5 828 c 128
 441.5 836.67 437 847.33 437 860 c 0
 437 871.33 441 881.33 449 890 c 128
 457 898.67 467.33 903 480 903 c 256
 492.67 903 503.33 898.67 512 890 c 128
 520.67 881.33 525 871.33 525 860 c 0
1259 124 m 256
 1259 111.33 1254.67 101 1246 93 c 128
 1237.33 85 1227.33 81 1216 81 c 0
 1203.33 81 1192.67 85.5 1184 94.5 c 128
 1175.33 103.5 1171 113.33 1171 124 c 0
 1171 136.67 1175.33 147.33 1184 156 c 128
 1192.67 164.67 1203.33 169 1216 169 c 0
 1227.33 169 1237.33 164.67 1246 156 c 128
 1254.67 147.33 1259 136.67 1259 124 c 256
341 737 m 0
 341 725.67 336.83 715.83 328.5 707.5 c 128
 320.17 699.17 310.33 695 299 695 c 0
 286.33 695 275.67 699.17 267 707.5 c 128
 258.33 715.83 254 725.67 254 737 c 0
 254 749.67 258.33 760.33 267 769 c 128
 275.67 777.67 286.33 782 299 782 c 0
 310.33 782 320.17 777.67 328.5 769 c 128
 336.83 760.33 341 749.67 341 737 c 0
1138 -57 m 0
 1138 -69.67 1133.67 -80.33 1125 -89 c 128
 1116.33 -97.67 1105.67 -102 1093 -102 c 0
 1081.67 -102 1071.83 -97.67 1063.5 -89 c 128
 1055.17 -80.33 1051 -69.67 1051 -57 c 0
 1051 -45.67 1055.17 -35.83 1063.5 -27.5 c 128
 1071.83 -19.17 1081.67 -15 1093 -15 c 0
 1105.67 -15 1116.33 -19.17 1125 -27.5 c 128
 1133.67 -35.83 1138 -45.67 1138 -57 c 0
221 556 m 0
 221 543.33 216.67 532.67 208 524 c 128
 199.33 515.33 188.67 511 176 511 c 0
 164.67 511 154.83 515.33 146.5 524 c 128
 138.17 532.67 134 543.33 134 556 c 256
 134 568.67 138.17 579 146.5 587 c 128
 154.83 595 164.67 599 176 599 c 0
 188.67 599 199.33 594.5 208 585.5 c 128
 216.67 576.5 221 566.67 221 556 c 0
955 -180 m 0
 955 -191.33 951 -201.17 943 -209.5 c 128
 935 -217.83 924.67 -222 912 -222 c 256
 899.33 -222 888.67 -217.83 880 -209.5 c 128
 871.33 -201.17 867 -191.33 867 -180 c 0
 867 -167.33 871.33 -156.67 880 -148 c 128
 888.67 -139.33 899.33 -135 912 -135 c 0
 922.67 -135 932.5 -139.33 941.5 -148 c 128
 950.5 -156.67 955 -167.33 955 -180 c 0
176 340 m 256
 176 327.33 171.83 316.67 163.5 308 c 128
 155.17 299.33 145.33 295 134 295 c 0
 120.67 295 110 299.33 102 308 c 128
 94 316.67 90 327.33 90 340 c 256
 90 352.67 94 363.33 102 372 c 128
 110 380.67 120.67 385 134 385 c 0
 145.33 385 155.17 380.67 163.5 372 c 128
 171.83 363.33 176 352.67 176 340 c 256
741 -222 m 0
 741 -235.33 736.67 -246 728 -254 c 128
 719.33 -262 708.67 -266 696 -266 c 256
 683.33 -266 672.67 -262 664 -254 c 128
 655.33 -246 651 -235.33 651 -222 c 0
 651 -210.67 655.33 -200.83 664 -192.5 c 128
 672.67 -184.17 683.33 -180 696 -180 c 256
 708.67 -180 719.33 -184.17 728 -192.5 c 128
 736.67 -200.83 741 -210.67 741 -222 c 0
221 124 m 0
 221 113.33 216.67 103.5 208 94.5 c 128
 199.33 85.5 188.67 81 176 81 c 0
 164.67 81 154.83 85 146.5 93 c 128
 138.17 101 134 111.33 134 124 c 256
 134 136.67 138.17 147.33 146.5 156 c 128
 154.83 164.67 164.67 169 176 169 c 0
 188.67 169 199.33 164.67 208 156 c 128
 216.67 147.33 221 136.67 221 124 c 0
525 -180 m 0
 525 -191.33 520.67 -201.17 512 -209.5 c 128
 503.33 -217.83 492.67 -222 480 -222 c 256
 467.33 -222 457 -217.83 449 -209.5 c 128
 441 -201.17 437 -191.33 437 -180 c 0
 437 -167.33 441.5 -156.67 450.5 -148 c 128
 459.5 -139.33 469.33 -135 480 -135 c 0
 492.67 -135 503.33 -139.33 512 -148 c 128
 520.67 -156.67 525 -167.33 525 -180 c 0
341 -57 m 0
 341 -69.67 336.83 -80.33 328.5 -89 c 128
 320.17 -97.67 310.33 -102 299 -102 c 0
 286.33 -102 275.67 -97.67 267 -89 c 128
 258.33 -80.33 254 -69.67 254 -57 c 0
 254 -45.67 258.33 -35.83 267 -27.5 c 128
 275.67 -19.17 286.33 -15 299 -15 c 0
 310.33 -15 320.17 -19.17 328.5 -27.5 c 128
 336.83 -35.83 341 -45.67 341 -57 c 0
EndSplineSet
EndChar
StartChar: uniFD3E
Encoding: 64830 64830 4834
Width: 1463
Flags: HW
LayerCount: 2
Fore
SplineSet
697 340 m 0
 697 311.333333333 705.333333333 285.333333333 722 262 c 0
 749.333333333 224.666666667 785.666666667 206 831 206 c 0
 859 206 885 214.333333333 909 231 c 0
 946.333333333 258.333333333 965 294.666666667 965 340 c 0
 965 368 956.666666667 394 940 418 c 0
 912.666666667 455.333333333 876.333333333 474 831 474 c 0
 803 474 777 465.666666667 753 449 c 0
 715.666666667 421.666666667 697 385.333333333 697 340 c 0
990 748 m 1
 1019.33333333 740.666666667 1046.16666667 732 1070.5 722 c 128
 1094.83333333 712 1100.66666667 698.333333333 1088 681 c 2
 944 486 l 2
 943.333333333 485.333333333 942.666666667 484.333333333 942 483 c 1
 953.333333333 471 965 459.333333333 977 448 c 1
 1171 592 l 2
 1188.33333333 604.666666667 1201 601 1209 581 c 0
 1227 536.333333333 1240 491.666666667 1248 447 c 1
 1290 427 1326.66666667 396.333333333 1358 355 c 1
 1364 345 1364 335.333333333 1358 326 c 1
 1327.33333333 284.666666667 1290.66666667 254 1248 234 c 1
 1234 156 1217.33333333 106.333333333 1198 85 c 0
 1192 78.3333333333 1183 79.3333333333 1171 88 c 2
 976 232 l 1
 964 220.666666667 952.666666667 209 942 197 c 1
 942.666666667 196.333333333 943.333333333 195.333333333 944 194 c 2
 1088 -1 l 2
 1100.66666667 -18.3333333333 1094.83333333 -32 1070.5 -42 c 128
 1046.16666667 -52 1019.33333333 -60.6666666667 990 -68 c 1
 1051.33333333 -314 1151.33333333 -534.666666667 1290 -730 c 1
 1313.33333333 -766.666666667 1313 -796.333333333 1289 -819 c 128
 1265 -841.666666667 1236.33333333 -836.333333333 1203 -803 c 1
 995 -588.333333333 853 -348.666666667 777 -84 c 1
 717 -78 656.333333333 -63 595 -39 c 1
 575.666666667 -30.3333333333 572 -17.6666666667 584 -1 c 2
 726 192 l 1
 700.666666667 220 687.333333333 233.333333333 686 232 c 2
 491 88 l 2
 474.333333333 76 461.666666667 79.6666666667 453 99 c 1
 435.666666667 144.333333333 423 189.333333333 415 234 c 1
 371.666666667 254 334.666666667 284.666666667 304 326 c 1
 298.666666667 336 298.666666667 345.666666667 304 355 c 1
 334.666666667 396.333333333 371.333333333 427 414 447 c 1
 422 492.333333333 435 537 453 581 c 0
 461 601 473.666666667 604.666666667 491 592 c 2
 686 448 l 1
 687 448 l 1
 701 460.666666667 714.333333333 474 727 488 c 1
 584 681 l 2
 572 697.666666667 575.666666667 710.333333333 595 719 c 1
 656.333333333 743 717.333333333 758 778 764 c 1
 854 1027.33333333 995.666666667 1266 1203 1480 c 1
 1237 1512.66666667 1265.83333333 1517.5 1289.5 1494.5 c 128
 1313.16666667 1471.5 1313.33333333 1442 1290 1406 c 1
 1148.66666667 1200 1048.66666667 980.666666667 990 748 c 1
930 709 m 1
 986 960.333333333 1092.33333333 1202 1249 1434 c 0
 1258.33333333 1448 1261 1456 1257 1458 c 1
 1251.66666667 1456 1245.66666667 1451.33333333 1239 1444 c 0
 1035 1233.33333333 896.333333333 998.333333333 823 739 c 1
 817 716 l 1
 760.333333333 714 702.666666667 703.333333333 644 684 c 1
 760 527 l 1
 775.333333333 547 787.833333333 565 797.5 581 c 128
 807.166666667 597 818.5 605.333333333 831.5 606 c 128
 844.5 606.666666667 856.333333333 598.5 867 581.5 c 128
 877.666666667 564.5 890.666666667 546 906 526 c 1
 912 526 l 1
 1028 684 l 1
 996 695.333333333 963.333333333 703.666666667 930 709 c 1
460 269 m 1
 465.333333333 229 474.666666667 188.666666667 488 148 c 1
 646 265 l 1
 646 267 l 1
 626.666666667 282.333333333 608.833333333 295.333333333 592.5 306 c 128
 576.166666667 316.666666667 568.333333333 328 569 340 c 128
 569.666666667 352 577.833333333 363.333333333 593.5 374 c 128
 609.166666667 384.666666667 626.666666667 397.666666667 646 413 c 1
 646 415 l 1
 488 532 l 1
 474.666666667 492.666666667 465.333333333 453 460 413 c 1
 437 402 l 2
 405.666666667 387.333333333 378.666666667 366.666666667 356 340 c 1
 378.666666667 313.333333333 405.666666667 293 437 279 c 2
 460 269 l 1
1016 414 m 1
 1035.33333333 398 1053.5 384.666666667 1070.5 374 c 128
 1087.5 363.333333333 1095.5 351.833333333 1094.5 339.5 c 128
 1093.5 327.166666667 1085 315.833333333 1069 305.5 c 128
 1053 295.166666667 1035.33333333 282 1016 266 c 1
 1016 265 l 1
 1174 148 l 1
 1187.33333333 188.666666667 1196.66666667 229 1202 269 c 1
 1226 279 l 1
 1256.66666667 293 1283.33333333 313.333333333 1306 340 c 1
 1284 366.666666667 1257.33333333 387.333333333 1226 402 c 2
 1202 413 l 1
 1196.66666667 453 1187.33333333 492.666666667 1174 532 c 1
 1016 415 l 1
 1016 414 l 1
930 -29 m 1
 963.333333333 -23.6666666667 996 -15.3333333333 1028 -4 c 1
 912 154 l 1
 905 154 l 1
 889.666666667 134 877 115.666666667 867 99 c 128
 857 82.3333333333 845.666666667 74 833 74 c 128
 820.333333333 74 808.666666667 82.1666666667 798 98.5 c 128
 787.333333333 114.833333333 774.333333333 132.666666667 759 152 c 1
 644 -4 l 1
 702 -23.3333333333 759.666666667 -34 817 -36 c 1
 821 -56 l 1
 893.666666667 -318.666666667 1033 -556.333333333 1239 -769 c 0
 1246.33333333 -776.333333333 1252.33333333 -780.666666667 1257 -782 c 1
 1259.66666667 -778.666666667 1257 -770.666666667 1249 -758 c 1
 1103 -551.333333333 996.666666667 -308.333333333 930 -29 c 1
EndSplineSet
EndChar
StartChar: uniFD3F
Encoding: 64831 64831 4835
Width: 1463
Flags: HW
LayerCount: 2
Fore
SplineSet
767 340 m 0
 767 385.33 748.33 421.67 711 449 c 0
 687 465.67 661 474 633 474 c 0
 587.67 474 551 455.33 523 418 c 0
 507 394 499 368 499 340 c 0
 499 294.67 517.67 258.33 555 231 c 0
 579 214.33 605 206 633 206 c 0
 678.33 206 714.33 224.67 741 262 c 0
 758.33 285.33 767 311.33 767 340 c 0
473 748 m 1
 414.33 980.67 314.33 1200 173 1406 c 1
 150.33 1442 150.83 1471.5 174.5 1494.5 c 128
 198.17 1517.5 227 1512.67 261 1480 c 1
 467.67 1266 609 1027.33 685 764 c 1
 746.33 758 807.67 743 869 719 c 1
 887.67 710.33 891 697.67 879 681 c 2
 737 488 l 1
 750.33 474 763.67 460.67 777 448 c 1
 777 448 l 1
 973 592 l 2
 990.33 604.67 1003 601 1011 581 c 0
 1028.33 537 1041 492.33 1049 447 c 1
 1091.67 427 1128.33 396.33 1159 355 c 1
 1164.33 345.67 1164.33 336 1159 326 c 1
 1128.33 284.67 1091.67 254 1049 234 c 1
 1041 189.33 1028.33 144.33 1011 99 c 1
 1003 79.67 990.33 76 973 88 c 2
 777 232 l 2
 775.67 233.33 762.33 220 737 192 c 1
 879 -1 l 2
 891 -17.67 887.67 -30.33 869 -39 c 1
 807.67 -63 747 -78 687 -84 c 1
 611 -348.67 469 -588.33 261 -803 c 1
 227.67 -836.33 198.83 -841.67 174.5 -819 c 128
 150.17 -796.33 149.67 -766.67 173 -730 c 1
 311.67 -534.67 411.67 -314 473 -68 c 1
 443.67 -60.67 416.83 -52 392.5 -42 c 128
 368.17 -32 362.33 -18.33 375 -1 c 2
 519 194 l 2
 519 195.33 519.67 196.33 521 197 c 1
 510.33 209 499 220.67 487 232 c 1
 293 88 l 2
 281 79.33 271.67 78.33 265 85 c 0
 245 106.33 228.33 156 215 234 c 1
 172.33 254 135.67 284.67 105 326 c 1
 98.33 335.33 98.33 345 105 355 c 1
 135.67 396.33 172.33 427 215 447 c 1
 223 491.67 236.33 536.33 255 581 c 0
 263 601 275.67 604.67 293 592 c 2
 487 448 l 1
 499 459.33 510.33 471 521 483 c 1
 519.67 484.33 519 485.33 519 486 c 2
 375 681 l 2
 363 698.33 369 712 393 722 c 128
 417 732 443.67 740.67 473 748 c 1
533 709 m 1
 499.67 703.67 467 695.33 435 684 c 1
 551 526 l 1
 557 526 l 1
 573 546 586.33 564.5 597 581.5 c 128
 607.67 598.5 619.33 606.67 632 606 c 128
 644.67 605.33 655.83 597 665.5 581 c 128
 675.17 565 687.67 547 703 527 c 1
 819 684 l 1
 760.33 703.33 703 714 647 716 c 1
 641 739 l 1
 567.67 998.33 429 1233.33 225 1444 c 0
 218.33 1451.33 212.33 1456 207 1458 c 1
 203 1456 205.67 1448 215 1434 c 0
 371 1202 477 960.33 533 709 c 1
1003 269 m 1
 1027 279 l 2
 1057.67 293 1084.33 313.33 1107 340 c 1
 1084.33 366.67 1057.67 387.33 1027 402 c 2
 1003 413 l 1
 997.67 453 988.33 492.67 975 532 c 1
 817 415 l 1
 817 413 l 1
 837 397.67 854.67 384.67 870 374 c 128
 885.33 363.33 893.33 352 894 340 c 128
 894.67 328 886.83 316.67 870.5 306 c 128
 854.17 295.33 836.33 282.33 817 267 c 1
 817 265 l 1
 975 148 l 1
 988.33 188.67 997.67 229 1003 269 c 1
447 414 m 1
 447 415 l 1
 289 532 l 1
 275.67 492.67 266.33 453 261 413 c 1
 237 402 l 2
 205 387.33 178.33 366.67 157 340 c 1
 179.67 313.33 206.33 293 237 279 c 1
 261 269 l 1
 266.33 229 275.67 188.67 289 148 c 1
 447 265 l 1
 447 266 l 1
 428.33 282 411 295.17 395 305.5 c 128
 379 315.83 370.33 327.17 369 339.5 c 128
 367.67 351.83 375.5 363.33 392.5 374 c 128
 409.5 384.67 427.67 398 447 414 c 1
533 -29 m 1
 466.33 -308.33 360.33 -551.33 215 -758 c 1
 207 -770.67 204.33 -778.67 207 -782 c 1
 212.33 -780.67 218.33 -776.33 225 -769 c 0
 431.67 -556.33 571 -318.67 643 -56 c 1
 647 -36 l 1
 704.33 -34 761.67 -23.33 819 -4 c 1
 705 152 l 1
 689 132.67 675.67 114.83 665 98.5 c 128
 654.33 82.17 642.67 74 630 74 c 128
 617.33 74 606.17 82.33 596.5 99 c 128
 586.83 115.67 574.33 134 559 154 c 1
 551 154 l 1
 435 -4 l 1
 467 -15.33 499.67 -23.67 533 -29 c 1
EndSplineSet
EndChar
StartChar: uniFDFA
Encoding: 65018 65018 5605
Width: 2161
Flags: HW
LayerCount: 2
Fore
SplineSet
948 763 m 1
 947 763 l 1
 951.67 793 956 809.67 960 813 c 0
 987.33 837.67 1008.83 875.83 1024.5 927.5 c 128
 1040.17 979.17 1043.67 1039 1035 1107 c 0
 1023 1199 1014.33 1265.33 1009 1306 c 2
 978 1527 l 2
 976.67 1538.33 986.33 1587 1007 1673 c 0
 1008.33 1679 1012.33 1681.67 1019 1681 c 128
 1025.67 1680.33 1029.33 1678 1030 1674 c 8
 1078 1345.33 1121.33 1148.33 1160 1083 c 128
 1198.67 1017.67 1254 986.67 1326 990 c 0
 1408 994 1476.33 1023 1531 1077 c 1
 1536.33 1086.33 1544.17 1091.17 1554.5 1091.5 c 128
 1564.83 1091.83 1574 1086.33 1582 1075 c 1
 1606 1037.67 1646.67 1010 1704 992 c 1
 1736 1028 1768.33 1060.33 1801 1089 c 0
 1897 1171.67 1974 1213 2032 1213 c 0
 2053.33 1213 2080.17 1201.33 2112.5 1178 c 128
 2144.83 1154.67 2161 1131.67 2161 1109 c 128
 2161 1086.33 2150 1055 2128 1015 c 128
 2106 975 2090.67 951.33 2082 944 c 1
 2011.33 893.33 1918.67 868 1804 868 c 1
 1759.33 868.67 1717.33 874 1678 884 c 1
 1647 791 l 2
 1645 784.33 1640.33 780 1633 778 c 1
 1617.67 778 1609.33 785.67 1608 801 c 1
 1608 805 l 1
 1612 831.67 1621.67 863.33 1637 900 c 1
 1597.67 916.67 1570.17 934.33 1554.5 953 c 128
 1538.83 971.67 1528.83 981 1524.5 981 c 128
 1520.17 981 1512.67 975.67 1502 965 c 0
 1445.33 909.67 1375.5 883.17 1292.5 885.5 c 128
 1209.5 887.83 1141.67 940.33 1089 1043 c 1
 1085 977 1061.67 905.67 1019 829 c 1
 1092.33 817.67 1139.83 803.5 1161.5 786.5 c 128
 1183.17 769.5 1194.33 758.33 1195 753 c 0
 1201 686.33 1181 634.33 1135 597 c 1
 1024.33 509.67 914 466 804 466 c 128
 694 466 614.67 493.33 566 548 c 0
 480.67 643.33 499.67 794 623 1000 c 0
 625 1004 629 1006.67 635 1008 c 1
 647 1006.67 650.33 1000 645 988 c 1
 604.33 918 581.33 869.33 576 842 c 0
 564 782.67 571.67 727 599 675 c 0
 635.67 605 713.83 574 833.5 582 c 128
 953.17 590 1058.33 633.33 1149 712 c 1
 1122.33 727.33 1055.33 744.33 948 763 c 1
2083 1038 m 0
 2043 1074 2003.83 1092.17 1965.5 1092.5 c 128
 1927.17 1092.83 1885.83 1078.5 1841.5 1049.5 c 128
 1797.17 1020.5 1767.33 997.67 1752 981 c 1
 1796.67 974.33 1861 975.67 1945 985 c 128
 2029 994.33 2076 1010.33 2086 1033 c 0
 2086 1034.33 2085 1036 2083 1038 c 0
845 893 m 0
 841.67 887.67 838 885 834 885 c 128
 830 885 828 891.33 828 904 c 0
 828 1009.33 825.33 1082.33 820 1123 c 0
 813.33 1176.33 805.33 1249.33 796 1342 c 1
 771 1567 l 2
 769.67 1579 771.33 1592 776 1606 c 2
 802 1665 l 2
 807.33 1679 811.83 1686 815.5 1686 c 128
 819.17 1686 821.67 1679.67 823 1667 c 2
 850 1376 l 1
 879.33 1117.33 877.67 956.33 845 893 c 0
416 1652 m 0
 419.33 1661.33 424.5 1665.83 431.5 1665.5 c 128
 438.5 1665.17 442 1660.33 442 1651 c 0
 442.67 1623.67 452.17 1610 470.5 1610 c 128
 488.83 1610 499.5 1620.83 502.5 1642.5 c 128
 505.5 1664.17 511.33 1675 520 1675 c 1
 526.67 1673.67 530 1662.67 530 1642 c 128
 530 1621.33 524.33 1597 513 1569 c 128
 501.67 1541 485.67 1526.5 465 1525.5 c 128
 444.33 1524.5 427.33 1531.67 414 1547 c 1
 397.33 1518.33 376.67 1504 352 1504 c 0
 316 1504 298 1522 298 1558 c 0
 298 1586.67 301.17 1610.5 307.5 1629.5 c 128
 313.83 1648.5 320.33 1658.33 327 1659 c 128
 333.67 1659.67 337 1654.67 337 1644 c 2
 336 1624 l 2
 336 1614.67 339.5 1604 346.5 1592 c 128
 353.5 1580 364 1577.83 378 1585.5 c 128
 392 1593.17 404.67 1615.33 416 1652 c 0
452 1065 m 1
 420.67 1213.67 403.33 1303.83 400 1335.5 c 128
 396.67 1367.17 397.67 1387.33 403 1396 c 2
 436 1449 l 2
 444 1461 450 1458.67 454 1442 c 1
 454.67 1442.67 463 1388.5 479 1279.5 c 128
 495 1170.5 512 1102.33 530 1075 c 0
 562 1024.33 602.33 1006.33 651 1021 c 1
 650.33 1040.33 638.5 1098.67 615.5 1196 c 128
 592.5 1293.33 580.33 1349.33 579 1364 c 128
 577.67 1378.67 579.33 1389.67 584 1397 c 2
 612 1445 l 2
 618 1455.67 624 1452 630 1434 c 1
 689 1164 l 1
 701 1102.67 705.33 1056 702 1024 c 0
 692.67 932.67 666.33 886.67 623 886 c 0
 589 886 561.33 895.83 540 915.5 c 128
 518.67 935.17 498 964.67 478 1004 c 1
 448.67 924 401.33 884.83 336 886.5 c 128
 270.67 888.17 232 927 220 1003 c 1
 195.33 967 174 947 156 943 c 0
 94.67 929.67 45.67 935.67 9 961 c 1
 -2.33 970.33 -3 990.83 7 1022.5 c 128
 17 1054.17 40.33 1086 77 1118 c 0
 114.33 1149.33 155.33 1170.33 200 1181 c 1
 199 1237 l 1
 199 1238 l 1
 199.67 1259.33 214 1290.67 242 1332 c 0
 250.67 1344 255.67 1343 257 1329 c 1
 257 1309.67 257.67 1265 259 1195 c 0
 262.33 1071 291 1008.67 345 1008 c 128
 399 1007.33 434.67 1026.33 452 1065 c 1
204 1126 m 1
 188.67 1122.67 167.33 1114.33 140 1101 c 128
 112.67 1087.67 94.33 1073.33 85 1058 c 1
 98.33 1048 119.83 1044 149.5 1046 c 128
 179.17 1048 199 1053.33 209 1062 c 1
 207.67 1072 206 1093.33 204 1126 c 1
197 676 m 1
 193 747 l 2
 192.33 763 196 775 204 783 c 2
 228 806 l 2
 238 815.33 244 811.33 246 794 c 1
 245.33 788.67 249 745 257 663 c 0
 275.67 456.33 411.67 353 665 353 c 0
 888.33 353 1046.33 391.33 1139 468 c 1
 1200.33 387.33 1254.17 362 1300.5 392 c 128
 1346.83 422 1376.33 460.33 1389 507 c 1
 1354.33 677.67 1332.67 906 1324 1192 c 0
 1324 1202 1327 1213 1333 1225 c 2
 1377 1306 l 2
 1378.33 1308 1381 1310 1385 1312 c 1
 1387 1311.33 1388.33 1307.33 1389 1300 c 0
 1406.33 978.67 1421.33 773 1434 683 c 0
 1458.67 495 1536 395 1666 383 c 1
 1640.67 417 1627.83 459.83 1627.5 511.5 c 128
 1627.17 563.17 1649.33 610.67 1694 654 c 0
 1791.33 750 1886.33 746.33 1979 643 c 0
 1987 634.33 1988.33 625.67 1983 617 c 1
 1977 609 1969 606.67 1959 610 c 0
 1885.67 635.33 1812.67 635.33 1740 610 c 0
 1703.33 596.67 1684.83 580.33 1684.5 561 c 128
 1684.17 541.67 1697.5 511 1724.5 469 c 128
 1751.5 427 1785 406.33 1825 407 c 0
 1890.33 408.33 1964.33 433.67 2047 483 c 0
 2093.67 510.33 2111 511 2099 485 c 1
 2067 408 l 1
 2063 396 2045 381 2013 363 c 0
 1900.33 301.67 1781.17 272.5 1655.5 275.5 c 128
 1529.83 278.5 1448 335.67 1410 447 c 1
 1404 431.67 1393.67 412.67 1379 390 c 0
 1321.67 301.33 1267.67 263.33 1217 276 c 0
 1182.33 285.33 1146.33 309.33 1109 348 c 1
 1005.67 282 858 249 666 249 c 0
 434 249 291 325 237 477 c 1
 215.67 436.33 192.83 411.17 168.5 401.5 c 128
 144.17 391.83 116.67 389.67 86 395 c 0
 30 405 1.33 424.67 0 454 c 1
 0.67 469.33 8.33 490.83 23 518.5 c 128
 37.67 546.17 48.67 564.33 56 573 c 0
 89.33 611 136.33 645.33 197 676 c 1
74 523 m 1
 77.33 509.67 100.17 503.5 142.5 504.5 c 128
 184.83 505.5 211.67 511 223 521 c 1
 217.67 541.67 211.67 570 205 606 c 1
 129 584.67 85.33 557 74 523 c 1
1019 206 m 2
 1020.33 208.67 1030 206.67 1048 200 c 0
 1064.67 194 1085.33 180.67 1110 160 c 1
 1112 156.67 1112.67 153.33 1112 150 c 1
 1057 63 l 2
 1055 60.33 1051.33 61 1046 65 c 0
 1041.33 69 1019.67 82.67 981 106 c 1
 937 37 l 2
 937 39.67 933 40.33 925 39 c 0
 906.33 37.67 879.67 54.67 845 90 c 0
 843.67 91.33 843 93.33 843 96 c 1
 899 179 l 2
 901 181.67 909.67 180.67 925 176 c 0
 939.67 171.33 957.67 161 979 145 c 1
 1019 206 l 2
1664 -232 m 1
 1664.67 -227.33 1674 -225.83 1692 -227.5 c 128
 1710 -229.17 1732.5 -230 1759.5 -230 c 128
 1786.5 -230 1816.5 -226.17 1849.5 -218.5 c 128
 1882.5 -210.83 1929.5 -180.17 1990.5 -126.5 c 128
 2051.5 -72.83 2088 -27.67 2100 9 c 1
 2096 40.33 2091 57.67 2085 61 c 1
 2065.67 31 2046.67 16.33 2028 17 c 1
 1966 17 1934.67 45.67 1934 103 c 0
 1934 128.33 1940.67 159.33 1954 196 c 0
 1980 269.33 2011.33 306.33 2048 307 c 0
 2069.33 307 2091.33 289.17 2114 253.5 c 128
 2136.67 217.83 2148 179.33 2148 138 c 0
 2148 11.33 2108 -97.67 2028 -189 c 0
 1978 -246.33 1935.83 -276.5 1901.5 -279.5 c 128
 1867.17 -282.5 1819 -278.67 1757 -268 c 128
 1695 -257.33 1664 -246.33 1664 -235 c 2
 1664 -232 l 1
2057 153 m 0
 2035 189 2011.33 191 1986 159 c 1
 2004.67 137.67 2028.33 135.67 2057 153 c 0
1789 44 m 1
 1811.67 45.33 1815.33 71 1800 121 c 1
 1799.33 141 1805.67 157.5 1819 170.5 c 128
 1832.33 183.5 1841.67 185.17 1847 175.5 c 128
 1852.33 165.83 1855.17 145.5 1855.5 114.5 c 128
 1855.83 83.5 1853.33 56 1848 32 c 0
 1832.67 -28.67 1812.33 -60 1787 -62 c 1
 1779 -62 l 2
 1727.67 -62 1683 -43 1645 -5 c 1
 1612.33 -81.67 1566.33 -120.67 1507 -122 c 1
 1468.33 -121.33 1429 -100.33 1389 -59 c 1
 1285.67 -115.67 1143.67 -144 963 -144 c 0
 653 -143.33 477 -38 435 172 c 1
 431 107.33 415.33 58 388 24 c 1
 422.67 10 447.5 -11 462.5 -39 c 128
 477.5 -67 469.33 -113 438 -177 c 1
 430 -190.33 415 -197 393 -197 c 2
 392 -197 l 1
 344 -196.33 303 -183.33 269 -158 c 1
 253.67 -204.67 233 -235 207 -249 c 0
 147.67 -279.67 84 -292.33 16 -287 c 0
 6 -286.33 0.67 -282 0 -274 c 1
 0.67 -269.33 4.67 -265.33 12 -262 c 0
 164 -201.33 239.67 -151 239 -111 c 2
 239 -92 l 2
 239 -38.67 253.33 -2 282 18 c 0
 298 29.33 313.67 36 329 38 c 1
 383.67 76.67 411 141.67 411 233 c 2
 411 249 l 1
 376 623 l 1
 376 624 l 2
 376 630.67 378.33 638.67 383 648 c 2
 407 697 l 2
 411.67 705.67 416.33 709.83 421 709.5 c 128
 425.67 709.17 432.5 661.67 441.5 567 c 128
 450.5 472.33 458 404 464 362 c 0
 478.67 248.67 506.33 162.33 547 103 c 1
 616.33 6.33 759.67 -41.67 977 -41 c 128
 1194.33 -40.33 1351.67 -4.33 1449 67 c 0
 1459.67 75 1466.67 75.67 1470 69 c 0
 1475.33 60.33 1468 46 1448 26 c 1
 1470.67 -1.33 1502 -13.67 1542 -11 c 1
 1578 -7 1621.33 45.33 1672 146 c 0
 1673.33 150.67 1678 153 1686 153 c 1
 1694 152.33 1697.67 147 1697 137 c 1
 1686 88 l 1
 1713.33 60 1747.67 45.33 1789 44 c 1
427 -107 m 1
 401 -57 362.33 -32 311 -32 c 0
 293.67 -32 280.33 -39 271 -53 c 1
 319.67 -87.67 371.67 -105.67 427 -107 c 1
1686 1671 m 2
 1712.67 1680.33 1719.67 1674.67 1707 1654 c 2
 1686 1620 l 2
 1679.33 1609.33 1605.33 1580.67 1464 1534 c 0
 1324.67 1486.67 1230.67 1454.33 1182 1437 c 0
 1159.33 1429 1156.33 1436.67 1173 1460 c 2
 1188 1481 l 2
 1197.33 1494.33 1209 1503.67 1223 1509 c 2
 1686 1671 l 2
2131 1556 m 2
 2157.67 1565.33 2164.67 1559.67 2152 1539 c 2
 2131 1505 l 2
 2125 1494.33 2051.33 1465.67 1910 1419 c 0
 1770.67 1371.67 1676.33 1339.33 1627 1322 c 0
 1604.33 1314 1601.33 1321.67 1618 1345 c 2
 1633 1366 l 2
 1643 1380 1654.67 1389.33 1668 1394 c 2
 2131 1556 l 2
EndSplineSet
EndChar
StartChar: uniFDFB
Encoding: 65019 65019 6092
Width: 1902
UnlinkRmOvrlpSave: 1
Flags: HW
LayerCount: 2
Fore
SplineSet
1780 1617 m 2
 1812.66666667 1629 1821.33333333 1622.33333333 1806 1597 c 2
 1780 1556 l 2
 1772.66666667 1544 1763.33333333 1536 1752 1532 c 2
 1054 1287 l 2
 1026.66666667 1277.66666667 1023.33333333 1287 1044 1315 c 2
 1062 1340 l 2
 1074 1356.66666667 1088 1368 1104 1374 c 2
 1780 1617 l 2
1814 1142 m 2
 1846 1153.33333333 1854.33333333 1146.66666667 1839 1122 c 2
 1814 1081 l 2
 1810 1074.33333333 1802.33333333 1068.33333333 1791 1063 c 2
 1338 908 l 2
 1310.66666667 898.666666667 1307 908 1327 936 c 2
 1345 961 l 2
 1357 977.666666667 1371 988.666666667 1387 994 c 2
 1814 1142 l 2
1287 208 m 1
 1226.33333333 243.333333333 1170 261 1118 261 c 0
 1088.66666667 261 1062 250.166666667 1038 228.5 c 128
 1014 206.833333333 994.666666667 175.666666667 980 135 c 1
 980.666666667 135 981.5 134.666666667 982.5 134 c 128
 983.5 133.333333333 984.333333333 132.666666667 985 132 c 1
 1029.66666667 130.666666667 1110 145.333333333 1226 176 c 1
 1287 192 l 2
 1291.66666667 192.666666667 1294.66666667 194.666666667 1296 198 c 0
 1296.66666667 200 1293.66666667 203.333333333 1287 208 c 1
1377 324 m 0
 1415.66666667 306.666666667 1463.33333333 290 1520 274 c 0
 1572.66666667 260.666666667 1627 254 1683 254 c 0
 1691 254 1697.66666667 251.833333333 1703 247.5 c 128
 1708.33333333 243.166666667 1709 236.666666667 1705 228 c 0
 1688.33333333 190.666666667 1675.33333333 164.333333333 1666 149 c 128
 1656.66666667 133.666666667 1648 126 1640 126 c 0
 1588.66666667 132.666666667 1531.5 130.333333333 1468.5 119 c 128
 1405.5 107.666666667 1348.66666667 93.3333333333 1298 76 c 0
 1158 28 1070 3 1034 1 c 0
 917.333333333 -7.66666666667 845 54.3333333333 817 187 c 1
 818.333333333 127.666666667 814.333333333 86 805 62 c 0
 793 31.3333333333 760.666666667 -2.66666666667 708 -40 c 0
 602.666666667 -115.333333333 503.666666667 -153.666666667 411 -155 c 0
 315.666666667 -156.333333333 241 -130.666666667 187 -78 c 0
 132.333333333 -24.6666666667 111.166666667 48.3333333333 123.5 141 c 128
 135.833333333 233.666666667 177.666666667 327.666666667 249 423 c 0
 253 428.333333333 258.5 430.833333333 265.5 430.5 c 128
 272.5 430.166666667 277.166666667 427.333333333 279.5 422 c 128
 281.833333333 416.666666667 280 409.333333333 274 400 c 0
 194.666666667 280.666666667 170.666666667 185.666666667 202 115 c 0
 239.333333333 28.3333333333 325 -11 459 -3 c 0
 569.666666667 3.66666666667 668.666666667 50 756 136 c 1
 675 1302 l 2
 672.333333333 1338.66666667 673.333333333 1362.66666667 678 1374 c 2
 712 1459 l 2
 726.666666667 1491.66666667 736.333333333 1482 741 1430 c 0
 789 861 l 2
 813.666666667 563.666666667 833 383.666666667 847 321 c 0
 865.666666667 239.666666667 897.333333333 185 942 157 c 1
 967.333333333 208.333333333 997.333333333 255.333333333 1032 298 c 0
 1086.66666667 367.333333333 1130.83333333 401.666666667 1164.5 401 c 128
 1198.16666667 400.333333333 1269 374.666666667 1377 324 c 0
696 476 m 0
 696 456.666666667 691 445.333333333 681 442 c 0
 665.666666667 437.333333333 657 445.333333333 655 466 c 0
 631.666666667 677.333333333 526 884.333333333 338 1087 c 0
 326 1099.66666667 317.333333333 1101.66666667 312 1093 c 2
 301 1077 l 2
 297 1070.33333333 290.666666667 1067.33333333 282 1068 c 0
 281.333333333 1068 270.333333333 1076.33333333 249 1093 c 2
 180 1149 l 1
 166.666666667 1165.66666667 161.333333333 1182 164 1198 c 2
 184 1332 l 2
 185.333333333 1341.33333333 193 1347.66666667 207 1351 c 0
 221.666666667 1354.33333333 233.333333333 1351.33333333 242 1342 c 0
 540.666666667 1050 692 761.333333333 696 476 c 0
1401 62 m 2
 1403.66666667 66 1407.66666667 67.3333333333 1413 66 c 0
 1450.33333333 53.3333333333 1484.33333333 33.3333333333 1515 6 c 0
 1519 2 1520 -2.66666666667 1518 -8 c 2
 1449 -116 l 2
 1445.66666667 -120 1440.66666667 -119.333333333 1434 -114 c 128
 1427.33333333 -108.666666667 1394 -87.6666666667 1334 -51 c 0
 1330 -48.3333333333 1329.33333333 -45.3333333333 1332 -42 c 2
 1401 62 l 2
1784 134 m 2
 1786.66666667 138 1790.66666667 138.666666667 1796 136 c 0
 1833.33333333 123.333333333 1867 103.333333333 1897 76 c 0
 1901 72 1901.66666667 68 1899 64 c 2
 1831 -45 l 2
 1827.66666667 -49 1822.66666667 -48.1666666667 1816 -42.5 c 128
 1809.33333333 -36.8333333333 1776 -15.6666666667 1716 21 c 0
 1712 23.6666666667 1711 26.6666666667 1713 30 c 2
 1784 134 l 2
867 1442 m 2
 906 1501 l 2
 922.666666667 1526.33333333 931.666666667 1521 933 1485 c 0
 956.333333333 1057 990.333333333 748.666666667 1035 560 c 0
 1052.33333333 488 1080.66666667 441.333333333 1120 420 c 1
 1152 487.333333333 1189 544 1231 590 c 0
 1279.66666667 646.666666667 1319.66666667 674.333333333 1351 673 c 0
 1385.66666667 671.666666667 1440 654 1514 620 c 0
 1654.66666667 556 1776 524.666666667 1878 526 c 0
 1900.66666667 526 1907.66666667 517 1899 499 c 0
 1881.66666667 461.666666667 1868.5 435.5 1859.5 420.5 c 128
 1850.5 405.5 1842 398 1834 398 c 0
 1736.66666667 409.333333333 1618.66666667 392 1480 346 c 0
 1308 288.666666667 1191.33333333 263.666666667 1130 271 c 0
 1027.33333333 283.666666667 964.666666667 391.333333333 942 594 c 0
 928.666666667 715.333333333 920 777.333333333 916 780 c 0
 912.666666667 780.666666667 908.666666667 758.666666667 904 714 c 0
 880 494.666666667 821 335.666666667 727 237 c 0
 684.333333333 193.666666667 637.333333333 165.666666667 586 153 c 0
 428.666666667 115.666666667 350 107 350 127 c 0
 350 133.666666667 352.666666667 138 358 140 c 0
 420.666666667 163.333333333 501.333333333 205.333333333 600 266 c 128
 698.666666667 326.666666667 761.666666667 383.333333333 789 436 c 0
 825.666666667 508.666666667 850.666666667 603.666666667 864 721 c 128
 877.333333333 838.333333333 875.333333333 1042.66666667 858 1334 c 0
 854.666666667 1390.66666667 857.666666667 1426.66666667 867 1442 c 2
1476 481 m 1
 1416 515.666666667 1358.66666667 533.333333333 1304 534 c 0
 1274.66666667 534 1247.33333333 522.666666667 1222 500 c 128
 1196.66666667 477.333333333 1176.33333333 445.333333333 1161 404 c 1
 1205.66666667 400.666666667 1289.66666667 415.333333333 1413 448 c 1
 1474 464 l 2
 1478.66666667 464.666666667 1481.83333333 466.5 1483.5 469.5 c 128
 1485.16666667 472.5 1482.66666667 476.333333333 1476 481 c 1
479 1451.5 m 128
 482.333333333 1462.5 487.666666667 1467.5 495 1466.5 c 128
 502.333333333 1465.5 507.666666667 1460.66666667 511 1452 c 0
 524.333333333 1410.66666667 544.666666667 1377.33333333 572 1352 c 0
 582.666666667 1342.66666667 582.666666667 1330.16666667 572 1314.5 c 128
 561.333333333 1298.83333333 550.666666667 1283.66666667 540 1269 c 1
 537.333333333 1267.66666667 546.833333333 1198.5 568.5 1061.5 c 128
 590.166666667 924.5 603 821.666666667 607 753 c 128
 611 684.333333333 609.333333333 614.666666667 602 544 c 0
 587.333333333 406.666666667 550 337.333333333 490 336 c 0
 457.333333333 334.666666667 428 344.666666667 402 366 c 0
 346.666666667 413.333333333 307.333333333 504.666666667 284 640 c 1
 262.666666667 559.333333333 237.333333333 516.833333333 208 512.5 c 128
 178.666666667 508.166666667 142.666666667 508 100 512 c 128
 57.3333333333 516 32 522.333333333 24 531 c 0
 2.66666666667 552.333333333 -4.33333333333 573.666666667 3 595 c 0
 33.6666666667 668.333333333 55.3333333333 712.333333333 68 727 c 0
 108 769.666666667 167.666666667 806.666666667 247 838 c 1
 241 897 l 2
 238.333333333 915.666666667 239.333333333 929 244 937 c 2
 277 1003 l 2
 286.333333333 1022.33333333 294 1015 300 981 c 1
 314.666666667 845.666666667 337 729.666666667 367 633 c 0
 388.333333333 561 432.333333333 515 499 495 c 0
 521.666666667 491 536.666666667 490.666666667 544 494 c 1
 556 514.666666667 558.5 565.5 551.5 646.5 c 128
 544.5 727.5 527.5 860.5 500.5 1045.5 c 128
 473.5 1230.5 458 1331 454 1347 c 128
 450 1363 452.333333333 1381.66666667 461 1403 c 128
 469.666666667 1424.33333333 475.666666667 1440.5 479 1451.5 c 128
258 764 m 1
 230.666666667 759.333333333 199.5 747.833333333 164.5 729.5 c 128
 129.5 711.166666667 103.666666667 687.333333333 87 658 c 1
 126.333333333 630.666666667 180.333333333 626.666666667 249 646 c 0
 261 649.333333333 268 662.666666667 270 686 c 1
 258 764 l 1
EndSplineSet
EndChar
StartChar: uniFDFD
Encoding: 65021 65021 5606
Width: 23420
Flags: HW
LayerCount: 2
Fore
SplineSet
5714 260 m 1
 5728.67 248.67 5742 235.67 5754 221 c 0
 5810 149 5832.33 87.67 5821 37 c 0
 5810.33 -13.67 5791.33 -56.33 5764 -91 c 0
 5757.33 -99.67 5752.33 -104.33 5749 -105 c 1
 5621 -97 5500.67 -55.67 5388 19 c 1
 5348 -76.33 5287.67 -137.67 5207 -165 c 0
 5126.33 -192.33 5046 -192.33 4966 -165 c 1
 4960.67 -191 4944 -240.67 4916 -314 c 1
 4784 -560 4491.67 -763.33 4039 -924 c 0
 3585 -1085.33 3087.33 -1161 2546 -1151 c 0
 2302.67 -1147 2069.67 -1110.67 1847 -1042 c 0
 1624.33 -972.67 1457.33 -899.33 1346 -822 c 0
 1276.67 -774.67 1196.33 -702.67 1105 -606 c 0
 1013.67 -509.33 939.33 -422.67 882 -346 c 1
 883.33 -344 885 -341 887 -337 c 0
 889 -333 890.33 -330.67 891 -330 c 1
 1120.33 -522 1387.67 -674.33 1693 -787 c 0
 1998.33 -899.67 2305 -958 2613 -962 c 0
 3245.67 -971.33 3828.67 -852 4362 -604 c 0
 4636.67 -476.67 4806 -366.67 4870 -274 c 0
 4876 -265.33 4879.33 -258.67 4880 -254 c 0
 4878.67 -193.33 4862 -126.67 4830 -54 c 0
 4826 -44.67 4826 -36 4830 -28 c 2
 4884 86 l 2
 4902.67 126 4918.33 133.33 4931 108 c 0
 4961.67 48.67 5022.33 13.33 5113 2 c 0
 5203.67 -9.33 5287.33 11.67 5364 65 c 1
 5405.33 167 5448.67 237 5494 275 c 1
 5714 260 l 1
5543 195 m 0
 5515.67 195 5493.33 183.33 5476 160 c 1
 5566.67 107.33 5651.67 77.67 5731 71 c 1
 5719 101.67 5691.67 130 5649 156 c 0
 5605.67 182 5570.33 195 5543 195 c 0
2603 278 m 1
 2603 276 2603 276 2603 275 c 0
 2664.33 204.33 2714.67 169.67 2754 171 c 0
 2794 172.33 2844 187 2904 215 c 0
 2964 242.33 3002 259.67 3018 267 c 1
 2971.33 305.67 2912.67 332.67 2842 348 c 0
 2771.33 364 2725.67 370.33 2705 367 c 0
 2684.33 362.33 2671 363 2665 369 c 0
 2659 375 2657 382.67 2659 392 c 0
 2670.33 434 2699 472.33 2745 507 c 0
 2791 541.67 2849 548.67 2919 528 c 0
 2945 520 2977 507 3015 489 c 0
 3209.67 395.67 3409 339.67 3613 321 c 1
 3643 323 3652 310.67 3640 284 c 1
 3570 177 l 1
 3562 161 3547.33 154.33 3526 157 c 0
 3359.33 184.33 3224.33 183.33 3121 154 c 1
 3077 139.33 3016 117.33 2938 88 c 0
 2860 58.67 2796 38.33 2746 27 c 1
 2721.33 22.33 2694.67 28.67 2666 46 c 0
 2636.67 62.67 2612 90.67 2592 130 c 1
 2364 -4.67 2077.33 -69.67 1732 -65 c 1
 1418.67 -61 1203.33 -33.33 1086 18 c 1
 1033 -45 l 2
 1010.33 -72.33 976.67 -83.67 932 -79 c 0
 819.33 -65.67 734 -34.33 676 15 c 1
 653.33 21.67 636.67 19.67 626 9 c 1
 586 -41.67 554.33 -78 531 -100 c 0
 508.33 -122 465.67 -147 403 -175 c 0
 340.33 -202.33 268 -217.33 186 -220 c 0
 166.67 -220 155 -215.33 151 -206 c 1
 147.67 -194 154 -184 170 -176 c 0
 324 -110 451.67 -40.33 553 33 c 0
 575.67 49.67 593.33 64.33 606 77 c 1
 610.67 83 613 92.33 613 105 c 1
 604.33 152.33 624.67 212 674 284 c 0
 676 287.33 689 306.33 713 341 c 0
 762.33 415.67 797.33 439.67 818 413 c 1
 952 227 1249.33 127.33 1710 114 c 0
 2061.33 104 2359 158.67 2603 278 c 1
792 306 m 1
 763.33 300.67 743 289 731 271 c 1
 727 213.67 779.67 172.67 889 148 c 1
 848.33 190.67 816 243.33 792 306 c 1
23061 536 m 0
 23066.33 536 23071.33 532 23076 524 c 0
 23213.33 277.33 23280 46.67 23276 -168 c 0
 23272.67 -326 23237.67 -413.33 23171 -430 c 0
 23116.33 -443.33 23064 -439.33 23014 -418 c 0
 22963.33 -396.67 22928 -375.67 22908 -355 c 1
 22887.33 -405.67 22866 -442.67 22844 -466 c 0
 22822 -488.67 22784.33 -494 22731 -482 c 0
 22678.33 -470 22622.33 -443.67 22563 -403 c 1
 22523 -463.67 22461.33 -504.67 22378 -526 c 0
 22294.67 -547.33 22223.67 -542.33 22165 -511 c 0
 22135 -495 22114.33 -475.33 22103 -452 c 1
 21309 -572.67 20309 -666 19103 -732 c 0
 18214.33 -780 17313.67 -804.67 16401 -806 c 0
 14191.67 -808 12459 -728.33 11203 -567 c 0
 10467 -471.67 10000 -381 9802 -295 c 1
 9781 -321 l 1
 9758.33 -348.33 9724 -359.33 9678 -354 c 0
 9565.33 -340.67 9480.33 -309.33 9423 -260 c 1
 9400.33 -253.33 9383.67 -255.67 9373 -267 c 1
 9333.67 -317.67 9302.33 -354 9279 -376 c 0
 9256.33 -398 9212.33 -423.33 9147 -452 c 0
 9081.67 -480.67 9010.67 -495 8934 -495 c 0
 8914.67 -495 8903 -490.33 8899 -481 c 1
 8895.67 -469 8901.67 -459.33 8917 -452 c 0
 9071 -386 9198.67 -316 9300 -242 c 0
 9322.67 -225.33 9340.33 -210.67 9353 -198 c 1
 9357.67 -192 9360 -183 9360 -171 c 1
 9350.67 -119 9371.33 -59.33 9422 8 c 0
 9424 11.33 9436.67 30.33 9460 65 c 0
 9506.67 135 9540.33 166.67 9561 160 c 0
 9572.33 156 9580.33 151 9585 145 c 0
 9663.67 35.67 9742.33 -44.67 9821 -96 c 1
 10297 -274.67 11121.33 -408.33 12294 -497 c 0
 13466 -587 14835 -633.33 16401 -636 c 0
 18278.33 -639.33 19941 -550.33 21389 -369 c 0
 21739.67 -325 22005 -285.67 22185 -251 c 1
 22185 -254 l 1
 22186 -254 l 1
 22186.67 -298.67 22197.67 -327.67 22219 -341 c 0
 22239.67 -354.33 22290 -359 22370 -355 c 0
 22450 -351.67 22508.33 -334.67 22545 -304 c 0
 22581.67 -273.33 22612.33 -227.33 22637 -166 c 0
 22645.67 -145.33 22656 -138.67 22668 -146 c 0
 22680 -154 22683.67 -164.67 22679 -178 c 0
 22664.33 -224 22669.67 -254.67 22695 -270 c 0
 22732.33 -294 22775.33 -306.33 22824 -307 c 1
 22844.67 -307 22859.33 -298 22868 -280 c 0
 22876.67 -261.33 22886.33 -236 22897 -204 c 0
 22907.67 -172 22914.33 -154.33 22917 -151 c 0
 22930.33 -140.33 22941 -144.33 22949 -163 c 1
 23000.33 -233 23078.67 -272.33 23184 -281 c 1
 23193.33 -283 23198 -276 23198 -260 c 0
 23197.33 -177.33 23168 -61.33 23110 88 c 0
 23052.67 237.33 23018 313.33 23006 316 c 0
 23002 317.33 22996.67 314.33 22990 307 c 0
 22983.33 299 22974.33 297.33 22963 302 c 0
 22952.33 306.67 22950 316.67 22956 332 c 0
 22983.33 402 23006.33 453.33 23025 486 c 0
 23043.67 519.33 23055.67 536 23061 536 c 0
9547 31 m 1
 9515 26.33 9492 14.67 9478 -4 c 1
 9474.67 -53.33 9511.33 -90 9588 -114 c 0
 9596 -116 9604 -118.33 9612 -121 c 1
 9588 -79.67 9566.33 -29 9547 31 c 1
EndSplineSet
Refer: 385 -1 N 1 0 0 1 5632 -184 2
Refer: 142 -1 N 1 0 0 1 8769 -306 2
Refer: 143 -1 N 1 0 0 1 8295 -306 2
Refer: 144 -1 N 1 0 0 1 7574 -306 2
Refer: 163 -1 N 1 0 0 1 5876 -318 2
Refer: 162 -1 N 1 0 0 1 6775 -318 2
Refer: 163 -1 N 1 0 0 1 2945 -135 2
Refer: 162 -1 N 1 0 0 1 3845 -136 2
Refer: 191 -1 N 1 0 0 1 23243 -791 2
Refer: 192 -1 N 1 0 0 1 2276 -482 2
Refer: 191 -1 N 1 0 0 1 4314 -289 2
Refer: 2 -1 N 1 0 0 1 9270 174 2
Refer: 2 -1 N 1 0 0 1 7156 -77 2
Refer: 2 -1 N 1 0 0 1 4202 114 2
Refer: 235 1614 N 1 0 0 1 22709 -2973 2
Refer: 235 1614 N 1 0 0 1 9050 -2666 2
Refer: 235 1614 N 1 0 0 1 7363 -2600 2
Refer: 235 1614 N 1 0 0 1 4974 -677 2
Refer: 235 1614 N 1 0 0 1 4198 -2810 2
Refer: 235 1614 N 1 0 0 1 2502 -2129 2
Refer: 235 1614 N 1 0 0 1 -84 -2498 2
Refer: 270 -1 N 1 0 0 1 8517 -615 2
Refer: 238 1617 N 1 0 0 1 8108 -717 2
Refer: 270 -1 N 1 0 0 1 6500 -805 2
Refer: 238 1617 N 1 0 0 1 6091 -906 2
Refer: 270 -1 N 1 0 0 1 3587 -734 2
Refer: 238 1617 N 1 0 0 1 3179 -835 2
Refer: 255 1648 N 1 0 0 1 4766 -1624 2
Refer: 257 -1 N 1 0 0 1 8969 283 2
Refer: 257 -1 N 1 0 0 1 6891 126 2
Refer: 257 -1 N 1 0 0 1 3894 241 2
Refer: 4552 1761 N 1 0 0 1 22133 -1481 2
Refer: 4552 1761 N 1 0 0 1 5500 -870 2
EndChar
StartChar: u1EE00
Encoding: 126464 126464 5914
Width: 424
Flags: HW
LayerCount: 2
Fore
SplineSet
220 1398 m 9
 309 1099 l 26
 316.33 1074.33 315.67 1059.67 307 1055 c 0
 299 1050.33 286.67 1058.67 270 1080 c 2
 159 1223 l 1
 220 1398 l 9
EndSplineSet
Refer: 444 1575 N 1 0 0 1 -13 0 2
EndChar
StartChar: u1EE03
Encoding: 126467 126467 5917
Width: 979
Flags: HW
LayerCount: 2
Fore
SplineSet
859 997 m 0
 860.333333333 1007 855.666666667 1016.33333333 845 1025 c 0
 824.333333333 1041.66666667 787 1048.66666667 733 1046 c 0
 644.333333333 1041.33333333 562.333333333 990.666666667 487 894 c 0
 426.002604167 815.182942708 385.3359375 730.182942708 365 639 c 8
 344.33984375 546.363932292 360.33984375 476.030598959 413 428 c 0
 473.666666667 372.666666667 559.333333333 323.333333333 670 280 c 0
 705.333333333 266.666666667 707.666666667 249.333333333 677 228 c 0
 567.060546875 154.0859375 391.727213541 74.4192708333 151 -11 c 0
 130.333333333 -18.3333333333 120 -29 120 -43 c 3
 120 -60.947265625 132 -69.6139322917 156 -69 c 8
 312.248697917 -65.0032552083 443.58203125 -52.669921875 550 -32 c 24
 606.569010417 -21.0123697917 648.569010417 0.320963541667 676 32 c 24
 715.7265625 77.87890625 749.059895833 143.545572917 776 229 c 24
 794.583333333 287.946614583 798.287109375 339.76171875 787.111328125 384.4453125 c 24
 777.00390625 424.856119792 753.00390625 454.189453125 715.111328125 472.4453125 c 0
 520.863932292 567.413411459 429.826822917 636.264973959 442 679 c 0
 456 727.666666667 502.5 770.666666667 581.5 808 c 136
 660.5 845.333333333 730.666666667 852.333333333 792 829 c 0
 804 824.333333333 812.666666667 829.333333333 818 844 c 24
 839.458333333 901.9375 853.125 952.9375 859 997 c 0
EndSplineSet
EndChar
StartChar: u1EE24
Encoding: 126500 126500 5947
Width: 1226
Flags: HW
AnchorPoint: "TashkilAbove" 731.721 1678 basechar 0
AnchorPoint: "TashkilBelow" 731.721 -632 basechar 0
LayerCount: 2
Fore
SplineSet
484.25 574 m 0
 516.25 697.333333333 561.416666667 757.666666667 619.75 755 c 128
 678.083333333 752.333333333 769.916666667 691.333333333 895.25 572 c 128
 1020.58333333 452.666666667 1089.25 357 1101.25 285 c 0
 1116.58333333 195.666666667 1095.25 116.333333333 1037.25 47 c 0
 1007.91666667 12.3333333333 972.25 -3 930.25 1 c 0
 822.25 12.3333333333 705.583333333 42 580.25 90 c 1
 542.4375 51.6555989583 453.104166667 11.6555989583 312.25 -30 c 0
 297.08203125 -34.4921875 279.794921875 -31.4931640625 260.388671875 -21.0029296875 c 2
 166.043945312 24.6748046875 l 2
 107.319335937 53.1070963542 104.767903646 72.7874348958 158.389648438 83.7158203125 c 0
 306.165690105 113.68326823 403.452473959 138.111328125 450.25 157 c 1
 412.25 188.333333333 401.583333333 230 418.25 282 c 0
 446.916666667 370 497.25 445.666666667 569.25 509 c 1
 555.25 531 532.916666667 544 502.25 548 c 0
 486.25 550 480.25 558.666666667 484.25 574 c 0
633.25 252 m 1
 678.583333333 274.666666667 701.25 293 701.25 307 c 1
 695.916666667 378.333333333 674.583333333 417.666666667 637.25 425 c 0
 581.916666667 436.333333333 530.916666667 412.666666667 484.25 354 c 24
 470.916666667 337.333333333 475.916666667 321.333333333 499.25 306 c 128
 522.583333333 290.666666667 567.25 272.666666667 633.25 252 c 1
787.25 400 m 0
 781.916666667 404 779.583333333 403 780.25 397 c 0
 786.25 353 762.583333333 296.333333333 709.25 227 c 1
 868.583333333 177 962.25 160.333333333 990.25 177 c 0
 998.916666667 181.666666667 1002.25 187.333333333 1000.25 194 c 0
 974.25 258 903.25 326.666666667 787.25 400 c 0
EndSplineSet
EndChar
StartChar: u1EE27
Encoding: 126503 126503 5948
Width: 1940
Flags: W
LayerCount: 2
Fore
SplineSet
586 393 m 0,0,1
 614 481 614 481 685 556 c 0,2,3
 764 640 764 640 844.5 641 c 128,-1,4
 925 642 925 642 1205 525 c 0,5,6
 1307 482 1307 482 1464.5 452.5 c 128,-1,7
 1622 423 1622 423 1788 434 c 0,8,9
 1833 437 1833 437 1815 398 c 2,10,-1
 1758 272 l 2,11,12
 1747 247 1747 247 1714 253 c 0,13,14
 1492 294 1492 294 1276 222 c 0,15,16
 1123 171 1123 171 872 53 c 0,17,18
 698 -28 698 -28 518 -32 c 0,19,20
 397 -34 397 -34 331 -12 c 0,21,22
 192 36 192 36 136 102 c 0,23,24
 100 144 100 144 145 141 c 0,25,26
 364 121 364 121 580 138 c 0,27,28
 818 157 818 157 1152 333 c 1,29,30
 943 452 943 452 795 442 c 0,31,32
 704 436 704 436 626 371 c 0,33,34
 607 356 607 356 592 368 c 0,35,36
 581 379 581 379 586 393 c 0,0,1
EndSplineSet
EndChar
StartChar: u1EE47
Encoding: 126535 126535 6040
Width: 1657
Flags: HW
LayerCount: 2
Fore
SplineSet
1277 1107 m 2
 1228 997 l 2
 1222.66666667 985.666666667 1215 979.333333333 1205 978 c 0
 878.333333333 934.666666667 649.666666667 870.333333333 519 785 c 0
 264.333333333 618.333333333 164 415.666666667 218 177 c 0
 254 19 366 -87 554 -141 c 0
 732 -192.333333333 933.666666667 -180.666666667 1159 -106 c 0
 1364.33333333 -38 1486.66666667 -91.3333333333 1526 -266 c 0
 1542 -334.666666667 1542.33333333 -410.666666667 1527 -494 c 1
 1444 -504 l 1
 1446.66666667 -420 1437.33333333 -352 1416 -300 c 0
 1384.66666667 -230.666666667 1323.66666667 -222 1233 -274 c 0
 1070.33333333 -361.333333333 911.666666667 -404.666666667 757 -404 c 0
 557.666666667 -403.333333333 399.666666667 -348.666666667 283 -240 c 0
 141 -107.333333333 91.6666666667 90.6666666667 135 354 c 0
 179 622 344.333333333 824.666666667 631 962 c 1
 446.333333333 1006.66666667 308 1002 216 948 c 0
 208 943.333333333 200.166666667 941.833333333 192.5 943.5 c 128
 184.833333333 945.166666667 181 949.666666667 181 957 c 0
 182.333333333 989 189.333333333 1022.66666667 202 1058 c 0
 227.333333333 1129.33333333 293 1168 399 1174 c 0
 451.666666667 1176.66666667 535.666666667 1166.66666667 651 1144 c 128
 766.333333333 1121.33333333 863.833333333 1110.66666667 943.5 1112 c 128
 1023.16666667 1113.33333333 1121.33333333 1124 1238 1144 c 0
 1278 1150.66666667 1291 1138.33333333 1277 1107 c 2
EndSplineSet
EndChar
StartChar: u1EE4F
Encoding: 126543 126543 6044
Width: 1657
Flags: HW
LayerCount: 2
Fore
SplineSet
565 -384 m 0
 258.33 -324.67 110 -139.67 120 171 c 0
 130 473 221.33 708.33 394 877 c 1
 286.67 919.67 216 964.67 182 1012 c 0
 168 1031.33 162 1053 164 1077 c 0
 169.33 1141 186.33 1199.33 215 1252 c 0
 277.67 1370 350.67 1449.33 434 1490 c 0
 474 1509.33 522.17 1502.5 578.5 1469.5 c 128
 634.83 1436.5 674.67 1403.33 698 1370 c 0
 712.67 1349.33 703.67 1342.33 671 1349 c 0
 495 1384.33 349.67 1325.33 235 1172 c 0
 229 1164 230.67 1155.33 240 1146 c 0
 336.67 1056.67 449 1019.67 577 1035 c 0
 599 1037.67 631 1051.67 673 1077 c 0
 832.33 1175.67 922.33 1230 943 1240 c 0
 968.33 1252 974.67 1240.33 962 1205 c 0
 931.33 1118.33 907.33 1071 890 1063 c 0
 779.33 1013.67 644 930.33 484 813 c 0
 306.67 683 205.67 506 181 282 c 0
 168.33 164.67 197.33 61 268 -29 c 0
 334 -112.33 448.67 -169 612 -199 c 0
 788 -231 970 -216.67 1158 -156 c 0
 1370 -88 1492.67 -124.67 1526 -266 c 0
 1542 -334.67 1542 -410.67 1526 -494 c 1
 1444 -504 l 1
 1447.33 -418 1437.67 -350 1415 -300 c 0
 1385.67 -232.67 1325 -224 1233 -274 c 0
 1139.67 -324.67 1054.67 -358.33 978 -375 c 0
 838 -406.33 700.33 -409.33 565 -384 c 0
EndSplineSet
EndChar
StartChar: u1EE80
Encoding: 126592 126592 6011
Width: 735
Flags: HW
LayerCount: 2
Fore
SplineSet
389.122070312 42 m 1
 391.122070312 141.333333333 390.122070312 228.666666667 386.122070312 304 c 1
 333.455403645 346.666666667 275.122070312 352 211.122070312 320 c 0
 199.122070312 314 188.788736979 306.333333333 180.122070312 297 c 1
 177.455403645 269.666666667 178.122070312 237.666666667 182.122070312 201 c 0
 192.788736979 103 230.122070312 44.6666666667 294.122070312 26 c 1
 336.788736979 15.3333333333 368.455403645 20.6666666667 389.122070312 42 c 1
464.122070312 420 m 1
 478.122070312 404.666666667 492.122070312 387 506.122070312 367 c 0
 577.455403645 257.666666667 613.788736979 101.333333333 615.122070312 -102 c 0
 615.122070312 -112 611.122070312 -130.833333333 603.122070312 -158.5 c 128
 595.122070312 -186.166666667 585.455403645 -207.166666667 574.122070312 -221.5 c 128
 562.788736979 -235.833333333 557.122070312 -236 557.122070312 -222 c 0
 555.788736979 -38 523.788736979 106.666666667 461.122070312 212 c 1
 454.455403645 122 440.455403645 56 419.122070312 14 c 0
 389.122070312 -44.6666666667 364.455403645 -81.3333333333 345.122070312 -96 c 0
 315.788736979 -119.333333333 281.788736979 -125.666666667 243.122070312 -115 c 0
 175.788736979 -96.3333333333 136.122070312 -33 124.122070312 75 c 0
 115.455403645 151 120.455403645 220 139.122070312 282 c 0
 167.122070312 376.666666667 205.788736979 436 255.122070312 460 c 0
 295.122070312 480 333.122070312 486 369.122070312 478 c 1
 360.455403645 550.666666667 347.788736979 662.333333333 331.122070312 813 c 2
 287.122070312 1214 l 2
 284.455403645 1237.33333333 288.122070312 1260.33333333 298.122070312 1283 c 2
 343.122070312 1388 l 2
 363.122070312 1434.66666667 375.788736979 1436 381.122070312 1392 c 1
 428.122070312 874 l 1
 448.122070312 696.666666667 460.122070312 545.333333333 464.122070312 420 c 1
EndSplineSet
EndChar
StartChar: u1EE81
Encoding: 126593 126593 6012
Width: 1877
VWidth: 0
Flags: W
LayerCount: 2
Fore
SplineSet
234.875976562 614 m 0,0,1
 310.875976562 703 310.875976562 703 393.875976562 719 c 0,2,3
 437.875976562 728 437.875976562 728 510.875976562 713 c 0,4,5
 720.875976562 668 720.875976562 668 798.875976562 409 c 0,6,7
 827.875976562 314 827.875976562 314 823.875976562 187 c 1,8,9
 1345.87597656 195 1345.87597656 195 1679.87597656 388 c 1,10,11
 1672.87597656 461 1672.87597656 461 1581.87597656 583 c 0,12,13
 1575.87597656 591 1575.87597656 591 1585.87597656 638 c 0,14,15
 1595.87597656 685 1595.87597656 685 1632.87597656 761 c 0,16,17
 1645.87597656 789 1645.87597656 789 1670.87597656 761 c 0,18,19
 1728.87597656 694 1728.87597656 694 1748.87597656 576 c 0,20,21
 1767.87597656 458 1767.87597656 458 1743.87597656 346 c 0,22,23
 1719.87597656 234 1719.87597656 234 1662.87597656 202 c 0,24,25
 1335.87597656 10 1335.87597656 10 843.875976562 -14 c 0,26,27
 821.875976562 -15 821.875976562 -15 800.875976562 -15 c 1,28,29
 772.875976562 -165 772.875976562 -165 712.875976562 -346 c 0,30,31
 700.875976562 -382 700.875976562 -382 654.875976562 -429 c 0,32,33
 607.875976562 -476 607.875976562 -476 619.875976562 -440 c 0,34,35
 699.875976562 -199 699.875976562 -199 719.875976562 -16 c 1,36,37
 329.875976562 -11 329.875976562 -11 183.875976562 170 c 0,38,39
 74.8759765625 304 74.8759765625 304 151.875976562 484 c 0,40,41
 177.875976562 546 177.875976562 546 234.875976562 614 c 0,0,1
723.875976562 188 m 1,42,43
 717.875976562 247 717.875976562 247 702.875976562 297 c 0,44,45
 626.875976562 550 626.875976562 550 419.875976562 594 c 0,46,47
 281.875976562 624 281.875976562 624 237.875976562 526 c 0,48,49
 215.875976562 478 215.875976562 478 226.875976562 443 c 0,50,51
 291.875976562 205 291.875976562 205 723.875976562 188 c 1,42,43
EndSplineSet
Refer: 194 -1 N 1 0 0 1 989.876 -540 2
EndChar
StartChar: u1EE83
Encoding: 126595 126595 6014
Width: 921
Flags: HW
LayerCount: 2
Fore
SplineSet
247.74 208 m 0
 290.41 188.67 341.41 182.67 400.74 190 c 0
 431.41 194 460.07 198 486.74 202 c 1
 479.41 217.33 471.41 231.67 462.74 245 c 0
 398.07 349 319.41 382.33 226.74 345 c 1
 196.74 333.67 182.41 315.33 183.74 290 c 0
 186.41 254 207.74 226.67 247.74 208 c 0
616.74 39 m 1
 620.07 2.33 621.74 -36.33 621.74 -77 c 0
 621.74 -102.33 612.07 -134.83 592.74 -174.5 c 128
 573.41 -214.17 563.41 -221.67 562.74 -197 c 0
 562.07 -118.33 556.07 -46.67 544.74 18 c 1
 470.07 -0.67 390.41 -10.67 305.74 -12 c 0
 283.74 -12 264.41 -9.33 247.74 -4 c 0
 167.74 23.33 125.41 78 120.74 160 c 0
 116.07 236 133.41 313.33 172.74 392 c 0
 194.74 436 227.74 467 271.74 485 c 0
 367.74 525.67 449.74 491.67 517.74 383 c 0
 546.41 337 569.07 283 585.74 221 c 1
 648.41 235 695.07 250.67 725.74 268 c 0
 730.41 270.67 731.74 278.67 729.74 292 c 0
 709.74 424.67 598.74 531.33 396.74 612 c 0
 370.07 622.67 360.07 638.33 366.74 659 c 0
 388.74 725.67 408.41 769 425.74 789 c 0
 437.07 802.33 452.41 803.67 471.74 793 c 0
 653.74 692.33 760.07 558 790.74 390 c 0
 808.07 295.33 804.07 212 778.74 140 c 0
 771.41 118.67 757.07 102.33 735.74 91 c 0
 697.74 70.33 658.07 53 616.74 39 c 1
EndSplineSet
EndChar
StartChar: u1EE84
Encoding: 126596 126596 6037
Width: 1460
Flags: HW
LayerCount: 2
Fore
SplineSet
1021.45 485 m 0
 1016.12 489 1013.78 488 1014.45 482 c 0
 1020.45 438 996.78 381.33 943.45 312 c 1
 1102.78 262 1196.45 245.33 1224.45 262 c 0
 1233.12 266.67 1236.45 272.33 1234.45 279 c 0
 1208.45 343 1137.45 411.67 1021.45 485 c 0
867.45 337 m 1
 912.78 359.67 935.45 378 935.45 392 c 1
 930.12 463.33 908.78 502.67 871.45 510 c 0
 816.12 521.33 765.12 497.67 718.45 439 c 24
 705.12 422.33 710.12 406.33 733.45 391 c 128
 756.78 375.67 801.45 357.67 867.45 337 c 1
620.45 28 m 1
 621.78 6.67 622.45 -15.33 622.45 -38 c 0
 622.45 -63.33 612.78 -95.83 593.45 -135.5 c 128
 574.12 -175.17 564.45 -182.67 564.45 -158 c 0
 563.78 -101.33 560.12 -48.33 553.45 1 c 1
 549.45 0.33 545.78 0 542.45 0 c 0
 444.45 -6.67 363.12 -0.33 298.45 19 c 0
 232.45 39 186.78 65.33 161.45 98 c 0
 136.78 129.33 123.12 170.33 120.45 221 c 0
 117.12 276.33 132.45 340.33 166.45 413 c 0
 178.45 438.33 192.12 460.17 207.45 478.5 c 128
 222.78 496.83 244.78 512 273.45 524 c 0
 369.45 564.67 451.12 530.67 518.45 422 c 0
 556.45 361.33 584.12 286.67 601.45 198 c 1
 630.12 208 657.78 222.67 684.45 242 c 1
 646.45 273.33 635.78 315 652.45 367 c 0
 681.12 455 731.45 530.67 803.45 594 c 1
 789.45 616 767.12 629 736.45 633 c 0
 720.45 635 714.45 643.67 718.45 659 c 0
 750.45 782.33 795.62 842.67 853.95 840 c 128
 912.28 837.33 1004.12 776.33 1129.45 657 c 128
 1254.78 537.67 1323.45 442 1335.45 370 c 0
 1350.78 280.67 1329.45 201.33 1271.45 132 c 0
 1242.12 97.33 1206.45 82 1164.45 86 c 0
 1059.78 96 943.12 125.67 814.45 175 c 1
 735.78 105 671.12 56 620.45 28 c 1
512.45 181 m 1
 499.78 213 482.78 248.33 461.45 287 c 1
 396.12 389.67 318.12 422 227.45 384 c 0
 186.12 366.67 170.12 346.33 179.45 323 c 0
 218.12 227 329.12 179.67 512.45 181 c 1
EndSplineSet
EndChar
StartChar: u1EE85
Encoding: 126597 126597 6015
Width: 1140
Flags: HW
LayerCount: 2
Fore
SplineSet
859.89 575 m 1
 820.56 639 778.22 642 732.89 584 c 1
 767.56 545.33 809.89 542.33 859.89 575 c 1
373.89 -184 m 0
 216.56 -157.33 132.22 -60 120.89 108 c 0
 114.89 185.33 139.22 261 193.89 335 c 0
 223.89 375.67 258.89 399.67 298.89 407 c 0
 390.89 424.33 464.22 381 518.89 277 c 0
 560.89 198.33 590.56 100.67 607.89 -16 c 1
 649.89 6.67 693.89 38 739.89 78 c 0
 849.22 174 913.89 254 933.89 318 c 1
 927.22 374 918.89 405 908.89 411 c 1
 857.56 331.67 791.89 312.33 711.89 353 c 0
 630.56 394.33 618.22 494 674.89 652 c 0
 721.56 782.67 777.56 848 842.89 848 c 0
 881.56 848 917.89 820.83 951.89 766.5 c 128
 985.89 712.17 1007.56 651 1016.89 583 c 128
 1026.22 515 1015.72 420.67 985.39 300 c 128
 955.06 179.33 895.22 68 805.89 -34 c 0
 751.89 -96 690.56 -139.67 621.89 -165 c 1
 623.89 -197 624.89 -230 624.89 -264 c 0
 624.89 -289.33 615.22 -321.67 595.89 -361 c 1
 580.89 -386 l 1
 570.89 -398 566.22 -397 566.89 -383 c 0
 566.22 -310.33 562.56 -243.67 555.89 -183 c 1
 499.22 -194.33 438.56 -194.67 373.89 -184 c 0
533.89 -47 m 1
 517.22 28.33 493.89 90.67 463.89 140 c 0
 395.22 252 324.89 294 252.89 266 c 0
 215.56 252 192.89 217.33 184.89 162 c 1
 177.56 104.67 188.56 50.67 217.89 0 c 0
 249.22 -55.33 339.56 -74 488.89 -56 c 0
 503.56 -54.67 518.56 -51.67 533.89 -47 c 1
EndSplineSet
EndChar
StartChar: u1EE87
Encoding: 126599 126599 6017
Width: 1535
Flags: HW
LayerCount: 2
Fore
SplineSet
784.75 -192.741210938 m 1
 964.356282553 -190.913736979 1117.26969401 -137.233398438 1243.49023438 -31.7001953125 c 0
 1333.5464963 42.5348346807 1371.31895724 137.758793014 1356.80761719 253.971679688 c 0
 1346.96274884 331.429367411 1290.11444154 369.184250224 1186.26269531 367.236328125 c 0
 1046.69824219 364.76953125 947.564453125 299.932291666 888.861328125 172.724609375 c 128
 830.158854167 45.5169270833 795.455078125 -76.305013021 784.75 -192.741210938 c 1
718.998046875 -191.419921875 m 1
 721.846246492 10.3562274103 759.386122794 178.027288608 831.617675781 311.593261719 c 0
 905.924651365 448.996973701 1007.438486 520.465886461 1136.15917969 526 c 0
 1287.45411558 532.504652275 1376.16244892 461.609144463 1402.28417969 313.313476562 c 0
 1434.23136308 133.311982921 1408.96162005 -15.1258425995 1326.4749506 -132 c 0
 1269.03171201 -213.39048591 1181.85972327 -280.355655181 1064.95898438 -332.895507812 c 0
 991.438220822 -365.938670063 896.691476029 -387.328969542 780.71875 -397.06640625 c 1
 783.361979167 -467.333333333 789.771809896 -543.151367187 799.948242188 -624.520507812 c 0
 803.120117188 -648.309570312 800.652994792 -660.071940104 792.546875 -659.807617188 c 1
 777.96484375 -656.371419271 766.422526042 -640.423828125 757.919921875 -611.96484375 c 128
 749.41796875 -583.505208333 744.461914063 -563.988932292 743.051757812 -553.416015625 c 0
 736.575846354 -499.801432292 731.025065104 -448.081380208 726.399414062 -398.255859375 c 1
 557.071885575 -389.471341668 420.582302241 -342.386055209 316.930664062 -257 c 0
 156.883951823 -125.156860352 99.5506184894 78.5098063151 144.930664062 354 c 0
 190.144974843 622.657891113 355.478308176 825.32455778 640.930664062 962 c 1
 456.263997395 1006.66666667 317.930664062 1002 225.930664062 948 c 0
 217.930664062 943.333333333 210.097330729 941.833333333 202.430664062 943.5 c 128
 194.763997395 945.166666667 190.930664062 949.666666667 190.930664062 957 c 0
 190.930664062 985 197.930664062 1018.66666667 211.930664062 1058 c 0
 237.263997395 1129.33333333 302.930664062 1168 408.930664062 1174 c 0
 461.597330729 1176.66666667 545.597330729 1166.66666667 660.930664062 1144 c 128
 776.263997395 1121.33333333 873.763997395 1110.66666667 953.430664062 1112 c 128
 1033.09733073 1113.33333333 1131.26399739 1124 1247.93066406 1144 c 0
 1287.88483755 1150.65902891 1300.88483755 1138.32569558 1286.93066406 1107 c 2
 1237.93066406 997 l 2
 1232.90016578 985.707044673 1225.23349911 979.37371134 1214.93066406 978 c 0
 888.263997395 934.666666667 659.597330729 870.333333333 528.930664062 785 c 0
 278.423572585 621.257083435 178.090239252 418.590416769 227.930664062 177 c 0
 254.749837239 48.3333333333 335.492675781 -54.6666666667 470.159179688 -132 c 0
 540.597007593 -171.756724847 623.543296655 -191.563365472 718.998046875 -191.419921875 c 1
EndSplineSet
EndChar
StartChar: u1EE88
Encoding: 126600 126600 6018
Width: 1714
Flags: HW
LayerCount: 2
Fore
SplineSet
1132.43847656 418 m 24
 1033.77180989 388 909.771809895 306.666666667 760.438476562 174 c 1
 1041.77180989 205.333333333 1266.43847656 265.333333333 1434.43847656 354 c 1
 1389.10514323 444 1288.43847656 465.333333333 1132.43847656 418 c 24
219.438476562 197 m 0
 258.771809895 153 356.105143229 136.333333333 511.438476562 147 c 1
 497.438476562 183.666666667 481.105143229 217 462.438476562 247 c 0
 398.438476562 350.333333333 320.438476562 382.666666667 228.438476562 344 c 0
 195.105143229 330 179.271809895 308.833333333 180.938476562 280.5 c 128
 182.605143229 252.166666667 195.438476562 224.333333333 219.438476562 197 c 0
623.438476562 -56 m 1
 623.438476562 -67 623.438476562 -67 623.438476562 -78 c 0
 623.438476562 -103.333333333 613.771809895 -135.833333333 594.438476562 -175.5 c 128
 575.105143229 -215.166666667 565.105143229 -222.666666667 564.438476562 -198 c 0
 563.771809895 -148.666666667 561.105143229 -101.666666667 556.438476562 -57 c 1
 546.438476562 -57 546.438476562 -57 536.438476562 -57 c 0
 423.771809895 -53.6666666667 338.938476562 -39.8333333333 281.938476562 -15.5 c 128
 224.938476562 8.83333333333 184.605143229 34 160.938476562 60 c 128
 137.271809895 86 123.771809895 126.5 120.438476562 181.5 c 128
 117.105143229 236.5 132.771809895 300.333333333 167.438476562 373 c 0
 179.438476562 398.333333333 193.105143229 420.166666667 208.438476562 438.5 c 128
 223.771809895 456.833333333 245.438476562 472 273.438476562 484 c 0
 369.438476562 524.666666667 451.438476562 490.666666667 519.438476562 382 c 0
 557.438476562 320.666666667 585.105143229 245 602.438476562 155 c 1
 615.105143229 156.333333333 627.771809895 158 640.438476562 160 c 1
 775.438476562 292 l 1
 786.105143229 494.666666667 767.438476562 778.666666667 719.438476562 1144 c 0
 704.105143229 1261.33333333 694.771809895 1326.66666667 691.438476562 1340 c 128
 688.105143229 1353.33333333 688.771809895 1365.66666667 693.438476562 1377 c 0
 719.438476562 1439.66666667 734.938476562 1474.33333333 739.938476562 1481 c 128
 744.938476562 1487.66666667 751.271809895 1490.66666667 758.938476562 1490 c 128
 766.605143229 1489.33333333 771.438476562 1485.66666667 773.438476562 1479 c 0
 791.438476562 1418.33333333 821.771809895 1364.66666667 864.438476562 1318 c 1
 864.438476562 1276 l 1
 825.438476562 1225 l 2
 817.438476562 1214.33333333 814.105143229 1202.66666667 815.438476562 1190 c 0
 847.438476562 885.333333333 860.271809895 676.333333333 853.938476562 563 c 128
 847.605143229 449.666666667 840.771809895 375.666666667 833.438476562 341 c 1
 1002.10514323 473 1122.43847656 556.166666667 1194.43847656 590.5 c 128
 1266.43847656 624.833333333 1328.43847656 645.333333333 1380.43847656 652 c 0
 1408.43847656 655.333333333 1440.10514323 646 1475.43847656 624 c 1
 1549.43847656 576 1588.77180989 531.666666667 1593.43847656 491 c 128
 1598.10514323 450.333333333 1582.43847656 395 1546.43847656 325 c 128
 1510.43847656 255 1480.77180989 208 1457.43847656 184 c 0
 1422.77180989 148 1300.10514323 97.6666666667 1089.43847656 33 c 0
 916.105143228 -20.3333333333 760.771809895 -50 623.438476562 -56 c 1
EndSplineSet
EndChar
StartChar: u1EE89
Encoding: 126601 126601 6019
Width: 1552
VWidth: 0
Flags: W
LayerCount: 2
Fore
SplineSet
189.176757812 566 m 0,0,1
 264.176757812 748 264.176757812 748 408.176757812 727 c 0,2,3
 612.176757812 697 612.176757812 697 665.176757812 459 c 0,4,5
 698.176757812 310 698.176757812 310 652.176757812 92 c 1,6,7
 1034.17675781 102 1034.17675781 102 1270.17675781 291 c 0,8,9
 1290.17675781 307 1290.17675781 307 1273.17675781 321 c 0,10,11
 1238.17675781 350 1238.17675781 350 1040.17675781 362 c 0,12,13
 840.176757812 374 840.176757812 374 808.176757812 464 c 0,14,15
 776.176757812 554 776.176757812 554 814.176757812 666 c 0,16,17
 886.176757812 886 886.176757812 886 1102.17675781 1042 c 0,18,19
 1211.17675781 1121 1211.17675781 1121 1288.17675781 1126 c 0,20,21
 1476.17675781 1138 1476.17675781 1138 1419.17675781 934 c 0,22,23
 1404.17675781 880 1404.17675781 880 1367.17675781 900 c 0,24,25
 1243.17675781 967 1243.17675781 967 1055.17675781 860 c 0,26,27
 932.176757812 790 932.176757812 790 885.176757812 657 c 0,28,29
 876.176757812 631 876.176757812 631 889.176757812 603 c 0,30,31
 935.176757812 504 935.176757812 504 1151.17675781 492 c 0,32,33
 1370.17675781 480 1370.17675781 480 1380.17675781 401 c 0,34,35
 1400.17675781 240 1400.17675781 240 1288.17675781 150 c 0,36,37
 993.176757812 -87 993.176757812 -87 618.176757812 -101 c 0,38,39
 608.176757812 -101 608.176757812 -101 599.176757812 -102 c 1,40,41
 567.176757812 -200 567.176757812 -200 522.176757812 -308 c 0,42,43
 516.176757812 -324 516.176757812 -324 492.176757812 -362 c 0,44,45
 469.176757812 -400 469.176757812 -400 446.176757812 -399 c 1,46,47
 435.176757812 -395 435.176757812 -395 448.176757812 -362 c 0,48,49
 505.176757812 -222 505.176757812 -222 540.176757812 -101 c 1,50,51
 165.176757812 -86 165.176757812 -86 123.176757812 231 c 0,52,53
 105.176757812 364 105.176757812 364 189.176757812 566 c 0,0,1
582.176757812 93 m 1,54,55
 602.176757812 239 602.176757812 239 577.176757812 347 c 0,56,57
 538.176757812 517 538.176757812 517 389.176757812 569 c 0,58,59
 283.176757812 606 283.176757812 606 244.176757812 513 c 0,60,61
 197.176757812 402 197.176757812 402 229.176757812 318 c 1,62,63
 297.176757812 107 297.176757812 107 582.176757812 93 c 1,54,55
EndSplineSet
Refer: 195 -1 N 1 0 0 1 819.176 -519 2
EndChar
StartChar: u1EE8B
Encoding: 126603 126603 6020
Width: 1215
Flags: HW
LayerCount: 2
Fore
SplineSet
265.071289062 527 m 0
 222.404622395 445 204.071289062 377.666666667 210.071289062 325 c 0
 228.071289062 157 352.404622395 77 583.071289062 85 c 0
 637.737955729 87 688.071289062 93 734.071289062 103 c 1
 737.404622395 167.666666667 733.404622395 226 722.071289062 278 c 0
 682.071289062 451.333333333 602.071289062 554 482.071289062 586 c 0
 372.737955729 615.333333333 300.404622395 595.666666667 265.071289062 527 c 0
770.071289062 -81 m 1
 744.737955729 -171.666666667 710.071289062 -270.666666667 666.071289062 -378 c 0
 662.071289062 -388.666666667 652.237955729 -406.666666667 636.571289062 -432 c 128
 620.904622395 -457.333333333 605.737955729 -469.333333333 591.071289062 -468 c 1
 583.737955729 -465.333333333 584.404622395 -453.333333333 593.071289062 -432 c 0
 642.404622395 -312 678.737955729 -202.666666667 702.071289062 -104 c 1
 635.404622395 -123.333333333 573.404622395 -132.666666667 516.071289062 -132 c 0
 254.737955729 -128 122.737955729 -13 120.071289062 213 c 0
 118.071289062 345 158.071289062 471.666666667 240.071289062 593 c 0
 312.071289062 700.333333333 392.404622395 748.333333333 481.071289062 737 c 0
 649.737955729 715 759.404622395 599 810.071289062 389 c 0
 827.404622395 315 829.071289062 227.333333333 815.071289062 126 c 1
 897.071289062 156 962.404622395 202 1011.07128906 264 c 1
 1007.73795573 349.333333333 992.071289061 501.333333333 964.071289062 720 c 128
 936.071289062 938.666666667 915.404622395 1144 902.071289062 1336 c 1
 894.071289062 1404 l 1
 894.071289062 1416 895.737955729 1426 899.071289062 1434 c 2
 938.071289062 1524 l 2
 942.071289062 1533.33333333 949.071289062 1538 959.071289062 1538 c 128
 969.071289062 1538 976.071289062 1531.66666667 980.071289062 1519 c 0
 998.737955727 1460.33333333 1026.73795573 1410.66666667 1064.07128906 1370 c 0
 1076.07128906 1357.33333333 1075.23795573 1340.66666667 1061.57128906 1320 c 128
 1047.90462239 1299.33333333 1036.73795573 1284 1028.07128906 1274 c 128
 1019.40462239 1264 1015.40462239 1250 1016.07128906 1232 c 0
 1018.73795573 1164.66666667 1031.40462239 1040.66666667 1054.07128906 860 c 0
 1074.07128906 702 1087.07128906 579.666666667 1093.07128906 493 c 0
 1103.07128906 355.666666667 1084.73795573 230.666666667 1038.07128906 118 c 0
 1010.07128906 48.6666666667 938.737955729 -10.6666666667 824.071289062 -60 c 0
 805.404622395 -67.3333333333 787.404622395 -74.3333333333 770.071289062 -81 c 1
EndSplineSet
EndChar
